<?xml version="1.0" encoding="utf-8"?>
<!-- Generator: Adobe Illustrator 21.0.0, SVG Export Plug-In . SVG Version: 6.00 Build 0)  -->
<svg version="1.1" id="Layer_1" xmlns="http://www.w3.org/2000/svg" xmlns:xlink="http://www.w3.org/1999/xlink" x="0px" y="0px"
	 viewBox="0 0 402.1 425.2" enable-background="new 0 0 402.1 425.2" xml:space="preserve">
<path fill="#fce303" fill-rule="evenodd" clip-rule="evenodd" d="M171.7,190.9c10.9,5.5,20,15.4,23.7,27.6c3.7,12.2,2,26.7-2.2,38.3
	c-4.2,11.6-10.9,20.3-18.4,25.6c-7.5,5.3-15.7,7-24.4,7.6c-8.6,0.6-17.7,0-26.3-4c-8.6-4-16.8-11.5-21.7-19.7
	c-4.9-8.2-6.5-17.2-5.8-28.2c0.7-11,3.8-24.1,10.7-33.6c6.8-9.5,17.4-15.4,29.1-17.8C148.1,184.3,160.8,185.4,171.7,190.9z
	 M259.3,269.2c-0.7-3-2.4-8.1-0.4-12.9c2-4.9,7.7-9.4,12.7-8.7c5,0.7,9.4,6.8,12.8,13c3.4,6.2,5.9,12.4,6.5,20.8
	c0.6,8.4-0.6,18.8-5.4,21.2c-4.7,2.4-13-3.3-15-8.8c-0.6-1.1-2.5-2.3-3.3-2c-0.9,0.3-0.7,2.2,0,4.2c0.7,2,1.9,4.1,3.8,7.3
	c1.8,3.2,4.3,7.5,9.4,8.7c5.2,1.2,13-0.8,16-4.2c3-3.4,1-8.3,0-12.3c-1-4-1-7-1.1-10.7c-0.1-3.6-0.4-7.8-1.2-12.2
	c-0.8-4.3-2.2-8.8-4-12.8c-1.7-4.1-3.8-7.7-7.2-11.5c-3.5-3.8-8.3-7.6-13.4-7.9c-5.1-0.3-10.4,3-14.2,7.3c-3.9,4.3-6.3,9.5-7.1,15
	l10.8,10.8C259.6,272.9,260,272.2,259.3,269.2z M153.2,244.1c-1.9,3.7-2.2,9-0.4,12.8c1.8,3.8,5.6,6.2,9.7,7
	c4.1,0.9,8.6,0.2,11.6-2.7c3-2.9,4.7-8,4.4-12.2c-0.3-4.2-2.4-7.4-5.5-9.4c-3.1-2-7-2.7-10.7-2C158.6,238.2,155.1,240.4,153.2,244.1
	z M64.4,207.4c-1.9-6.7-4.1-13.4-7.8-24.3c-3.8-10.8-9.2-25.8-14.5-38.8c-5.4-13-10.7-24-16.1-32.8c-5.4-8.8-10.9-15.4-17.1-21.2
	c1.8-4.1,3.6-8.1,4.8-11.9c1.2-3.8,1.9-7.3,2.5-10.8c4.5,0.5,9,1,13.8,2.1c4.8,1.2,9.9,3,15,4.9c0.5-5.8,0.9-11.6,1.6-17.1
	c0.7-5.4,1.8-10.5,2.8-15.6c3.6,4.5,7.2,9.1,11.8,12.1c4.6,3.1,10.1,4.7,15.7,6.3c2.4-7.5,4.7-15,7.3-21.2
	c2.6-6.1,5.3-10.9,8.1-15.7c2.9,4.4,5.9,8.8,9.9,12.7c4,3.9,9,7.4,14.1,10.8c5-7.2,9.9-14.4,14.9-19.7c5-5.3,9.9-8.8,14.8-12.3
	c2.3,5.2,4.7,10.5,9,16.3c4.3,5.8,10.5,12.1,16.8,18.4c3.7-6.8,7.4-13.6,10.1-18.6c2.8-5,4.7-8.3,6.6-11.5
	c3.2,5.3,6.4,10.7,10.4,16.1c4,5.4,8.8,10.8,13.5,16.3c6.7-4,13.3-8.1,19.4-9.7c6.1-1.6,11.5-0.7,17,0.2
	c2.9,37.2,8.4,74.2,16.2,109.7c7.8,35.6,18,69.7,29.4,102.5c11.3,32.8,23.7,64.1,37.6,94.8c-8,3-15.4,7.3-23.3,13.6
	c-7.9,6.3-16.1,14.7-22.3,22.4c-6.2,7.8-10.2,14.9-13.1,22.6c-5.6-3.7-11.6-7-18.6-10.1c-7-3.1-15.1-5.9-21.5-7.9
	c-6.4-2-11-3-15.6-3.7c1.4-4,4.4-7.2,9.5-9.6s12.3-3.7,17.9-1.1c5.6,2.7,9.5,9.4,12.3,12.3c2.8,2.9,4.3,2,4.6,0.6
	c-2.3-3.6-4.6-7.3-6.6-11c-1.9-3.7-3.6-7.5-6.8-10.3c-3.3-2.8-8.2-4.6-13.8-4.4c-5.6,0.2-11.8,2.3-16.1,6.1
	c-4.3,3.8-6.7,9.2-11,14.7c-4.3,5.5-10.6,11.1-21.5,16.4c-11,5.4-26.7,10.6-39.5,10.3c-12.8-0.3-22.7-6-28.4-14.8
	c-5.7-8.9-7.1-21-6-30.5c1.1-9.5,4.8-16.4,10.3-21.3c3-2.4,6-4.9,8.9-7.7c2.9-2.8,5.8-6,8.7-9.2l-3-0.5c-3.3,3.3-6.7,6.6-11.1,9.8
	c-4.4,3.2-9.9,6.3-15.3,9.4c-8.3,2.5-17.3,2.9-25.2,1.1c-7.9-1.8-14.7-5.6-16.7-12.8c-1.9-7.2,1-17.6,6.6-23.1
	c5.6-5.5,14-6.1,21.4-8.8c7.4-2.7,13.7-7.5,18.9-13.4c2,2.4,4.7,4.1,10.9,5.8c6.2,1.7,15.8,3.3,25.6,2.8c9.8-0.6,19.6-3.4,28.9-10.5
	c9.3-7.2,17.9-18.8,21.5-34.9c3.7-16.1,2.4-36.6-6.9-50.7c-9.3-14-26.7-21.6-42.5-22.9c-15.8-1.3-30.2,3.6-40.4,10.8
	c-10.2,7.2-16.2,16.6-18.2,26.9c-4.2-2.7-8.3-5.3-13.3-6.8C76,207.9,70.2,207.7,64.4,207.4z M26.5,127c4.8,9.5,9.5,21.7,13.9,33.1
	c4.4,11.4,8.7,22,11.3,31.1c2.7,9,3.8,16.4,3.9,23.8c-0.9,5.1-1.9,10.2-3.1,15.9c-1.2,5.7-2.7,11.9-3.7,19.3
	c-1,7.4-1.4,16.1,0.5,23.4c1.9,7.3,6,13.3,9.7,18.4c3.7,5.1,7.1,9.4,10.7,13.5c-3.4,2.6-5.8,6.2-7.6,12c-1.7,5.8-2.7,13.9-0.5,20.1
	c2.2,6.2,7.7,10.7,13.6,13.4c5.9,2.7,12.3,3.8,18,3.8c5.6,0,10.6-1.1,15-3.3c-1,1.9-1.7,3.9-2.7,7.6c-1,3.7-2.3,9.1-0.7,19.1
	c1.6,10,6.2,24.5,16.3,32.4c10,7.9,25.5,9.1,39.4,6.8c13.9-2.3,26.2-8,34.5-12.3c8.3-4.3,12.6-7.2,16.3-10.6
	c6.8,0.5,13.5,1.6,20.2,3.2c6.7,1.7,13.4,4,20.1,7.1c6.6,3.1,13.1,6.9,19.1,11.3l-2.2,9.2l5.9-3c3.6-8.4,8.3-16.3,14.9-24.9
	c6.7-8.6,15.3-18,23.5-24.6c8.2-6.6,15.9-10.6,20.9-12.9c4.9-2.3,7.1-3,9.3-3.3c2.1,2,4.2,4,6.5,6.6c2.3,2.5,4.8,5.5,7.7,8.8
	c2.8,3.2,6,6.7,8.9,10.1c2.9,3.5,5.5,6.9,8.3,10.2c2.8,3.3,5.8,6.3,8.2,9.3c2.3,3,4,5.9,6.3,8.6c2.4,2.7,5.5,5.3,8,6.2
	c2.5,0.9,4.3-0.1,5.1-1.6c-2.2-2.5-4.2-5-8.7-11c-4.5-5.9-11.4-15.3-17.7-22.9c-6.3-7.6-12-13.4-16-19.1c-4-5.7-6.2-11.1-8.3-14
	c-2.1-2.9-4.1-3.1-5.6-2.3c-3-2.4-5.4-5.3-9.1-12.2c-3.7-6.9-8.7-17.8-15.6-35.1c-6.9-17.3-15.6-41-23.1-63.9
	c-7.5-23-13.7-45.3-19-69.3c-5.3-24-9.8-49.6-12.8-72.9c-2.9-23.2-4.3-44-4.5-64.9c-8.9-1.3-17.7-2.5-25.6-1.4
	c-7.9,1.1-14.8,4.7-21.7,8.2c-4.3-4.2-8.7-8.5-12.8-14.1c-4.1-5.6-8.1-12.7-12-19.7c-3.6,4.6-7.3,9.1-10.7,14.2s-6.5,10.8-9.6,16.5
	c-3.8-3.5-7.5-7-10.5-12.2c-3-5.2-5.1-12-7.3-18.8c-7.5,4.7-14.9,9.3-20.8,15.2c-5.9,5.9-10.2,13-14.6,20.1
	c-4.3-3.5-8.6-7-12.8-11.7C99,18.8,94.9,12.8,90.8,6.9c-4.9,7-9.7,13.9-12.7,20.7c-3,6.8-4.1,13.4-5.3,19.9c-3.9-1.7-7.8-3.3-12-6.7
	c-4.2-3.4-8.8-8.5-13.4-13.6c-3.2,7.5-6.4,15-7.9,21c-1.5,6-1.3,10.5-1.1,15.1c-3.7-1.2-7.4-2.4-12.3-3.5c-4.9-1.1-11-2.2-17.1-3.2
	c-0.6,6.3-1.3,12.5-2.8,18.1C4.8,80.2,2.4,85.2,0,90.2c4,4.4,7.8,9.1,12.2,14.8C16.6,110.7,21.7,117.5,26.5,127z M90.5,237.6
	c-0.3,5.1-0.1,10.9,0,16.7c-3.3-3.5-8.5-5.6-13.2-5c-4.7,0.6-9,3.9-10.9,8.1c-1.9,4.3-1.5,9.6,1.9,13.3c3.3,3.8,9.6,6,14.7,4.6
	c5.1-1.5,9.1-6.7,10-12c2.3,4.1,4.5,8.2,7.1,11.4c2.6,3.2,5.4,5.4,8.3,7.6c-2.2,2.8-4.5,5.6-9.5,8.7c-5,3.1-12.7,6.3-20.4,9.6
	c-5.3-2.7-10-6.5-13.9-11.5c-3.8-5-6.8-11.1-8.2-16.6c-1.4-5.5-1.3-10.3-0.8-16.1c0.6-5.8,1.6-12.6,2.9-19.7
	c1.3-7.2,2.8-14.7,4.6-22.2c5.7,0,11.5-0.1,16.4,1.5c4.9,1.5,8.8,4.7,12.8,7.8C91.6,228,90.8,232.5,90.5,237.6z"/>
</svg>
