<?xml version="1.0" encoding="utf-8"?>
<!-- Generator: Adobe Illustrator 21.0.0, SVG Export Plug-In . SVG Version: 6.00 Build 0)  -->
<svg version="1.1" id="Layer_1" xmlns="http://www.w3.org/2000/svg" xmlns:xlink="http://www.w3.org/1999/xlink" x="0px" y="0px"
	 viewBox="0 0 425.3 360.3" enable-background="new 0 0 425.3 360.3" xml:space="preserve">
<path fill="#ffffff" fill-rule="evenodd" clip-rule="evenodd" d="M211.4,5.6c-1.2,0.1-2.9-0.5-4.6-0.7c-3.5-0.4-7.3,0-10.8-0.2
	c-1.8-0.1-3.5-0.2-5.4,0.2c-1.9,0.4-3.8,1.4-5.8,2.4c-1.9,1-3.8,1.9-5.7,3.4c-1.8,1.5-3.5,3.7-4.7,5.7c-1.2,2-1.9,3.9-4.4,5.2
	c-2.5,1.2-6.8,1.8-11.4,2.4c-4.5,0.6-9.3,1.2-13.6,1.7c-4.3,0.5-8.1,0.9-13.1,1.7c-5,0.8-11.3,1.9-18.1,3.7
	c-6.8,1.7-14.1,4.1-21.1,6.9c-7,2.8-13.6,6-19.6,9.2c-5.9,3.2-11.1,6.2-15.7,9.4c-4.6,3.1-8.8,6.3-13.1,10
	c-8.8,7.3-17.9,16.7-23.5,25.4c-2.9,4.3-5.1,8.4-7.2,12.1c-2.1,3.7-4.1,6.9-5.2,8.8c-1.1,1.9-1.2,2.4-1.1,3c1.8,2.4,4.5,4.2,7.3,4.8
	c2.8,0.6,5.8,0.1,10.1-1c4.3-1,10.1-2.5,16.2-4c6.1-1.5,12.5-3,19.5-4.4c7-1.4,14.4-2.6,20.4-3.5c6-0.9,10.4-1.6,15.8-2.2
	c5.4-0.6,11.7-1.3,18-1.7c6.3-0.4,12.5-0.7,17.4-1c4.9-0.3,8.6-0.7,12.8-0.9c4.2-0.2,9-0.1,13.7,0c4.7,0,9.4,0,11.9-0.4
	c2.5-0.4,2.8-1.2,2.8-2c0-0.8-0.1-1.6-0.6-2.7c-0.5-1.1-1.2-2.4-2.1-3.8c-0.9-1.4-1.9-2.8-1.8-3.8c0.1-0.9,1.3-1.4,2.6-1.7
	c1.3-0.3,2.6-0.3,4.9,0.9c2.3,1.2,5.6,3.8,8.7,6.4c3.1,2.6,6.2,5.3,9.1,8.1c10.1,0.5,20.2,1.5,28.4,2.8c8.2,1.3,14.5,2.9,23.2,5.3
	c8.7,2.4,19.8,5.6,27.1,7.8c7.3,2.2,10.8,3.3,14.2,4.4c6-3,12.5-5.4,16.6-6.4c4.1-1,5.8-0.6,7,0.2c1.2,0.8,1.9,1.9,2.1,3.1l-10.9,7
	c9.3,4.3,18.7,8.6,30.7,14c12,5.4,26.8,11.8,37.4,17c10.6,5.1,17.2,9,23.7,12.6c6.5,3.6,12.9,7.1,16.4,8.7c3.5,1.7,4.1,1.6,4.6,1.2
	c-1.3-5.8-3.3-11.4-6-17.1c-2.8-5.7-6.3-11.3-11.2-18.1c-4.8-6.8-10.9-14.7-16-21c-5.1-6.3-9.3-11-13.1-15.3
	c-3.8-4.3-7.3-8.1-10.8-11.8c-3.5-3.7-7-7.4-11.3-11s-9.5-7.2-14.7-10.8c-5.2-3.6-10.4-7.3-16.1-10.9c-5.7-3.7-11.9-7.3-18.2-10.8
	c-0.1-2.5-0.2-4.9-0.1-7.4c0-2.4,0.2-4.8-0.3-6.8c-0.4-2-1.5-3.6-2.6-5.1c-1.1-1.5-2.3-2.9-3.7-4.1c-1.4-1.2-3.1-2.2-4.6-3.4
	c-1.6-1.1-3.1-2.3-4.4-3.8c-1.3-1.5-2.4-3.2-3.5-4.9c-1.2-1.6-2.4-3.1-3.8-4.2c-1.4-1.1-3-1.9-4.7-2.6c-1.7-0.7-3.5-1.4-5.9-1.8
	c-2.5-0.5-5.7-0.7-7.8-0.8c-2.2-0.1-3.3-0.1-4.5,0c-1.2,0.1-2.5,0.2-4.1-0.5c-1.6-0.6-3.5-2-5.4-3.5c-1.9-1.4-3.9-2.9-6.6-3.8
	c-2.6-0.9-5.9-1.2-9-0.9c-3.1,0.3-6.2,1.2-8.1,2c-1.9,0.8-2.7,1.5-3.5,2.1C213.6,4.9,212.7,5.6,211.4,5.6z M219.4,9.1
	c4.5-1,9.6-1.3,13.4-0.3c3.8,1.1,6.4,3.6,9,5.3c2.6,1.7,5.2,2.6,8.3,2.7c3.1,0.2,6.7-0.4,9.3-0.4c2.6-0.1,4.2,0.3,5.7,0.7
	c1.5,0.4,3,0.8,4.3,1.6c1.3,0.7,2.3,1.8,3.1,3.1c0.8,1.3,1.4,3,3.9,5.2c2.5,2.2,6.9,5,9.8,7.4c3,2.5,4.5,4.6,5.6,7.1
	c-1.2,2.4-2.5,4.8-3.7,7.1c-1.2,2.3-2.4,4.5-3.6,5.9c-1.2,1.4-2.4,2.1-4.2,2.3c-1.8,0.2-4.2,0-5.9-0.6c-1.7-0.6-2.7-1.6-3.5-2.7
	c-0.9-1.1-1.6-2.1-2.4-2.6c-0.8-0.4-1.7-0.2-2.6,0.1c-0.9,0.3-1.8,0.7-4.4,1c-2.6,0.3-6.9,0.5-11.8-0.2c-4.9-0.7-10.5-2.2-13.9-3.4
	c-3.4-1.2-4.5-2.2-5.8-3.1c-1.2-0.9-2.5-1.7-3.7-2.1c-1.2-0.4-2.3-0.3-3.3,0c-1,0.3-1.8,0.7-3.3,0.8c-1.5,0.1-3.8-0.2-5.7-0.8
	c-1.9-0.6-3.5-1.5-4.5-2.4c-1-0.9-1.5-1.9-1.9-2.8c-0.5-0.9-0.9-1.7-1.4-2.4c-0.5-0.7-0.9-1.4-1.5-2c-0.6-0.5-1.5-0.9-3.1-0.7
	c-1.6,0.2-4,1-6.4,1.8c-2.4,0.8-4.8,1.6-6.9,1.7c-2.1,0-3.9-0.7-5.6-1.5c-1.8-0.8-3.5-1.6-4.7-2.7c-2.6-2.2-2-5.8-0.8-9.2
	c0.6-1.8,1.4-3.4,2.5-4.8c1.1-1.4,2.5-2.4,5-3.5c2.5-1.1,6.2-2.4,10.1-2.6c3.9-0.2,8.1,0.6,12.1,0.2C211,11.6,214.9,10.1,219.4,9.1z
	 M108,114c-8.8,0.9-18.8,2.2-28.3,3.7c-9.5,1.6-18.4,3.4-29.1,5.9c-10.6,2.5-23,5.7-31,8.2c-8.1,2.5-11.9,4.3-15.4,6.6
	c-0.9,3.5-1.6,7-2.4,11c-0.7,4-1.5,8.4-1.7,13c-0.2,4.6,0,9.3,0.7,15.4c0.7,6.1,1.8,13.7,3.7,21.7c1.9,8,4.5,16.5,7.5,24.2
	c3,7.6,6.4,14.4,11.2,22.1c4.8,7.6,10.9,16.1,15.5,22.3c4.6,6.2,7.8,10,13.2,15.4c5.4,5.4,13.1,12.3,20.7,18.5
	c7.6,6.2,15.1,11.7,21.5,16.1c6.3,4.5,11.5,7.9,20.1,12.4c8.6,4.5,20.6,10,30.3,13.8c9.7,3.8,17,6,25.1,7.8c8.1,1.8,17,3.3,25.5,4.7
	c8.5,1.3,16.6,2.5,23.1,3.1c6.5,0.5,11.4,0.4,16.3,0.1c5-0.2,10.1-0.6,14.5-0.9c4.5-0.4,8.4-0.7,12.9-1.1c4.5-0.4,9.4-0.9,14.9-1.9
	c5.5-1,11.4-2.5,18-4.8c6.7-2.3,14-5.2,20.6-8c6.6-2.8,12.4-5.4,18.4-8.2c6-2.8,12.1-5.9,16.4-8.3c4.4-2.3,6.9-3.9,9.7-5.2
	c2.7-1.4,5.6-2.5,9.2-5.2c3.5-2.6,7.7-6.8,12-10.8c4.3-4,8.6-7.9,12.5-11.8c3.9-3.9,7.4-7.7,11-12.4c3.6-4.7,7.3-10.3,10.4-16.1
	c3.1-5.8,5.6-12,7.3-18s2.6-11.9,2.9-16.9c0.3-4.9,0-8.9-0.5-12.9c-0.5-4.1-1.2-8.3-2-11.2c-0.7-2.9-1.4-4.6-3.4-6.5
	c-2-1.9-5.1-4-8.3-6.1c-3.2-2.2-6.3-4.5-12.3-8.1c-6-3.6-14.8-8.6-21.8-12.5c-7-3.9-12.2-6.8-17.3-9.7c-5.1-2.9-10.2-5.8-18.3-9.2
	c-8.1-3.4-19.1-7.3-30.2-11.4c-11-4-22-8.2-33.1-11.9c-11.1-3.7-22.3-7-31.5-9.2c-9.2-2.2-16.3-3.4-25.3-4.6
	c-9-1.2-19.8-2.4-27.2-3.2c-7.5-0.8-11.6-1.1-17.8-1.4c-6.3-0.3-14.7-0.7-22.4-0.7c-7.7,0-14.7,0.4-22,0.8
	C124.5,112.7,116.8,113.2,108,114z M118.5,120.9c3.5-0.3,6.5-0.5,9.9-0.6c3.3-0.1,6.9,0.1,12.5,0c5.5,0,13-0.3,19.7-0.3
	c6.7-0.1,12.8-0.1,17.1-0.1c4.4,0,7.1-0.1,9.6,0c2.5,0.1,4.8,0.5,6.9,1.8c2.1,1.3,4,3.4,6,5.6c2,2.2,4.1,4.3,6.1,6.4
	c2,2.1,3.9,4,6.1,5.4c2.1,1.4,4.5,2.3,6,2.1c1.6-0.3,2.3-1.7,2.1-3.2c-0.3-1.5-1.7-3.1-3-4.7c-1.4-1.6-2.8-3.1-3.5-4.4
	c-0.8-1.3-0.9-2.3-0.8-3.2c0.1-1,0.4-1.9,1.1-2.3c0.7-0.5,1.7-0.6,2.7-0.6c1,0,2,0,4.9,0.3c2.9,0.3,7.9,0.9,11.7,1.5
	c3.8,0.6,6.5,1.3,9.6,1.9c3.1,0.7,6.4,1.3,9,2.6c2.6,1.3,4.3,3.1,5.3,5.3c-3.1,1.4-6.6,2.9-10.2,4.2c-1.9,0.6-3.7,1.1-5.4,1.9
	c-1.6,0.8-3,1.8-3.4,3c-0.4,1.1,0.1,2.4,1,3.2c0.9,0.8,2.1,1.1,4.2,0.8c2.1-0.4,5.1-1.5,7.9-2.5c5.5-2,10.5-3.6,15.8-5
	c2.6-0.7,5.2-1.3,6.8-1.5c1.6-0.1,2.2,0.3,3.1,0.4c0.9,0.1,2,0,6.3,1.3c4.3,1.2,11.9,3.8,20.5,7.1c8.6,3.3,18.1,7.3,31,14
	c12.8,6.6,28.9,15.8,40,22.1c11.1,6.2,17.1,9.5,22.9,13c5.8,3.5,11.3,7.2,14.2,9.5c2.9,2.3,3.2,3.1,3.5,3.9c0.3,0.8,0.5,1.5,0.8,3.9
	c0.2,2.4,0.5,6.5,0.5,10.6c0,4.1-0.2,8.3-1.1,12.4c-0.9,4.1-2.4,8.2-4.7,13.1c-2.3,4.9-5.3,10.6-8.1,15c-2.7,4.4-5.2,7.5-7.7,10.6
	c-2.5,3.1-5.1,6-7.4,8.6c-2.3,2.5-4.3,4.6-7.8,8c-3.5,3.3-8.4,7.9-13.6,12.1c-5.2,4.2-10.6,8-16,11.3c-5.4,3.2-10.9,5.8-15.4,7.9
	c-4.6,2.1-8.2,3.7-12.7,5.5c-4.5,1.8-10,3.8-15.5,5.7c-11.1,3.6-22.6,7-34,9.1c-5.7,1-11.4,1.6-16.2,2.2c-4.8,0.5-8.9,1-16,1.4
	c-7.2,0.3-17.5,0.6-26.7,0.3c-9.2-0.2-17.3-0.9-23.7-1.7c-6.4-0.8-11.2-1.9-15.4-2.9c-4.3-1-8-2-11.7-3s-7.3-1.9-9.5-2.7
	c-2.2-0.8-2.9-1.4-3.7-1.8c-0.8-0.5-1.7-0.8-5.9-2.6c-4.2-1.8-11.7-5-19.6-9c-7.8-4-16-8.9-23.2-13.6c-7.2-4.7-13.4-9.3-20.3-15.1
	c-6.9-5.8-14.5-12.8-19.8-18.1s-8.4-8.9-11.9-13.5c-3.5-4.6-7.6-10.1-11.4-16.2c-3.8-6.1-7.3-12.8-10.4-19.9
	c-3.2-7.2-6.1-14.8-8.5-22.8c-2.4-8-4.3-16.4-5.6-23.9c-1.3-7.5-2.1-14.1-2.3-18.5s0.2-6.6,0.8-8.6c0.6-2,1.5-3.7,2.4-5
	c1-1.2,2.1-1.9,4.4-2.9c2.4-1,6-2.2,9.5-3.5c3.5-1.3,6.8-2.6,13.5-4.5c6.7-1.9,16.6-4.5,25-6.5c8.4-2,15.1-3.4,21.7-4.9
	c6.6-1.5,12.9-3,18-3.9C111.1,121.4,115,121.1,118.5,120.9z M136.7,139.8c-2.5,1.9-4.7,4.3-7,6.7c-2.3,2.4-4.6,4.9-6.8,8.2
	c-2.2,3.3-4.2,7.5-5.6,11.2c-1.3,3.7-1.9,6.9-2.3,10.1c-0.5,3.2-0.8,6.5-0.6,9.9c0.2,3.4,1.1,6.9,2.2,10.7c1.2,3.8,2.6,7.9,4.7,11.6
	c2.1,3.7,4.8,7.2,6.7,9.7c2,2.5,3.2,4.1,4.6,5.6c1.3,1.5,2.7,3,4.3,4.2c1.6,1.2,3.5,2,5.3,2.9c1.8,0.9,3.7,1.8,7.6,2.8
	c3.9,1,10,2,15.1,2.4c5.1,0.4,9.3,0.1,13.5-1c4.2-1.1,8.6-2.9,11.9-4.8c3.4-1.9,5.9-3.9,9.1-6.6c3.2-2.7,7.2-6,9.7-7.9
	s3.3-2.5,4.3-2.9c2.5,2.4,4.8,5.1,6.6,8.2c1.9,3.1,3.4,6.6,5.1,9.9c1.7,3.3,3.6,6.3,5.3,8.8c1.7,2.5,3.3,4.4,5.1,6.2
	c1.7,1.8,3.6,3.6,5.9,5.4c2.3,1.8,5,3.5,8.5,5.3c3.5,1.8,7.7,3.8,12.5,4.9c4.7,1.1,10,1.5,14.4,1.2c4.4-0.3,7.9-1.2,11.3-2.3
	c3.5-1.1,6.9-2.5,9.7-3.9c2.9-1.4,5.2-3,7.3-4.6c2.2-1.7,4.2-3.5,6.5-6.3c2.3-2.8,4.9-6.7,7-11.3c2.1-4.6,3.8-9.9,4.4-14.7
	c0.7-4.8,0.3-9.1-0.4-14c-0.8-5-1.9-10.6-3.5-15.5c-1.5-4.9-3.4-9.1-5.8-12.6c-2.4-3.5-5.3-6.4-8.7-9.4c-3.3-3.1-7.1-6.4-11.5-9.3
	c-4.4-2.9-9.4-5.5-14.2-6.9c-4.7-1.4-9.1-1.6-13.1-1.6c-4,0-7.5,0.4-10.8,1c-3.3,0.7-6.5,1.7-11.7,3.5c-5.2,1.9-12.5,4.5-19.8,7.3
	c-1.9-0.8-3.6-2-5.1-3.8c-1.5-1.8-2.7-4.2-4-6.4c-1.3-2.3-2.6-4.4-4.2-6.4c-1.6-2-3.5-3.8-5.5-5.5c-2-1.8-4.1-3.5-7.4-5.5
	c-3.2-2-7.6-4.3-12.1-5.6c-4.5-1.3-9.2-1.6-14.6-1.1c-5.4,0.5-11.5,1.8-16,3.1c-4.5,1.4-7.4,2.8-10.2,4.3
	C141.9,136.5,139.2,137.9,136.7,139.8z M157.5,140.2c5.3-1.5,11-2.2,16.2-2.2c5.2,0,10,0.7,13.5,1.7c3.5,1,5.7,2.2,7.8,3.4
	c2.1,1.3,4.1,2.6,5.9,4c1.7,1.4,3.2,3,4.7,4.6c1.5,1.6,3,3.3,4.6,6.2c1.6,2.9,3.4,6.9,5.1,9.8c1.7,2.8,3.4,4.5,5.4,5.7
	c3-1.3,5.9-2.8,9.6-4.8c3.7-2,8.1-4.7,12.5-6.7c4.4-2,8.8-3.3,12.8-4.1c4-0.8,7.6-1.1,11.5-0.8c3.9,0.3,8,1.2,11.2,2.3
	c3.3,1.1,5.6,2.4,8,3.7c2.4,1.3,4.7,2.6,6.6,4c1.9,1.4,3.4,3,4.8,4.7c1.4,1.7,2.9,3.4,5.3,6.6c2.4,3.2,5.9,7.9,8.3,13
	c2.4,5.2,3.8,10.8,4.3,15.8c0.5,5,0,9.3-0.7,13c-0.7,3.7-1.7,6.7-3.1,9.8c-1.5,3.1-3.5,6.2-5.7,9c-2.2,2.7-4.7,5.1-7.7,7.1
	c-3,2-6.4,3.7-10.1,4.9c-3.7,1.2-7.6,1.9-11.2,2c-3.6,0.1-6.7-0.3-9.7-0.9c-3-0.5-5.9-1.2-7.9-1.8c-2-0.6-3.1-1.1-4.1-1.7
	c-1.1-0.6-2.1-1.3-3.7-2.4c-1.6-1.1-3.7-2.6-5.7-4.2c-2-1.5-4-3.1-5.7-5c-1.7-1.9-3.3-4.2-4.9-6.4c-1.6-2.3-3.3-4.6-5-7.5
	c-1.7-2.9-3.4-6.4-4.9-10.1c-1.5-3.7-2.8-7.6-3.8-9.8c-1-2.3-1.8-3-2.6-3.7c-0.8-0.7-1.7-1.4-2.7-1.4c-1-0.1-2,0.5-2.9,1.1
	c-0.8,0.7-1.5,1.5-2.7,3c-1.3,1.5-3.1,3.8-5.2,6.1c-2.1,2.3-4.5,4.7-7.2,6.7c-2.6,2-5.4,3.7-9.3,5.5c-3.8,1.8-8.7,3.8-14.2,4.7
	c-5.5,0.9-11.5,0.8-15.7,0.5c-4.2-0.3-6.6-0.9-8.9-1.5c-2.3-0.6-4.6-1.1-6.1-1.8c-1.5-0.7-2.4-1.5-3.8-2.8c-1.4-1.3-3.5-3.1-5.4-5
	c-1.9-1.9-3.7-4-5-6c-1.3-2-2.2-3.9-3.1-5.9c-0.9-2-1.8-3.9-2.8-6.9c-1-3-2.1-7.1-2.2-11.6c-0.2-4.5,0.5-9.4,1.9-13.9
	c1.4-4.4,3.5-8.3,6.7-12.2c3.2-3.9,7.5-7.9,12.1-11C147.2,144,152.2,141.8,157.5,140.2z M184.4,193.5c0.5,0.7,1.3,1.2,2.2,1.7
	c1,0.5,2.1,0.8,3.5,0.9c1.4,0.1,3.2-0.2,4.4-1.1c1.3-0.9,2.1-2.5,2.4-4c0.3-1.5,0.1-3-0.3-4.3c-0.4-1.3-0.9-2.4-1.9-3.3
	c-1-0.8-2.4-1.4-3.7-1.6c-1.3-0.2-2.5,0-3.5,0.5c-1,0.5-1.8,1.4-2.4,2.4c-0.6,1-1.1,2.1-1.4,3.3s-0.2,2.3-0.1,3.2
	C183.7,192.1,183.9,192.8,184.4,193.5z M232.7,203.6c0.4,0.9,1.2,1.7,2.1,2.3c0.9,0.7,2,1.3,3.2,1.4c1.2,0.1,2.4-0.3,3.6-0.8
	c1.2-0.5,2.3-1.2,3-2c0.8-0.8,1.2-1.6,1.6-2.4c0.4-0.8,0.9-1.5,0.9-2.5c0-1-0.5-2.1-1-3.3c-0.6-1.1-1.2-2.2-2-3.1
	c-0.8-0.9-1.7-1.6-2.7-2.2c-3.2,1.4-6.3,3.5-7.8,5.2c-1.5,1.7-1.6,2.9-1.5,4.1C232.1,201.5,232.2,202.6,232.7,203.6z M151.2,271.2
	c-2.9,3.5-4.5,6.9-5.5,10.3c-0.9,3.4-1.2,6.8-1.1,9.2c0.1,2.4,0.6,4,1,5.5c0.4,1.5,0.7,3.1,1.5,4.4c0.8,1.3,2,2.4,3.1,3.4
	c1.2,1.1,2.3,2.2,3.5,2.9c1.2,0.7,2.3,1.1,4.3,1c2,0,4.7-0.4,7.6-0.8c2.9-0.4,5.9-0.8,9.4-0.4c3.6,0.4,7.7,1.7,11.4,3.9
	c3.7,2.2,7.1,5.3,9.4,7.3c2.3,2,3.5,2.8,4.6,3.8c1.1,1,2,2.1,3.7,3.2c1.7,1,4,2,6.6,3c2.6,0.9,5.3,1.9,8.2,1.9
	c2.9,0,5.9-0.8,7.8-1.6c1.9-0.8,2.6-1.6,3.3-2.4c0.7-0.8,1.4-1.6,2-3.9c0.7-2.3,1.4-6.2,2.2-10.1c0.7-3.9,1.5-7.9,1.7-11.6
	c0.2-3.7-0.1-7.3-0.8-10c-0.6-2.7-1.6-4.5-2.5-6.2c-0.9-1.7-1.9-3.3-3.2-4.9c-1.3-1.6-2.9-3.2-4.6-4.7c-1.8-1.5-3.6-3-6-4.4
	c-2.3-1.4-5.1-2.8-10.2-4.6c-5-1.8-12.3-4.1-18.1-5.5c-5.7-1.3-9.9-1.7-14.3-1.4c-4.4,0.2-9,1.1-13.4,3.2
	C158.4,264.2,154.1,267.8,151.2,271.2z M182.6,281c-0.1-1.6-0.2-3.3,0.3-5.1c0.9-3.3,3.1-6.6,5.2-9.8c2.3,0.2,4.6,1,6,2
	c1.5,1,2.1,2.3,2.7,3.7c0.6,1.3,1,2.7,1,4.3c0,1.6-0.3,3.3-0.9,5c-0.5,1.6-1.3,3.2-1.9,4.3c-0.7,1.1-1.2,1.8-1.9,2.5
	c-0.7,0.7-1.5,1.3-2.6,1.2c-1.1,0-2.5-0.7-3.8-1.5c-1.3-0.7-2.5-1.5-3.2-2.6C182.9,284.1,182.7,282.6,182.6,281z M161.6,274.1
	c-0.4-1-0.7-2.1-0.1-3c0.6-0.8,2-1.4,3.4-1.9c2.9-1.1,5.7-1.8,8.7-1.9c1.6-0.1,3.1,0,4.1,0.6c1,0.6,1.3,1.7,1.6,2.9
	c0.3,1.2,0.5,2.4,0.2,3.9c-0.3,1.6-1.1,3.6-2.2,5.2c-1.1,1.6-2.6,2.8-3.8,3.3c-1.2,0.5-2.1,0.1-3.8-1c-1.7-1.2-4.2-3.1-5.7-4.6
	C162.5,276.1,162,275.2,161.6,274.1z M199,280.5c0.5-1.8,1.1-3.4,2-4.6c0.9-1.1,2.1-1.7,3.3-2.3c1.2-0.6,2.6-1.1,3.8-1.2
	c1.2-0.1,2.4,0.3,3.5,0.9c1.1,0.6,2.1,1.4,2.8,2.4c1.5,1.8,1.8,4.2,1.7,6.4c0,1,0.1,2-0.2,3.3c-0.2,1.3-0.8,2.8-1.4,4.3
	c-0.6,1.5-1.3,2.9-2.3,3.7c-1,0.7-2.2,0.8-3.5,0.8c-1.3,0-2.8,0.1-3.8-0.2c-1-0.3-1.7-0.8-2.3-1.3c-0.6-0.5-1.2-0.8-1.8-1.5
	c-0.6-0.6-1.2-1.4-1.8-2.3c-0.6-0.9-1.1-1.9-1.1-3.3C198,284.1,198.5,282.3,199,280.5z M218.9,291.3c0.1-1.6,0.4-3.5,0.8-5.3
	c0.4-1.8,0.9-3.5,1.7-4.4c0.9-0.9,2.2-1,3.5,0.1c1.4,1.1,2.8,3.4,3.6,6c0.9,2.5,1.2,5.3,0.7,7.3c-0.5,2-1.8,3.3-3.2,3.6
	c-1.4,0.3-2.8-0.3-3.9-1c-1.2-0.7-2.1-1.4-2.6-2.5C219,294.2,218.8,292.9,218.9,291.3z"/>
</svg>
