<?xml version="1.0" encoding="utf-8"?>
<!-- Generator: Adobe Illustrator 16.0.3, SVG Export Plug-In . SVG Version: 6.00 Build 0)  -->
<!DOCTYPE svg PUBLIC "-//W3C//DTD SVG 1.1//EN" "http://www.w3.org/Graphics/SVG/1.1/DTD/svg11.dtd">
<svg version="1.1" id="Layer_1" xmlns="http://www.w3.org/2000/svg" xmlns:xlink="http://www.w3.org/1999/xlink" x="0px" y="0px"
	 width="595px" height="595.3px" viewBox="123.6 0 595 595.3" enable-background="new 123.6 0 595 595.3" xml:space="preserve">
<g id="CutContour">
	<path fill="#FFFFFF" stroke="#FFFFFF" stroke-width="0.25" stroke-miterlimit="10" d="M718.4,297.6c0-1.7-0.7-3.2-1.8-4.3
		c-1.5-1.4-36.7-34.1-87.5-51.5c35.4-40.4,49.4-86.2,50.1-88.3c0.4-1.5,0.3-3.2-0.6-4.8c-0.8-1.4-2.2-2.4-3.8-2.8
		c-1-0.3-22.8-5.3-53.6-5.3c-16.7,0-32.7,1.5-47.9,4.5c10.4-52.6-0.3-99.4-0.8-101.5c-0.4-1.5-1.4-2.9-2.8-3.8c-1-0.6-2-0.8-2.9-0.8
		c-0.6,0-1.1,0.1-1.7,0.3c-2.1,0.6-47.9,14.7-88.3,50.1C459.6,38.6,427,3.5,425.4,2c-1.1-1.3-2.7-1.8-4.3-1.8
		c-1.7,0-3.2,0.7-4.3,1.8c-1.4,1.5-34.1,36.7-51.5,87.5C324.8,54,279.1,40,277,39.3c-0.6-0.1-1.1-0.3-1.7-0.3c-1,0-2.1,0.3-2.9,0.8
		c-1.4,0.8-2.4,2.2-2.8,3.8c-0.4,2.1-11.2,48.8-0.8,101.5c-15.1-2.9-31.2-4.5-47.9-4.5c-30.8,0-52.6,5-53.6,5.3
		c-1.5,0.4-2.9,1.4-3.8,2.8c-0.8,1.4-1,3.1-0.6,4.8c0.6,2.1,14.7,47.9,50.1,88.3c-50.8,17.4-85.9,50-87.5,51.5
		c-1.3,1.1-1.8,2.7-1.8,4.3c0,1.7,0.7,3.2,1.8,4.3c1.5,1.4,36.7,34.1,87.5,51.5c-35.4,40.4-49.4,86.2-50.1,88.3
		c-0.4,1.5-0.3,3.2,0.6,4.8c0.8,1.4,2.2,2.4,3.8,2.8c1,0.3,22.8,5.3,53.6,5.3c16.7,0,32.7-1.5,47.9-4.5
		c-10.4,52.6,0.3,99.4,0.8,101.5c0.4,1.5,1.4,2.9,2.8,3.8c1,0.6,2,0.8,2.9,0.8c0.6,0,1.1-0.1,1.7-0.3c2.1-0.6,47.9-14.7,88.3-50.1
		c17.4,50.8,50,85.9,51.5,87.5c1.1,1.3,2.7,1.8,4.3,1.8c1.7,0,3.2-0.7,4.3-1.8c1.4-1.5,34.1-36.7,51.5-87.5
		c40.4,35.4,86.2,49.4,88.3,50.1c0.6,0.1,1.1,0.3,1.7,0.3c1,0,2.1-0.3,2.9-0.8c1.4-0.8,2.4-2.2,2.8-3.8c0.4-2.1,11.2-48.8,0.8-101.5
		c15.1,2.9,31.2,4.5,47.9,4.5l0,0c30.8,0,52.6-5,53.6-5.3c1.5-0.4,2.9-1.4,3.8-2.8c0.8-1.4,1-3.1,0.6-4.8
		c-0.6-2.1-14.7-47.9-50.1-88.3c50.8-17.4,85.9-50,87.5-51.5C717.7,300.9,718.4,299.3,718.4,297.6z"/>
</g>
<g id="bloemen-040-FC">
	<g>
		<g>
			<path fill="#AD1123" d="M420.9,292.3c0,0-60.2-64.1-60.2-143c0-79.1,60.2-143,60.2-143s60.2,64.1,60.2,143
				C481.3,228.2,420.9,292.3,420.9,292.3z"/>
			<path fill="#9B2422" d="M457.6,214c0,0,5.6-43-4.2-95.2c-4.9-26.2-11.3-49.7-18.6-66.5c-7.3-17.1-9.7-30.9-9.7-30.9
				s8.1,13.3,18.6,30.2c10.4,16.7,17.4,40.4,22.2,66.6C475.9,170.4,457.6,214,457.6,214z"/>
			<path fill="#975228" d="M388.2,234.7c0,0-19.7-36.4-19.9-81.2c-0.1-44.9,18.5-81.2,18.5-81.2s-6.9,36.4-6.7,81.2
				C380.1,198.4,388.2,234.7,388.2,234.7z"/>
			<path fill="#CB5A27" d="M423.7,262.8c0,0,9.1-12.5,13.3-32.7c4.2-20,5.6-47.7,4.6-78.2c-2.2-60.9-14.4-110-14.4-110
				s20.7,48.8,22.9,109.7c1.1,30.5-2.5,58.4-8.8,78.4C434.9,250.3,423.7,262.8,423.7,262.8z"/>
			<path fill="#C45143" d="M417.7,285.9c0,0-9.1-60.3-9.1-134.8c0-74.4,9.1-134.8,9.1-134.8s9.1,60.3,9.1,134.8
				C426.8,225.6,417.7,285.9,417.7,285.9z"/>
			<path fill="#A23E31" d="M404.9,271.6c0,0-16.9-53-16.9-118.7c0.1-65.5,17.6-118.7,17.6-118.7s-1.5,53-1.7,118.7
				C403.9,218.4,404.9,271.6,404.9,271.6z"/>
			<path fill="#7F1C28" d="M411.3,263.2c0,0-13.6-12.7-21.7-34c-7.8-20.4-12.6-49.1-11.3-80.3c2.5-62,27-111.5,27-111.5
				S394.5,87.6,392,149.6c-1.3,31.2,0.1,59.6,4.5,79.9C401.1,250.5,411.3,263.2,411.3,263.2z"/>
		</g>
	</g>
	<g>
		<g>
			<path fill="#AD1123" d="M420.9,303.1c0,0-60.2,64.1-60.2,143c0,79.1,60.2,143,60.2,143s60.2-64.1,60.2-143
				C481.3,367.2,420.9,303.1,420.9,303.1z"/>
			<path fill="#9B2422" d="M457.6,381.3c0,0,5.6,43-4.2,95.2c-4.9,26.2-11.3,49.7-18.6,66.5c-7.3,17.1-9.7,30.9-9.7,30.9
				s8.1-13.3,18.6-30.2c10.4-16.7,17.4-40.4,22.2-66.6C475.9,425,457.6,381.3,457.6,381.3z"/>
			<path fill="#975228" d="M388.2,360.6c0,0-19.7,36.4-19.9,81.2c-0.1,44.9,18.5,81.2,18.5,81.2s-6.9-36.4-6.7-81.2
				C380.1,397,388.2,360.6,388.2,360.6z"/>
			<path fill="#CB5A27" d="M423.7,332.6c0,0,9.1,12.5,13.3,32.7c4.2,20,5.6,47.7,4.6,78.2c-2.2,60.9-14.4,110-14.4,110
				s20.7-48.8,22.9-109.7c1.1-30.5-2.5-58.4-8.8-78.4C434.9,345.1,423.7,332.6,423.7,332.6z"/>
			<path fill="#C45143" d="M417.7,309.4c0,0-9.1,60.3-9.1,134.8s9.1,134.8,9.1,134.8s9.1-60.3,9.1-134.8S417.7,309.4,417.7,309.4z"
				/>
			<path fill="#A23E31" d="M404.9,323.8c0,0-16.9,53-16.9,118.7c0.1,65.5,17.6,118.7,17.6,118.7s-1.5-53-1.7-118.7
				C403.9,376.8,404.9,323.8,404.9,323.8z"/>
			<path fill="#7F1C28" d="M411.3,332.1c0,0-13.6,12.7-21.7,34c-7.8,20.4-12.6,49.1-11.3,80.3c2.5,62,27,111.5,27,111.5
				s-10.8-50.2-13.3-112.2c-1.3-31.2,0.1-59.6,4.5-80C401.1,344.8,411.3,332.1,411.3,332.1z"/>
		</g>
	</g>
	<g>
		<g>
			<path fill="#AD1123" d="M418.3,293c0,0-84.2-25.3-123.7-93.8c-39.5-68.4-19.3-154.1-19.3-154.1S359.5,70.5,399,139
				C438.4,207.4,418.3,293,418.3,293z"/>
			<path fill="#9B2422" d="M410.9,207c0,0-16.5-40-51.2-80.3c-17.4-20.2-34.7-37.4-49.4-48.3c-14.8-11.2-23.8-22-23.8-22
				s13.7,7.4,31.2,16.8c17.2,9.2,35.3,26.3,52.6,46.5C405,159.9,410.9,207,410.9,207z"/>
			<path fill="#975228" d="M361.1,259.6c0,0-35.3-21.5-57.8-60.3c-22.5-38.9-24.6-79.6-24.6-79.6s12.2,34.8,34.7,73.6
				C335.9,232.2,361.1,259.6,361.1,259.6z"/>
			<path fill="#CB5A27" d="M406,266c0,0,1.7-15.4-4.9-35c-6.4-19.5-19-44.2-35.1-70.1c-32.3-51.6-67.4-88-67.4-88
				s42.3,31.9,74.7,83.5c16.2,25.9,26.9,51.8,31.6,72.3C409.5,249.6,406,266,406,266z"/>
			<path fill="#C45143" d="M412.4,289.1c0,0-38.1-47.7-75.1-112.1C300,112.5,277.8,55.8,277.8,55.8s37.8,47.6,75,112.1
				C390,232.3,412.4,289.1,412.4,289.1z"/>
			<path fill="#A23E31" d="M393.9,283.1c0,0-41.3-37.5-73.9-94.3C287.3,132,276,77.2,276,77.2s25.2,46.7,57.9,103.6
				C366.5,237.6,393.9,283.1,393.9,283.1z"/>
			<path fill="#7F1C28" d="M395.3,272.7c0,0-18.1-4.2-35.8-18.6c-16.9-13.9-35.5-36.2-50-63.8c-29-55-32.3-110.1-32.3-110.1
				S292.9,129,321.9,184c14.6,27.6,29.8,51.5,43.9,67C380.1,266.9,395.3,272.7,395.3,272.7z"/>
		</g>
	</g>
	<g>
		<g>
			<path fill="#AD1123" d="M423.7,302.4c0,0-20.2,85.6,19.3,154.1c39.5,68.4,123.7,93.8,123.7,93.8s20.2-85.6-19.3-154.1
				C507.8,327.7,423.7,302.4,423.7,302.4z"/>
			<path fill="#9B2422" d="M494.6,351.8c0,0,26.3,34.4,44.1,84.5c8.8,25,15,48.7,17.2,66.9c2.2,18.5,7.1,31.5,7.1,31.5
				s0.4-15.5,1-35.5c0.7-19.6-5.2-43.7-14-68.7C532.2,380.3,494.6,351.8,494.6,351.8z"/>
			<path fill="#975228" d="M424,368.6c0,0,1,41.3,23.4,80.3c22.4,38.9,56.5,61,56.5,61s-24.1-28-46.5-66.9
				C435.2,404.1,424,368.6,424,368.6z"/>
			<path fill="#CB5A27" d="M440.8,326.5c0,0,14.1,6.3,27.8,21.7c13.6,15.3,28.7,38.5,43.1,65.5c28.5,53.9,42.5,102.4,42.5,102.4
				s-6.4-52.6-35-106.5c-14.3-27-31.3-49.3-46.9-63.5C456.8,331.6,440.8,326.5,440.8,326.5z"/>
			<path fill="#C45143" d="M424,309.4c0,0,22.4,56.8,59.5,121.2c37.2,64.4,75.1,112.1,75.1,112.1s-22.2-56.8-59.5-121.2
				C462.1,357.1,424,309.4,424,309.4z"/>
			<path fill="#A23E31" d="M420.1,328.4c0,0,11.9,54.4,44.6,111.1c32.9,56.7,74.6,93.9,74.6,93.9s-28-45.2-60.7-101.9
				C445.7,374.9,420.1,328.4,420.1,328.4z"/>
			<path fill="#7F1C28" d="M429.8,332.3c0,0-5.3,17.8-1.8,40.3c3.5,21.7,13.6,48.8,30.2,75.3c33.2,52.5,79.2,83.1,79.2,83.1
				s-34.4-38.1-67.6-90.5c-16.7-26.4-29.7-51.6-36.1-71.5C427.2,348.4,429.8,332.3,429.8,332.3z"/>
		</g>
	</g>
	<g>
		<g>
			<path fill="#AD1123" d="M416.3,295c0,0-85.6,20.2-154.1-19.3C193.8,236.2,168.5,152,168.5,152s85.6-20.2,154.1,19.3
				C391,210.7,416.3,295,416.3,295z"/>
			<path fill="#9B2422" d="M366.8,224.2c0,0-34.4-26.3-84.5-44.1c-25-8.8-48.7-15-66.9-17.2c-18.5-2.2-31.5-7.1-31.5-7.1
				s15.5-0.4,35.5-1.1c19.6-0.7,43.7,5.2,68.7,14C338.2,186.4,366.8,224.2,366.8,224.2z"/>
			<path fill="#975228" d="M350,294.6c0,0-41.3-1-80.3-23.4c-38.9-22.4-61-56.5-61-56.5s28,24.1,66.9,46.5
				C314.6,283.5,350,294.6,350,294.6z"/>
			<path fill="#CB5A27" d="M392.1,277.8c0,0-6.3-14.1-21.7-27.8c-15.3-13.6-38.5-28.7-65.5-43.1c-53.9-28.5-102.4-42.5-102.4-42.5
				s52.6,6.6,106.5,35c27,14.3,49.3,31.3,63.5,46.9C386.9,261.8,392.1,277.8,392.1,277.8z"/>
			<path fill="#C45143" d="M409.2,294.6c0,0-56.8-22.2-121.2-59.5c-64.4-37.2-112.1-75.1-112.1-75.1s56.8,22.2,121.2,59.5
				C361.5,256.5,409.2,294.6,409.2,294.6z"/>
			<path fill="#A23E31" d="M390.3,298.6c0,0-54.4-11.9-111.1-44.6c-56.7-32.9-93.9-74.6-93.9-74.6s45.2,28,101.9,60.7
				C343.8,272.9,390.3,298.6,390.3,298.6z"/>
			<path fill="#7F1C28" d="M386.2,288.8c0,0-17.8,5.3-40.3,1.8c-21.7-3.5-48.8-13.6-75.3-30.2c-52.3-33.2-83-79.2-83-79.2
				s38.1,34.4,90.5,67.6c26.4,16.7,51.6,29.7,71.5,36.1C370.1,291.3,386.2,288.8,386.2,288.8z"/>
		</g>
	</g>
	<g>
		<g>
			<path fill="#AD1123" d="M425.7,300.3c0,0,25.3,84.2,93.8,123.7c68.4,39.5,154.1,19.3,154.1,19.3s-25.3-84.2-93.8-123.7
				C511.2,280.3,425.7,300.3,425.7,300.3z"/>
			<path fill="#9B2422" d="M511.8,307.9c0,0,40,16.5,80.3,51.2c20.2,17.4,37.4,34.7,48.3,49.4c11.1,14.8,22,23.8,22,23.8
				s-7.4-13.6-16.8-31.3c-9.2-17.2-26.3-35.3-46.5-52.6C558.6,313.7,511.8,307.9,511.8,307.9z"/>
			<path fill="#975228" d="M459.1,357.5c0,0,21.5,35.3,60.3,57.8s79.5,24.6,79.5,24.6s-34.8-12.2-73.6-34.7S459.1,357.5,459.1,357.5
				z"/>
			<path fill="#CB5A27" d="M452.6,312.6c0,0,15.4-1.7,35,4.9c19.5,6.4,44.2,19,70.1,35.1c51.6,32.3,88,67.4,88,67.4
				s-31.9-42.3-83.5-74.7c-25.9-16.2-51.8-26.9-72.3-31.6C468.9,309.3,452.6,312.6,452.6,312.6z"/>
			<path fill="#C45143" d="M429.5,306.3c0,0,47.7,38.1,112.1,75.1c64.4,37.2,121.2,59.5,121.2,59.5s-47.7-38.1-112.1-75.1
				C486.3,328.6,429.5,306.3,429.5,306.3z"/>
			<path fill="#A23E31" d="M435.5,324.8c0,0,37.5,41.3,94.3,73.9c56.8,32.7,111.5,44.1,111.5,44.1s-46.7-25.2-103.6-57.9
				C481,352.1,435.5,324.8,435.5,324.8z"/>
			<path fill="#7F1C28" d="M446,323.2c0,0,4.2,18.1,18.6,35.8c13.9,16.9,36.2,35.5,63.8,50c55,28.8,110.1,32.3,110.1,32.3
				s-48.8-15.8-103.8-44.6c-27.6-14.6-51.5-29.8-67-43.9C451.9,338.5,446,323.2,446,323.2z"/>
		</g>
	</g>
	<g>
		<g>
			<path fill="#AD1123" d="M415.6,297.6c0,0-64.1,60.2-143,60.2c-79.1,0-143-60.2-143-60.2s64.1-60.2,143-60.2
				S415.6,297.6,415.6,297.6z"/>
			<path fill="#9B2422" d="M337.3,261.1c0,0-43-5.6-95.2,4.1c-26.2,4.9-49.7,11.3-66.5,18.6c-17.1,7.3-30.9,9.7-30.9,9.7
				s13.3-8.1,30.2-18.6c16.7-10.4,40.4-17.4,66.6-22.3C293.7,242.6,337.3,261.1,337.3,261.1z"/>
			<path fill="#975228" d="M358,330.5c0,0-36.2,19.7-81.2,20c-44.9,0.1-81.2-18.5-81.2-18.5s36.4,6.9,81.2,6.7
				C321.7,338.5,358,330.5,358,330.5z"/>
			<path fill="#CB5A27" d="M386.1,294.8c0,0-12.5-9.1-32.7-13.3c-20-4.2-47.7-5.6-78.2-4.6c-60.9,2.2-110,14.4-110,14.4
				s48.8-20.7,109.7-22.9c30.5-1.1,58.4,2.5,78.4,8.8C373.6,283.6,386.1,294.8,386.1,294.8z"/>
			<path fill="#C45143" d="M409.2,300.9c0,0-60.3,9.1-134.8,9.1s-134.8-9.1-134.8-9.1s60.3-9.1,134.8-9.1
				C348.9,291.8,409.2,300.9,409.2,300.9z"/>
			<path fill="#A23E31" d="M394.9,313.9c0,0-53,16.9-118.7,16.9c-65.5-0.1-118.7-17.6-118.7-17.6s53,1.5,118.7,1.7
				C341.7,314.9,394.9,313.9,394.9,313.9z"/>
			<path fill="#7F1C28" d="M386.5,307.4c0,0-12.7,13.6-34,21.7c-20.4,7.8-49.1,12.6-80.3,11.5c-62-2.5-111.5-27.1-111.5-27.1
				s50.1,10.8,112.2,13.3c31.2,1.3,59.6-0.1,80-4.5C373.9,317.6,386.5,307.4,386.5,307.4z"/>
		</g>
	</g>
	<g>
		<g>
			<path fill="#AD1123" d="M426.4,297.6c0,0,64.1,60.2,143,60.2c79.1,0,143-60.2,143-60.2s-64.1-60.2-143-60.2
				C490.5,237.5,426.4,297.6,426.4,297.6z"/>
			<path fill="#9B2422" d="M504.6,261.1c0,0,43-5.6,95.2,4.2c26.2,4.9,49.7,11.3,66.6,18.6c17.1,7.3,30.9,9.7,30.9,9.7
				s-13.3-8.1-30.2-18.6c-16.7-10.4-40.4-17.4-66.6-22.2C548.3,242.6,504.6,261.1,504.6,261.1z"/>
			<path fill="#975228" d="M483.9,330.5c0,0,36.2,19.7,81.2,20c44.9,0.1,81.2-18.5,81.2-18.5s-36.4,6.9-81.2,6.7
				C520.3,338.5,483.9,330.5,483.9,330.5z"/>
			<path fill="#CB5A27" d="M455.9,294.8c0,0,12.5-9.1,32.7-13.3c20-4.2,47.7-5.6,78.2-4.6c60.9,2.2,110,14.4,110,14.4
				s-48.8-20.7-109.7-22.9c-30.5-1.1-58.4,2.5-78.4,8.8C468.4,283.6,455.9,294.8,455.9,294.8z"/>
			<path fill="#C45143" d="M432.7,300.9c0,0,60.3,9.1,134.8,9.1c74.4,0,134.8-9.1,134.8-9.1s-60.3-9.1-134.8-9.1
				C493,291.8,432.7,300.9,432.7,300.9z"/>
			<path fill="#A23E31" d="M447.1,313.9c0,0,53,16.9,118.7,16.9c65.5-0.1,118.7-17.6,118.7-17.6s-53,1.5-118.7,1.7
				C500.1,314.9,447.1,313.9,447.1,313.9z"/>
			<path fill="#7F1C28" d="M455.4,307.4c0,0,12.7,13.6,34,21.7c20.4,7.8,49.1,12.6,80.3,11.3c62-2.5,111.5-27,111.5-27
				S631,324.2,569,326.7c-31.2,1.3-59.6-0.1-79.9-4.5C468.1,317.6,455.4,307.4,455.4,307.4z"/>
		</g>
	</g>
	<g>
		<g>
			<path fill="#AD1123" d="M416.3,300.3c0,0-25.3,84.2-93.8,123.7c-68.4,39.5-154.1,19.3-154.1,19.3s25.3-84.2,93.8-123.7
				C330.7,280.3,416.3,300.3,416.3,300.3z"/>
			<path fill="#9B2422" d="M330.3,307.9c0,0-40,16.5-80.3,51.2c-20.2,17.4-37.4,34.7-48.3,49.4c-11.2,14.8-22,23.8-22,23.8
				s7.4-13.7,16.8-31.2c9.2-17.2,26.3-35.3,46.5-52.6C283.2,313.7,330.3,307.9,330.3,307.9z"/>
			<path fill="#975228" d="M382.9,357.5c0,0-21.5,35.3-60.3,57.8c-38.8,22.5-79.5,24.6-79.5,24.6s34.8-12.2,73.7-34.7
				C355.5,382.7,382.9,357.5,382.9,357.5z"/>
			<path fill="#CB5A27" d="M389.3,312.6c0,0-15.4-1.7-35,4.9c-19.5,6.4-44.2,19-70.1,35.3c-51.6,32.3-88,67.4-88,67.4
				s31.9-42.3,83.5-74.7c25.9-16.2,51.8-26.9,72.3-31.6C372.9,309.3,389.3,312.6,389.3,312.6z"/>
			<path fill="#C45143" d="M412.4,306.3c0,0-47.7,38.1-112.1,75.1c-64.4,37.2-121.2,59.5-121.2,59.5s47.6-37.9,112.1-75.1
				C355.6,328.6,412.4,306.3,412.4,306.3z"/>
			<path fill="#A23E31" d="M406.4,324.8c0,0-37.5,41.3-94.3,73.9c-56.8,32.7-111.5,44.1-111.5,44.1s46.7-25.2,103.6-57.9
				C360.9,352.1,406.4,324.8,406.4,324.8z"/>
			<path fill="#7F1C28" d="M396,323.2c0,0-4.2,18.1-18.6,35.8c-13.9,16.9-36.2,35.5-63.8,50c-55,28.8-110.1,32.3-110.1,32.3
				s48.8-15.7,103.8-44.6c27.6-14.6,51.5-29.8,67-43.9C390.2,338.5,396,323.2,396,323.2z"/>
		</g>
	</g>
	<g>
		<g>
			<path fill="#AD1123" d="M425.7,295c0,0,85.6,20.2,154.1-19.3c68.4-39.5,93.8-123.7,93.8-123.7s-85.6-20.2-154.1,19.3
				C451,210.7,425.7,295,425.7,295z"/>
			<path fill="#9B2422" d="M475.2,224.2c0,0,34.3-26.4,84.5-44.1c25-8.8,48.7-15,66.9-17.2c18.5-2.2,31.5-7.1,31.5-7.1
				s-15.5-0.4-35.5-1.1c-19.6-0.7-43.7,5.2-68.7,14C503.6,186.4,475.2,224.2,475.2,224.2z"/>
			<path fill="#975228" d="M491.9,294.6c0,0,41.3-1,80.3-23.4c38.9-22.4,61-56.5,61-56.5s-28,24.1-66.9,46.5
				C527.4,283.4,491.9,294.6,491.9,294.6z"/>
			<path fill="#CB5A27" d="M449.8,277.8c0,0,6.3-14.1,21.7-27.8c15.3-13.6,38.5-28.7,65.5-43.1c53.9-28.5,102.4-42.5,102.4-42.5
				s-52.6,6.6-106.5,35c-27,14.3-49.3,31.3-63.5,46.9C454.9,261.8,449.8,277.8,449.8,277.8z"/>
			<path fill="#C45143" d="M432.7,294.6c0,0,56.8-22.4,121.2-59.5c64.5-37.2,112.1-75.1,112.1-75.1s-56.8,22.2-121.2,59.5
				C480.4,256.5,432.7,294.6,432.7,294.6z"/>
			<path fill="#A23E31" d="M451.7,298.6c0,0,54.4-11.9,111.1-44.6c56.7-32.9,93.9-74.6,93.9-74.6s-45.2,27.8-101.9,60.7
				C498.2,272.9,451.7,298.6,451.7,298.6z"/>
			<path fill="#7F1C28" d="M455.6,288.8c0,0,17.8,5.3,40.3,1.8c21.7-3.5,48.8-13.6,75.3-30.2c52.5-33.2,83.1-79.2,83.1-79.2
				s-38.1,34.4-90.5,67.6c-26.4,16.7-51.6,29.7-71.5,36.1C471.7,291.3,455.6,288.8,455.6,288.8z"/>
		</g>
	</g>
	<g>
		<g>
			<path fill="#AD1123" d="M418.3,302.4c0,0,20.2,85.6-19.3,154.1c-39.5,68.4-123.7,93.8-123.7,93.8s-20.2-85.6,19.3-154.1
				C334,327.7,418.3,302.4,418.3,302.4z"/>
			<path fill="#9B2422" d="M347.5,351.8c0,0-26.3,34.3-44.1,84.5c-8.8,25-15,48.7-17.2,66.9c-2.2,18.5-7.1,31.5-7.1,31.5
				s-0.4-15.5-1-35.5c-0.7-19.6,5.2-43.7,14-68.7C309.7,380.3,347.5,351.8,347.5,351.8z"/>
			<path fill="#975228" d="M417.9,368.6c0,0-1,41.3-23.4,80.3c-22.4,38.9-56.5,61-56.5,61s24.1-28,46.5-66.9
				C406.8,404.1,417.9,368.6,417.9,368.6z"/>
			<path fill="#CB5A27" d="M401.1,326.5c0,0-14.1,6.3-27.8,21.7c-13.6,15.3-28.7,38.5-43.1,65.5c-28.5,53.9-42.5,102.4-42.5,102.4
				s6.6-52.6,35-106.5c14.3-27,31.3-49.3,46.9-63.5C385.1,331.6,401.1,326.5,401.1,326.5z"/>
			<path fill="#C45143" d="M417.9,309.4c0,0-22.4,56.8-59.5,121.2c-37.1,64.4-75.1,112.1-75.1,112.1s22.3-56.8,59.5-121.2
				C379.8,357.1,417.9,309.4,417.9,309.4z"/>
			<path fill="#A23E31" d="M421.9,328.4c0,0-11.9,54.4-44.6,111.1c-32.9,56.7-74.6,93.9-74.6,93.9s28-45.2,60.7-101.9
				C396.2,374.9,421.9,328.4,421.9,328.4z"/>
			<path fill="#7F1C28" d="M412.3,332.3c0,0,5.3,17.8,1.8,40.3c-3.5,21.7-13.6,48.8-30.2,75.3c-33.2,52.5-79.2,83.1-79.2,83.1
				s34.4-38.1,67.6-90.5c16.7-26.4,29.7-51.6,36.1-71.5C414.6,348.4,412.3,332.3,412.3,332.3z"/>
		</g>
	</g>
	<g>
		<g>
			<path fill="#AD1123" d="M423.7,293c0,0,84.2-25.3,123.7-93.8c39.5-68.4,19.3-154.1,19.3-154.1S482.5,70.5,443.1,139
				C403.6,207.4,423.7,293,423.7,293z"/>
			<path fill="#9B2422" d="M431.2,206.8c0,0,16.5-40,51.2-80.3c17.4-20.2,34.7-37.4,49.4-48.3c14.8-11.2,23.8-22,23.8-22
				S542,63.7,524.2,73c-17.2,9.2-35.3,26.3-52.6,46.5C437,159.9,431.2,206.8,431.2,206.8z"/>
			<path fill="#975228" d="M480.8,259.6c0,0,35.3-21.5,57.8-60.3c22.5-38.8,24.6-79.5,24.6-79.5s-12.2,34.8-34.7,73.7
				C506,232.2,480.8,259.6,480.8,259.6z"/>
			<path fill="#CB5A27" d="M436.1,266c0,0-1.7-15.4,4.9-35c6.4-19.5,19-44.2,35.1-70.1c32.3-51.6,67.4-88,67.4-88
				s-42.3,31.9-74.7,83.5c-16.2,25.9-27,51.8-31.6,72.3C432.6,249.6,436.1,266,436.1,266z"/>
			<path fill="#C45143" d="M429.6,289.1c0,0,38.1-47.7,75.1-112.1c37.2-64.5,59.5-121.2,59.5-121.2s-37.9,47.6-75.1,112.1
				C451.9,232.3,429.6,289.1,429.6,289.1z"/>
			<path fill="#A23E31" d="M448.1,283.1c0,0,41.3-37.5,73.9-94.3c32.7-56.8,44.1-111.5,44.1-111.5s-25.2,46.7-57.9,103.6
				C475.4,237.6,448.1,283.1,448.1,283.1z"/>
			<path fill="#7F1C28" d="M446.6,272.7c0,0,18.1-4.2,35.8-18.6c16.9-13.9,35.5-36.2,50-63.8c28.8-55,32.3-110.1,32.3-110.1
				S548.8,129,520,184c-14.6,27.6-29.8,51.5-43.9,67C461.8,266.9,446.6,272.7,446.6,272.7z"/>
		</g>
	</g>
	<g>
		<polygon fill="#F3E600" points="426.8,242.6 479.4,161.3 451.3,249.9 495.1,228.7 468,269.1 582.4,264.5 471.6,294.3 509.1,325.5 
			461,317.5 486.7,380.2 439.6,331.2 425.1,387.5 414.1,331.2 354.6,398.3 392.7,317.5 287.7,354.9 382,294.3 289.5,269.8 
			385.7,269.1 313.1,179.4 402.5,249.9 401.4,201.1 		"/>
		<polygon fill="#E4B914" points="451.7,291.5 485.5,328.3 444.9,302.7 449.8,327.3 433.1,308.6 420.5,366.3 420.1,307 399.7,321.7 
			409.9,298.8 375.2,303.4 405.8,286.3 379.7,271.8 409.1,273.6 383.4,235.1 418.7,264.6 413.8,207.4 431.7,262.4 455.9,219.3 
			443.9,267.4 498,242.8 451.3,278.3 475.8,284.1 		"/>
	</g>
</g>
</svg>
