<?xml version="1.0" encoding="UTF-8" standalone="no"?>
<!-- Created with Inkscape (http://www.inkscape.org/) -->

<svg
   version="1.1"
   id="svg1"
   width="181.30841"
   height="378.50467"
   viewBox="0 0 181.30841 378.50467"
   sodipodi:docname="1a2.svg"
   inkscape:version="1.4 (e7c3feb100, 2024-10-09)"
   xmlns:inkscape="http://www.inkscape.org/namespaces/inkscape"
   xmlns:sodipodi="http://sodipodi.sourceforge.net/DTD/sodipodi-0.dtd"
   xmlns="http://www.w3.org/2000/svg"
   xmlns:svg="http://www.w3.org/2000/svg">
  <defs
     id="defs1">
    <inkscape:path-effect
       effect="bspline"
       id="path-effect17"
       is_visible="true"
       lpeversion="1.3"
       weight="33.333333"
       steps="2"
       helper_size="0"
       apply_no_weight="true"
       apply_with_weight="true"
       only_selected="false"
       uniform="false" />
    <inkscape:path-effect
       effect="bspline"
       id="path-effect16"
       is_visible="true"
       lpeversion="1.3"
       weight="33.333333"
       steps="2"
       helper_size="0"
       apply_no_weight="true"
       apply_with_weight="true"
       only_selected="false"
       uniform="false" />
    <inkscape:path-effect
       effect="bspline"
       id="path-effect15"
       is_visible="true"
       lpeversion="1.3"
       weight="33.333333"
       steps="2"
       helper_size="0"
       apply_no_weight="true"
       apply_with_weight="true"
       only_selected="false"
       uniform="false" />
    <inkscape:path-effect
       effect="bspline"
       id="path-effect14"
       is_visible="true"
       lpeversion="1.3"
       weight="33.333333"
       steps="2"
       helper_size="0"
       apply_no_weight="true"
       apply_with_weight="true"
       only_selected="false"
       uniform="false" />
    <inkscape:path-effect
       effect="bspline"
       id="path-effect13"
       is_visible="true"
       lpeversion="1.3"
       weight="33.333333"
       steps="2"
       helper_size="0"
       apply_no_weight="true"
       apply_with_weight="true"
       only_selected="false"
       uniform="false" />
    <inkscape:path-effect
       effect="bspline"
       id="path-effect12"
       is_visible="true"
       lpeversion="1.3"
       weight="33.333333"
       steps="2"
       helper_size="0"
       apply_no_weight="true"
       apply_with_weight="true"
       only_selected="false"
       uniform="false" />
    <inkscape:path-effect
       effect="bspline"
       id="path-effect11"
       is_visible="true"
       lpeversion="1.3"
       weight="33.333333"
       steps="2"
       helper_size="0"
       apply_no_weight="true"
       apply_with_weight="true"
       only_selected="false"
       uniform="false" />
    <inkscape:path-effect
       effect="bspline"
       id="path-effect10"
       is_visible="true"
       lpeversion="1.3"
       weight="33.333333"
       steps="2"
       helper_size="0"
       apply_no_weight="true"
       apply_with_weight="true"
       only_selected="false"
       uniform="false" />
    <inkscape:path-effect
       effect="bspline"
       id="path-effect9"
       is_visible="true"
       lpeversion="1.3"
       weight="33.333333"
       steps="2"
       helper_size="0"
       apply_no_weight="true"
       apply_with_weight="true"
       only_selected="false"
       uniform="false" />
    <inkscape:path-effect
       effect="bspline"
       id="path-effect8"
       is_visible="true"
       lpeversion="1.3"
       weight="33.333333"
       steps="2"
       helper_size="0"
       apply_no_weight="true"
       apply_with_weight="true"
       only_selected="false"
       uniform="false" />
    <inkscape:path-effect
       effect="bspline"
       id="path-effect7"
       is_visible="true"
       lpeversion="1.3"
       weight="33.333333"
       steps="2"
       helper_size="0"
       apply_no_weight="true"
       apply_with_weight="true"
       only_selected="false"
       uniform="false" />
    <inkscape:path-effect
       effect="bspline"
       id="path-effect6"
       is_visible="true"
       lpeversion="1.3"
       weight="33.333333"
       steps="2"
       helper_size="0"
       apply_no_weight="true"
       apply_with_weight="true"
       only_selected="false"
       uniform="false" />
    <inkscape:path-effect
       effect="bspline"
       id="path-effect5"
       is_visible="true"
       lpeversion="1.3"
       weight="33.333333"
       steps="2"
       helper_size="0"
       apply_no_weight="true"
       apply_with_weight="true"
       only_selected="false"
       uniform="false" />
    <inkscape:path-effect
       effect="bspline"
       id="path-effect4"
       is_visible="true"
       lpeversion="1.3"
       weight="33.333333"
       steps="2"
       helper_size="0"
       apply_no_weight="true"
       apply_with_weight="true"
       only_selected="false"
       uniform="false" />
    <inkscape:path-effect
       effect="bspline"
       id="path-effect3"
       is_visible="true"
       lpeversion="1.3"
       weight="33.333333"
       steps="2"
       helper_size="0"
       apply_no_weight="true"
       apply_with_weight="true"
       only_selected="false"
       uniform="false" />
    <inkscape:path-effect
       effect="bspline"
       id="path-effect2"
       is_visible="true"
       lpeversion="1.3"
       weight="33.333333"
       steps="2"
       helper_size="0"
       apply_no_weight="true"
       apply_with_weight="true"
       only_selected="false"
       uniform="false" />
    <inkscape:path-effect
       effect="bspline"
       id="path-effect1"
       is_visible="true"
       lpeversion="1.3"
       weight="33.333333"
       steps="2"
       helper_size="0"
       apply_no_weight="true"
       apply_with_weight="true"
       only_selected="false"
       uniform="false" />
  </defs>
  <sodipodi:namedview
     id="namedview1"
     pagecolor="#ffffff"
     bordercolor="#000000"
     borderopacity="0.25"
     inkscape:showpageshadow="2"
     inkscape:pageopacity="0.0"
     inkscape:pagecheckerboard="0"
     inkscape:deskcolor="#d1d1d1"
     showgrid="false"
     inkscape:zoom="1.07"
     inkscape:cx="130.37383"
     inkscape:cy="191.58879"
     inkscape:window-width="1920"
     inkscape:window-height="1011"
     inkscape:window-x="0"
     inkscape:window-y="0"
     inkscape:window-maximized="1"
     inkscape:current-layer="layer1" />
  <g
     inkscape:groupmode="layer"
     id="layer1"
     inkscape:label="Layer 1"
     transform="translate(-334.46274,-275.18054)">
    <path
       id="path3"
       style="fill:#ff6600;stroke-width:0.755906;stroke-linecap:round;stroke-linejoin:round;paint-order:markers fill stroke"
       d="m 432.94768,319.67438 -8.93359,2.17969 -12.30859,8.06055 -2.28711,6.9707 2.61328,3.70508 6.53516,3.92187 6.97265,4.35742 c 0,0 9.36763,6.4256 9.47656,6.86133 0.10893,0.43573 5.99219,1.19922 5.99219,1.19922 l 4.6836,-1.96094 0.43554,-4.46679 -9.69531,-22.43946 z m -55.99218,246.73242 1.19922,14.92383 -0.87305,5.22852 -6.20899,4.14062 -25.59765,6.20899 1.74219,2.5039 9.80273,0.32813 12.31055,3.48437 6.7539,5.55664 3.59375,0.10938 21.02539,-5.55664 11.76368,0.87109 1.08984,-3.8125 -16.33984,-7.18945 -6.09961,-2.94141 -0.98047,-2.17773 -1.52539,-14.37891 -5.1211,-4.4668 z m 63.69922,14.25782 c -0.19915,0.005 -0.38142,0.0394 -0.51758,0.12109 -0.54467,0.3268 -8.2793,1.30664 -8.2793,1.30664 l -6.75391,2.61523 -1.41601,10.89258 -2.17969,9.69531 -5.22851,5.99219 c 0,0 -7.84206,4.90172 -8.38672,5.22852 -0.54466,0.3268 -12.20117,2.9414 -12.20117,2.9414 l -7.08008,1.74219 1.19726,2.94141 7.73438,1.63476 12.31054,7.18946 6.75391,8.06054 4.46484,-0.87109 c 0,0 16.55886,-7.84312 17.10352,-8.16992 0.54466,-0.3268 8.16992,-2.50586 8.16992,-2.50586 l 15.35938,0.54492 3.37695,-1.63477 -0.54492,-2.50585 -11.4375,-4.79297 -11.875,-6.09961 -7.40625,-7.08008 -0.76367,-4.03125 5.44726,-13.07227 3.48633,-9.91211 c 0,0 -0.73656,-0.24578 -1.33398,-0.23046 z" />
    <path
       style="fill:#e6e6e6;stroke-width:0.755906;stroke-linecap:round;stroke-linejoin:round;paint-order:markers fill stroke"
       d="m 417.69629,352.3546 2.28758,-5.99129 -4.13943,-2.94117 c 0,0 -4.24837,-3.70371 -4.6841,-4.13944 -0.43573,-0.43573 -1.96078,-5.77342 -1.96078,-5.77342 l 7.62527,-7.4074 14.48802,-6.75382 3.3769,2.28759 2.17865,6.75381 c 0,0 1.52506,-6.20915 1.63399,-6.75381 0.10893,-0.54467 -0.10893,-13.18083 -0.10893,-13.18083 l -3.59477,-7.62527 -6.86275,-4.3573 -12.20044,-0.21787 -15.4684,9.69499 -7.29848,9.36819 -0.76253,13.72549 2.72331,13.50763 -3.0501,26.68845 -3.26798,22.11329 -6.42701,16.23094 -12.20044,24.40087 -4.24837,14.05229 -5.01089,5.22876 -13.72549,20.26143 -2.94117,13.94336 0.87145,10.23965 6.31809,17.64706 0.21786,12.30937 1.08933,11.43791 4.46623,11.54684 10.78431,10.56645 7.40741,5.44662 9.58606,5.11982 7.08061,6.10022 6.20915,6.42702 5.66448,4.79303 6.31809,2.61437 7.95207,-1.52505 11.87364,-6.31808 16.01307,-2.50545 11.00218,-5.22876 11.22004,-7.29847 7.18954,-7.08061 7.29848,-15.79521 5.22875,-12.63617 6.75382,-8.71459 8.82353,-7.62527 0.32679,-2.72332 c 0,0 -2.39651,-2.28758 -2.94117,-2.50544 -0.54466,-0.21787 -10.89325,-2.50545 -10.89325,-2.50545 l -9.91285,-6.86274 -15.03268,-19.38998 -18.08279,-19.28105 -12.85403,-13.72549 -10.34859,-6.64488 -7.29847,-1.85185 c 0,0 -3.26797,-8.49673 -3.05011,-9.15033 0.21787,-0.65359 -0.43573,-10.45751 -0.43573,-10.45751 l 1.30719,-12.85403 3.92157,-16.55774 1.19826,-20.4793 -1.52506,-14.48802 z"
       id="path2" />
    <path
       id="path1"
       style="fill:#000000;stroke-linecap:round;stroke-linejoin:round;paint-order:markers fill stroke"
       d="m 412.52353,400.12369 c -0.32703,-0.004 -0.6333,0.0128 -0.93201,0.0506 -0.59743,0.0755 -1.16672,0.23828 -1.82237,0.50567 -1.31131,0.53475 -3.16302,1.4833 -4.91981,2.65027 -1.75681,1.16697 -3.39336,2.53709 -4.63228,4.05225 -1.23892,1.51517 -2.04644,3.14556 -2.45297,4.76019 -0.40653,1.61465 -0.40115,3.20756 -0.14079,5.06258 0.26034,1.85502 0.752,3.94289 0.90226,6.19687 0.15027,2.25397 -0.0325,4.78852 -0.25184,7.89133 -0.21939,3.1028 -0.46847,6.71825 -0.93201,10.05577 -0.46354,3.33753 -1.1364,6.39234 -2.36472,9.77022 -1.22831,3.37788 -3.0346,7.11823 -4.57279,10.38297 -1.5382,3.26474 -2.79672,6.03424 -3.84007,8.56356 -0.84914,2.05851 -1.54011,3.92625 -1.98894,5.45622 a 0.94488001,0.94488001 0 0 0 -0.005,0.003 c -1.13142,1.65212 -2.25788,3.29498 -3.47024,4.95154 -1.21236,1.65657 -2.5293,3.34907 -3.64277,4.90792 -1.11347,1.55885 -2.03827,3.00659 -2.70679,4.67789 -0.66852,1.6713 -1.05393,3.49064 -1.31076,5.2242 -0.25682,1.73356 -0.39372,3.43746 -0.22507,5.09035 0.16866,1.6529 0.63395,3.16642 1.0847,4.42208 0.45075,1.25565 0.8851,2.24977 1.27705,3.42562 0.39195,1.17585 0.74702,2.55658 0.86261,3.85693 0.11559,1.30035 -0.005,2.72578 0.2211,5.17265 0.22536,2.44686 0.79002,5.84395 1.46841,8.396 0.67839,2.55205 1.52531,4.31683 3.13115,6.2504 1.60584,1.93357 3.97202,4.10717 6.57066,5.7963 0.61859,0.40209 1.2429,0.76944 1.86005,1.11841 0.49371,2.96517 0.96771,5.92223 0.9677,7.64346 0,0.87291 -0.1134,1.39023 -0.29646,1.74603 -0.18306,0.3558 -0.45546,0.62571 -0.99051,0.96869 -1.07009,0.68596 -2.95152,1.43057 -5.20734,2.00976 -2.25581,0.5792 -4.92836,1.01713 -6.56769,1.30085 -0.81966,0.14187 -1.37911,0.24214 -1.83427,0.36884 -0.45516,0.12669 -0.87326,0.30752 -1.18186,0.65042 -0.61719,0.68577 -0.70278,1.59863 -0.0724,2.31911 0.31521,0.36023 0.77377,0.49102 1.13725,0.53442 0.36349,0.0434 0.73314,0.0397 1.23441,0.0397 1.00252,0 2.53343,0.002 3.95707,0.17946 1.42364,0.17796 2.80062,0.53973 3.84503,0.94589 1.04441,0.40617 1.77124,0.85214 2.58781,1.42677 0.81657,0.57463 1.68082,1.25591 2.32903,1.69942 0.3241,0.22175 0.61756,0.40931 0.99348,0.5255 0.37592,0.11619 0.81243,0.10968 1.17988,0.0178 0.73491,-0.18373 1.32014,-0.54273 2.93979,-1.12336 1.61965,-0.58063 4.21039,-1.3775 6.5657,-1.67563 2.35532,-0.29814 4.60338,-0.11909 5.948,0.0337 1.34462,0.1528 1.75994,0.32802 2.45495,0.21218 0.3475,-0.0579 0.70381,-0.1858 1.01132,-0.52748 0.3075,-0.34168 0.42899,-0.9933 0.23598,-1.45651 -0.38601,-0.92641 -1.166,-1.32487 -2.80991,-2.19518 -1.64391,-0.8703 -4.21173,-2.0587 -6.05111,-2.85154 -1.83939,-0.79284 -2.9334,-1.19564 -3.44545,-1.48824 -0.51205,-0.2926 -0.48792,-0.28063 -0.61275,-0.82989 -0.12483,-0.54926 -0.19764,-1.55524 -0.32422,-2.92789 -0.0607,-0.65823 -0.13762,-1.40347 -0.22011,-2.18229 0.43339,0.50604 0.8562,1.01488 1.28399,1.516 1.13675,1.33163 2.32939,2.46008 3.69531,3.39291 1.36592,0.93283 2.86871,1.67349 4.24262,1.93342 1.37391,0.25994 2.47394,-0.0515 3.44744,-0.33413 0.97351,-0.28263 2.11898,-0.61927 3.5099,-1.31473 0.1213,-0.0607 0.25276,-0.13332 0.37578,-0.19731 -0.35213,2.31563 -0.71156,4.55946 -1.12238,6.27519 -0.51596,2.15491 -1.0902,3.49117 -1.96514,4.53016 -0.87495,1.03899 -2.09375,1.83224 -4.01954,2.61458 -1.92579,0.78235 -4.53241,1.53123 -6.65592,2.02364 -1.06176,0.2462 -2.0143,0.43234 -2.81189,0.60383 -0.7976,0.17148 -1.41573,0.30217 -1.95523,0.56019 -0.26975,0.12902 -0.54317,0.27844 -0.76048,0.64249 -0.21732,0.36406 -0.17311,0.98685 0.0436,1.30878 0.43339,0.64388 0.95826,0.76751 1.6915,0.99447 1.46647,0.4539 3.77684,0.8151 5.64856,1.51699 1.87171,0.7019 3.39393,1.75994 4.45678,2.8228 1.06285,1.06286 1.71098,2.23968 2.79504,3.13016 1.08406,0.89047 2.59552,1.21498 4.23171,0.70594 1.63619,-0.50905 3.37359,-1.66049 5.27973,-2.70579 1.90615,-1.04531 3.95307,-1.99404 5.9708,-2.33994 2.01774,-0.34589 4.19414,-0.11544 5.97873,-0.0506 1.78458,0.0649 3.0704,-0.0498 4.07208,-0.39659 0.50085,-0.17337 0.93916,-0.3964 1.29292,-0.77139 0.35376,-0.37498 0.5825,-1.00736 0.44121,-1.57252 -0.14129,-0.56516 -0.52861,-0.97977 -1.02719,-1.34149 -0.49859,-0.36172 -1.15177,-0.69725 -2.03951,-1.05892 -1.77548,-0.72334 -4.44061,-1.52687 -6.72037,-2.49957 -2.27976,-0.9727 -4.21717,-2.13878 -5.33823,-3.17577 -1.12107,-1.037 -1.43432,-1.84587 -1.3881,-2.70084 0.0462,-0.85498 0.59699,-1.98578 1.12139,-3.26401 0.5244,-1.27822 0.89854,-2.53274 1.44858,-3.96896 0.5361,-1.39982 1.26144,-3.03558 1.9939,-4.68384 1.86425,-0.47951 3.88808,-1.27502 6.07491,-2.39447 2.68928,-1.37665 5.65044,-3.23137 7.92702,-5.60692 2.27659,-2.37556 3.76755,-5.18327 5.28568,-8.5358 1.51813,-3.35253 3.08097,-7.2506 5.10522,-10.04884 2.02424,-2.79824 4.608,-4.63139 6.02533,-6.26131 0.70867,-0.81496 1.15138,-1.59741 1.08569,-2.48072 -0.0657,-0.8833 -0.77245,-1.55432 -1.5388,-1.86501 -1.53269,-0.62137 -3.54545,-0.55613 -5.33228,-1.12337 -1.78682,-0.56723 -3.45066,-1.69286 -5.38482,-3.80834 -1.93416,-2.11548 -4.12627,-5.24399 -6.14431,-7.64643 -2.01805,-2.40245 -3.79703,-3.99055 -5.51571,-5.83199 -1.71867,-1.84143 -3.46657,-4.02459 -5.26485,-6.13837 -1.79829,-2.11377 -3.64011,-4.14923 -5.62576,-5.97476 -1.98566,-1.82552 -4.08006,-3.42152 -5.79233,-4.3616 -1.62103,-0.88997 -2.87711,-1.13972 -3.96401,-1.32365 -0.047,-0.19886 -0.0996,-0.3975 -0.15963,-0.59589 -0.45353,-1.50012 -1.19261,-2.72413 -1.55864,-4.10381 -0.36604,-1.37969 -0.43513,-3.06571 -0.13286,-5.30253 0.30228,-2.23681 0.98461,-5.04456 1.6449,-7.96867 0.66028,-2.92411 1.29545,-5.94891 1.55467,-8.37915 0.25923,-2.43025 0.12797,-4.20417 0.0347,-6.03922 -0.0933,-1.83505 -0.15685,-3.83861 -0.25184,-5.54842 -0.095,-1.70981 -0.21946,-3.10156 -0.2806,-4.04928 -0.0611,-0.94773 -0.0579,-1.37579 0.0664,-1.87294 0.0988,-0.39512 0.31193,-0.90111 0.54829,-1.4337 0.0156,0.009 0.0331,0.0172 0.0486,0.0258 1.64846,0.91581 2.98675,1.82894 4.14743,2.71472 1.16069,0.88579 2.26087,1.87896 3.84305,2.29333 1.58218,0.41437 3.32832,0.27256 4.57279,-0.52747 0.62223,-0.40001 1.0821,-1.08475 1.18087,-1.83427 0.0988,-0.74952 -0.0732,-1.51648 -0.39957,-2.39249 -0.65272,-1.752 -1.96669,-3.98295 -2.84362,-5.91825 -0.62937,-1.38898 -1.0545,-2.64949 -1.40793,-3.82024 a 0.94488001,0.94488001 0 0 0 0.13584,-0.23201 c 0.31328,-2.25632 0.63163,-4.53115 0.72875,-6.57066 0.0971,-2.03952 -0.0295,-3.84517 -0.54532,-5.49587 -0.51584,-1.65068 -1.49359,-3.23605 -3.28682,-4.21883 -1.79324,-0.98278 -4.14578,-1.34889 -5.6793,-1.51203 -0.38338,-0.0408 -0.73188,-0.0638 -1.05892,-0.0674 z m -0.0258,1.87492 c 0.24733,0.0105 0.53256,0.0358 0.88541,0.0734 1.4114,0.15015 3.65188,0.56438 4.97038,1.28697 1.31848,0.72259 1.96847,1.76835 2.39248,3.1252 0.42402,1.35687 0.54994,2.93588 0.45907,4.84446 -0.0422,0.88643 -0.13405,1.84781 -0.24887,2.8446 -0.22068,-0.44187 -0.49911,-0.83786 -0.88541,-1.16897 -0.53713,-0.4604 -1.23562,-0.6119 -1.84617,-0.57408 -0.61056,0.0378 -1.17651,0.22386 -1.72619,0.44717 -1.09937,0.44662 -2.16679,1.0802 -3.34829,1.6558 -1.1815,0.57561 -2.55998,1.13125 -3.61104,1.76189 -1.05105,0.63064 -1.68108,1.32943 -2.12874,1.94928 -0.44767,0.61985 -0.78923,1.21952 -0.99249,1.74801 -0.20327,0.52849 -0.21072,1.13911 -0.0744,1.78668 0.13633,0.64757 0.51144,1.91212 1.82436,3.00623 0.87674,0.73061 2.06375,1.37687 3.24617,1.99985 -0.27236,0.60079 -0.54639,1.2208 -0.70893,1.87095 -0.189,0.756 -0.18315,1.45636 -0.11898,2.45099 0.0642,0.99464 0.18761,2.35973 0.2806,4.03341 0.093,1.67369 0.15618,3.67975 0.25085,5.54148 0.0947,1.86173 0.21432,3.47075 -0.0278,5.73978 -0.24202,2.26904 -0.86247,5.26098 -1.51799,8.164 -0.65552,2.90302 -1.34935,5.73343 -1.67365,8.13326 -0.32431,2.39983 -0.26904,4.34868 0.17946,6.03921 0.44851,1.69054 1.21348,2.97114 1.5745,4.16528 0.36102,1.19413 0.43211,2.55563 0.49476,3.99673 a 0.94499999,0.94499999 0 0 0 0.98357,0.90425 0.94499999,0.94499999 0 0 0 0.90424,-0.98654 c -0.0269,-0.61862 -0.0576,-1.25295 -0.11402,-1.89277 0.81891,0.15864 1.63377,0.39147 2.75736,1.00835 1.48326,0.81435 3.52241,2.35093 5.42151,4.09687 1.8991,1.74595 3.69195,3.72294 5.46513,5.8072 1.77318,2.08426 3.53422,4.28481 5.32435,6.20281 1.79014,1.91799 3.51991,3.46274 5.44927,5.75961 1.92937,2.29687 4.12095,5.43542 6.19686,7.70593 2.0759,2.27051 4.04618,3.64992 6.20678,4.33582 2.16059,0.68589 4.40985,0.75133 5.19545,1.06982 0.3928,0.15925 0.3581,0.19143 0.36289,0.25581 0.005,0.0644 -0.0822,0.47341 -0.62663,1.09957 -1.08899,1.25232 -3.89399,3.30359 -6.13043,6.39516 -2.23644,3.09156 -3.80816,7.08789 -5.29758,10.37702 -1.48942,3.28913 -2.88097,5.87158 -4.92774,8.00734 -2.04678,2.13575 -4.84943,3.91453 -7.42335,5.23213 -2.57392,1.3176 -4.87975,2.15996 -6.81853,2.51246 -1.93878,0.3525 -3.69209,0.21303 -5.55437,0.70495 -1.86227,0.49193 -3.48182,1.54509 -4.7225,2.16543 -1.24068,0.62034 -2.22476,0.91049 -3.19362,1.19178 -0.96886,0.28128 -1.62357,0.47117 -2.56798,0.2925 -0.94442,-0.17868 -2.32474,-0.81638 -3.52775,-1.63796 -1.20302,-0.82157 -2.26824,-1.82145 -3.32449,-3.05877 -1.05625,-1.23733 -2.19742,-2.85183 -4.21684,-4.26542 -2.01941,-1.41357 -4.69313,-2.52087 -7.10706,-4.08993 -2.41394,-1.56906 -4.68393,-3.65732 -6.14828,-5.42052 -1.46435,-1.7632 -2.12093,-3.13069 -2.75834,-5.52859 -0.63742,-2.3979 -1.20066,-5.76763 -1.41388,-8.08269 -0.21323,-2.31506 -0.0841,-3.64648 -0.21912,-5.16571 -0.13505,-1.51923 -0.53023,-3.02143 -0.95283,-4.28922 -0.4226,-1.26778 -0.86447,-2.27831 -1.29093,-3.46628 -0.42645,-1.18798 -0.83994,-2.5576 -0.98456,-3.97491 -0.14462,-1.41732 -0.0293,-2.97144 0.21516,-4.62137 0.24444,-1.64992 0.61111,-3.33928 1.19574,-4.80084 0.58462,-1.46156 1.4121,-2.76992 2.49164,-4.28128 1.07954,-1.51135 2.394,-3.20076 3.62888,-4.88809 0.47183,-0.6447 0.91976,-1.28326 1.36827,-1.92152 0.008,0.15977 0.0162,0.32272 0.0268,0.46997 a 0.94488001,0.94488001 0 0 0 1.00934,0.87549 0.94488001,0.94488001 0 0 0 0.8755,-1.01034 c -0.0627,-0.87713 -0.12367,-1.56754 0.22804,-3.03299 0.3517,-1.46543 1.15297,-3.70467 2.17733,-6.18794 1.02435,-2.48329 2.27137,-5.22865 3.80339,-8.48028 1.53201,-3.25163 3.36026,-7.02817 4.63822,-10.5426 1.27797,-3.51442 1.9846,-6.72544 2.4609,-10.15492 0.47632,-3.42946 0.72866,-7.08242 0.94787,-10.18268 0.21921,-3.10025 0.41288,-5.70381 0.24986,-8.14912 -0.16302,-2.44532 -0.67524,-4.61726 -0.91614,-6.33369 -0.2409,-1.71644 -0.23416,-3.00611 0.10113,-4.3378 0.33529,-1.33169 1.01046,-2.71242 2.08413,-4.02549 1.07368,-1.31308 2.57805,-2.58822 4.21486,-3.67548 1.63681,-1.08727 3.43045,-2.00206 4.58964,-2.47478 0.8694,-0.35455 1.27176,-0.46269 2.01373,-0.4313 z m -3.77166,6.45862 a 0.9449745,0.9449745 0 0 0 -0.52648,0.10906 0.9449745,0.9449745 0 0 0 -0.49476,0.90425 c 0.0626,0.81454 0.0797,1.59977 0.33414,2.31217 0.12722,0.35619 0.34436,0.75025 0.82195,0.94787 0.47758,0.19762 1.00635,0.0196 1.29291,-0.19532 0.28656,-0.21493 0.49561,-0.48722 0.63753,-0.84575 0.14191,-0.35852 0.19432,-0.82934 0.0288,-1.29291 -0.33112,-0.92709 -1.03079,-1.30662 -1.31275,-1.52592 l -0.28059,-0.21813 a 0.9449745,0.9449745 0 0 0 -0.50071,-0.19532 z m 9.79204,5.85678 c 0.15036,0.008 0.23067,0.0483 0.32124,0.12592 0.24153,0.20702 0.74129,1.42154 1.17989,2.95664 0.4386,1.5351 0.95463,3.34874 1.89475,5.4235 0.94012,2.07476 2.25724,4.35574 2.79503,5.79927 0.2689,0.72176 0.33281,1.22345 0.29844,1.48427 -0.0158,0.11951 -0.0349,0.19655 -0.0734,0.26275 -0.69423,-0.15613 -1.33339,-0.32944 -1.97506,-0.66133 -0.77941,-0.40315 -1.64963,-1.08448 -2.80495,-2.2398 -1.15532,-1.15531 -2.62126,-2.81474 -4.4082,-4.34176 -1.78693,-1.52703 -3.825,-2.8604 -5.83001,-4.17619 a 0.94488001,0.94488001 0 0 0 -0.53144,-0.13584 c 0.27261,-0.29551 0.60564,-0.58231 1.12733,-0.89532 0.82865,-0.4972 2.20414,-1.06868 3.46628,-1.68357 1.26213,-0.61489 2.32761,-1.23533 3.23327,-1.60325 0.45283,-0.18397 0.85584,-0.29631 1.13031,-0.31331 0.0686,-0.004 0.12637,-0.005 0.17649,-0.002 z m -10.0062,5.70408 a 0.94488001,0.94488001 0 0 0 0.36884,0.50963 c 2.00501,1.31579 3.97745,2.61257 5.63666,4.03044 1.65921,1.41788 3.07547,3.01698 4.30112,4.24262 0.73633,0.73633 1.39416,1.32509 2.02761,1.79561 -0.75756,-0.37379 -1.4978,-0.97965 -2.41628,-1.68059 -1.22029,-0.93128 -2.64045,-1.89756 -4.37548,-2.86147 -1.73504,-0.96391 -3.73516,-1.93507 -4.67788,-2.72067 -0.94271,-0.78559 -1.06856,-1.40039 -1.18286,-1.94333 -0.1143,-0.54293 -0.12194,-0.43279 -0.0119,-0.71884 0.0608,-0.15799 0.17837,-0.39185 0.33017,-0.6534 z m -16.71665,119.94547 c 1.17348,0.62485 2.24853,1.19999 3.0895,1.78867 0.168,0.11759 0.30034,0.24322 0.4551,0.36388 0.1745,1.59321 0.34568,3.16801 0.46105,4.4191 0.12406,1.34539 0.17641,2.34458 0.36487,3.17379 0.18845,0.82922 0.71425,1.59113 1.51798,2.05042 0.80375,0.45928 1.84011,0.80884 3.63483,1.58243 1.79472,0.77358 4.36167,1.96565 5.9133,2.7871 0.60086,0.3181 0.44839,0.26445 0.75651,0.48484 -0.26078,-0.0319 -0.14859,-0.0196 -0.55127,-0.0654 -1.41228,-0.16049 -3.80156,-0.35717 -6.39616,-0.0288 -2.59461,0.32843 -5.26605,1.15996 -6.96725,1.76982 -1.7012,0.60987 -2.49371,1.00293 -2.76132,1.06983 -0.1338,0.0335 -0.10678,0.0266 -0.16162,0.01 -0.0548,-0.017 -0.21371,-0.095 -0.48484,-0.28059 -0.54228,-0.37103 -1.43303,-1.06771 -2.30821,-1.68357 -0.87517,-0.61587 -1.77912,-1.17187 -2.99036,-1.64291 -1.21125,-0.47104 -2.71324,-0.86291 -4.29715,-1.0609 -1.5123,-0.18904 -2.99381,-0.18524 -4.00168,-0.18541 0.27763,-0.055 0.43294,-0.0974 0.84971,-0.16955 1.61882,-0.28018 4.3336,-0.72128 6.71442,-1.33257 2.38083,-0.61129 4.38409,-1.36923 5.75763,-2.24971 0.68678,-0.44024 1.27782,-0.96845 1.65085,-1.69348 0.37302,-0.72502 0.50764,-1.57347 0.50764,-2.6116 0,-1.70907 -0.35069,-4.04633 -0.75353,-6.49531 z m 30.62836,6.84531 c -0.54607,1.23943 -1.0766,2.46328 -1.50212,3.57435 -0.57779,1.50868 -0.95559,2.75994 -1.43371,3.92534 -0.47811,1.16541 -1.1801,2.4154 -1.2592,3.87874 -0.0791,1.46335 0.60869,2.91072 1.9939,4.19205 1.38521,1.28133 3.45906,2.49443 5.87859,3.52676 2.41953,1.03233 5.14209,1.85634 6.75012,2.51146 0.80402,0.32756 1.34262,0.61997 1.64291,0.83782 0.17979,0.13043 0.15029,0.12162 0.18145,0.1626 -0.0843,0.0603 -0.16679,0.12898 -0.39858,0.20921 -0.62739,0.21718 -1.72244,0.35291 -3.38399,0.29249 -1.66156,-0.0604 -3.99713,-0.32966 -6.36541,0.0764 -2.36828,0.40599 -4.58215,1.46211 -6.56075,2.54715 -1.97861,1.08504 -3.75028,2.18791 -4.93369,2.55609 -1.18339,0.36817 -1.80046,0.19172 -2.47081,-0.35893 -0.67035,-0.55063 -1.40275,-1.75273 -2.65821,-3.0082 -1.25546,-1.25546 -2.99068,-2.45321 -5.12902,-3.25509 -1.88505,-0.7069 -3.79567,-1.04039 -5.07151,-1.36926 0.0661,-0.0148 0.0686,-0.0228 0.13782,-0.0377 0.76881,-0.16529 1.74271,-0.35571 2.84262,-0.61077 2.19984,-0.5101 4.85423,-1.26713 6.93851,-2.11387 2.08428,-0.84673 3.62414,-1.80604 4.75423,-3.14801 1.1301,-1.34199 1.80858,-3.01274 2.35778,-5.30649 0.52357,-2.18663 0.94501,-4.9832 1.36331,-7.7902 0.63602,-0.31133 1.27548,-0.59204 1.90566,-0.7585 1.228,-0.32438 2.68522,-0.31225 4.4201,-0.53342 z"
       transform="matrix(1.969873,0,0,1.969873,-392.65175,-494.413)" />
  </g>
</svg>
