<?xml version="1.0" standalone="no"?>
<!DOCTYPE svg PUBLIC "-//W3C//DTD SVG 20010904//EN"
 "http://www.w3.org/TR/2001/REC-SVG-20010904/DTD/svg10.dtd">
<svg version="1.0" xmlns="http://www.w3.org/2000/svg"
 width="900.000000pt" height="519.000000pt" viewBox="0 0 900.000000 519.000000"
 preserveAspectRatio="xMidYMid meet">
<metadata>
Created by potrace 1.10, written by Peter Selinger 2001-2011
</metadata>
<g transform="translate(0.000000,519.000000) scale(0.100000,-0.100000)"
fill="#000000" stroke="none">
<path fill="#ff0000" d="M0 4143 c0 -630 4 -1069 10 -1102 5 -31 14 -108 19 -171 14 -165 73
-482 101 -545 5 -11 12 -36 16 -55 3 -19 10 -39 14 -45 4 -5 11 -26 15 -45 4
-19 11 -39 15 -45 4 -5 11 -25 15 -43 4 -18 13 -45 21 -60 8 -15 14 -33 14
-40 0 -7 4 -20 10 -30 5 -9 19 -39 30 -67 61 -143 271 -531 300 -555 3 -3 17
-23 30 -45 13 -22 26 -42 30 -45 3 -3 17 -23 32 -45 15 -22 39 -53 53 -69 14
-16 25 -32 25 -35 0 -3 13 -20 28 -37 15 -17 47 -55 72 -85 88 -105 116 -135
220 -239 100 -101 158 -153 339 -309 13 -12 27 -21 30 -21 3 0 24 -16 46 -35
22 -20 67 -54 100 -77 129 -88 150 -103 153 -110 2 -5 10 -8 17 -8 8 0 20 -6
27 -13 16 -16 165 -104 235 -140 l52 -26 48 26 c65 34 259 151 304 182 20 15
47 33 60 41 28 19 232 171 239 179 3 3 28 24 55 46 96 77 353 325 460 445 45
51 192 235 215 270 8 12 20 28 25 34 6 6 34 47 62 91 29 44 57 85 63 92 5 7
10 17 10 22 0 5 6 16 13 23 41 42 232 430 282 573 9 28 21 59 25 70 5 11 19
52 31 90 12 39 28 89 35 113 8 23 14 51 14 60 0 10 4 22 9 28 5 5 14 36 20 69
7 33 18 94 27 135 20 102 43 274 54 395 5 55 9 574 9 1153 l1 1052 -2065 0
-2065 0 0 -1047z m2870 608 c0 -16 -60 -50 -165 -95 -16 -7 -47 -21 -68 -30
-47 -20 -62 -20 -97 0 -33 20 -77 11 -49 -9 8 -7 18 -19 22 -27 10 -21 31 -54
39 -60 7 -5 152 4 228 15 60 8 151 36 171 52 17 14 42 17 52 6 11 -10 -63
-102 -94 -116 -8 -4 -21 -11 -29 -16 -8 -5 -32 -16 -53 -25 -49 -21 -185 -22
-213 -1 -10 8 -29 15 -40 15 -20 0 -22 -7 -29 -97 -4 -54 -13 -113 -21 -132
-8 -18 -14 -42 -14 -51 0 -10 -6 -31 -14 -47 -8 -15 -24 -50 -34 -78 -23 -57
-53 -73 -137 -74 -27 -1 -66 -6 -86 -11 -20 -6 -67 -15 -105 -20 -135 -19
-263 -62 -374 -126 -54 -32 -162 -118 -168 -135 -7 -19 22 -8 60 23 67 52 221
127 308 148 19 5 53 13 75 19 82 21 296 57 420 71 68 8 116 17 220 45 49 13
101 26 180 46 22 6 44 14 50 20 5 5 17 9 27 9 24 0 123 45 266 119 48 25 176
163 191 206 8 22 16 77 18 123 5 95 7 96 85 57 52 -26 98 -63 98 -79 0 -5 -6
-17 -14 -25 -26 -30 -28 -59 -6 -81 16 -16 25 -18 40 -10 30 16 58 12 65 -10
9 -27 9 -166 0 -180 -4 -6 -20 -8 -41 -4 -26 5 -40 2 -54 -11 -25 -23 -25 -37
1 -61 43 -39 43 -50 -4 -112 -62 -80 -93 -107 -109 -95 -65 48 -102 29 -92
-45 5 -43 4 -49 -23 -68 -15 -11 -35 -23 -43 -27 -8 -4 -28 -16 -45 -27 -51
-34 -55 -34 -89 -1 -17 17 -39 31 -48 31 -25 0 -49 -44 -42 -79 5 -24 3 -32
-12 -36 -11 -3 -32 -13 -47 -21 -16 -7 -37 -14 -47 -14 -9 0 -33 -6 -51 -14
-37 -15 -59 -12 -59 8 0 21 -37 48 -62 44 -19 -2 -25 -12 -32 -50 -8 -42 -13
-48 -34 -48 -13 0 -48 -7 -78 -16 -72 -21 -118 -16 -122 13 -2 12 -14 29 -27
37 -32 21 -65 3 -65 -34 0 -46 -13 -53 -107 -60 l-88 -7 -31 36 c-28 32 -37
36 -78 36 -37 0 -49 -5 -63 -25 -10 -13 -20 -34 -23 -45 -8 -28 -77 -35 -87
-8 -3 10 -17 30 -31 46 -31 33 -82 37 -112 7 -25 -25 -61 -96 -53 -104 14 -14
33 -4 53 29 31 49 72 49 102 0 l20 -36 67 3 c62 3 66 5 69 28 4 30 39 70 62
70 22 0 60 -53 60 -83 0 -14 -7 -44 -16 -68 -26 -69 -26 -433 0 -509 32 -97
86 -210 98 -210 5 0 8 -6 8 -14 0 -17 116 -125 159 -148 42 -23 219 -25 259
-4 15 7 47 23 72 35 81 39 105 56 207 148 41 37 82 72 90 77 9 5 26 18 39 29
31 27 48 36 193 105 24 12 62 17 130 17 92 -1 98 -2 147 -34 28 -19 65 -55 83
-82 29 -45 31 -54 31 -140 0 -99 -25 -198 -71 -279 -5 -8 -13 -25 -19 -37 -19
-44 -101 -162 -155 -222 l-55 -62 0 -88 c0 -67 -4 -92 -15 -101 -8 -7 -15 -21
-15 -32 0 -10 -27 -55 -60 -98 -33 -43 -60 -84 -60 -91 0 -7 -7 -20 -16 -30
-11 -13 -17 -41 -19 -94 -2 -42 -6 -79 -9 -82 -7 -8 -64 53 -77 82 -5 11 -13
27 -18 35 -24 42 -35 94 -39 184 -3 97 5 139 39 196 5 8 13 25 18 36 21 49 92
101 180 135 94 35 242 258 280 422 24 105 6 183 -54 231 -37 29 -44 31 -120
30 -83 -1 -96 -6 -195 -68 -25 -16 -84 -67 -131 -113 -84 -82 -209 -183 -226
-183 -5 0 -14 -5 -21 -12 -36 -36 -203 -71 -309 -66 -64 3 -83 1 -88 -10 -6
-15 20 -131 40 -177 7 -16 16 -37 19 -45 3 -8 15 -28 26 -45 11 -16 23 -37 27
-45 11 -23 164 -225 174 -228 5 -2 9 -8 9 -12 0 -5 14 -29 30 -53 27 -40 30
-53 30 -118 0 -41 -7 -99 -15 -129 -8 -30 -15 -73 -15 -95 0 -22 -7 -51 -15
-65 -8 -14 -14 -35 -15 -47 0 -20 -6 -36 -45 -128 -7 -16 -16 -37 -19 -45 -8
-20 -25 -48 -58 -91 -16 -20 -28 -41 -28 -46 0 -5 -42 -9 -93 -9 -72 1 -99 -3
-120 -17 -14 -9 -33 -17 -40 -17 -8 0 -20 -7 -27 -15 -7 -8 -19 -15 -27 -15
-8 0 -32 -13 -53 -30 -21 -16 -41 -30 -45 -30 -4 0 -24 -13 -45 -30 -21 -16
-42 -30 -48 -30 -5 0 -15 -7 -22 -15 -17 -20 -99 -20 -106 0 -10 25 -50 17
-77 -15 -48 -56 -63 -29 -26 46 11 24 28 46 37 49 9 3 26 20 37 37 11 17 27
35 35 38 26 13 114 39 140 42 18 2 26 10 28 29 3 25 0 26 -95 44 -100 19 -132
38 -133 77 0 22 -14 30 -56 30 -42 0 -51 12 -27 38 14 14 36 21 81 24 34 3 66
8 72 11 22 13 131 -48 166 -93 15 -21 48 -10 52 16 2 13 -9 37 -27 61 -17 21
-31 43 -31 49 0 5 -7 15 -15 22 -20 16 -19 64 1 95 17 26 13 75 -6 75 -6 0
-10 11 -10 25 0 14 3 25 8 25 21 0 74 -44 83 -69 6 -16 19 -33 31 -38 24 -10
48 -73 48 -125 0 -52 16 -88 39 -88 22 0 121 95 121 117 0 8 6 27 14 41 8 15
19 65 26 112 9 70 9 97 -4 154 -17 77 -36 103 -87 116 -55 13 -151 50 -189 71
-8 5 -24 13 -35 18 -29 12 -155 140 -190 192 -17 24 -33 46 -36 49 -3 3 -8 13
-12 22 -12 34 -41 38 -74 12 -68 -53 -103 -174 -103 -353 0 -116 -2 -132 -17
-139 -27 -10 -207 -7 -303 6 -118 15 -209 40 -283 78 -16 8 -33 14 -39 14 -5
0 -30 14 -55 30 -24 17 -47 30 -50 30 -3 0 -25 16 -49 35 l-42 35 0 72 c1 100
-10 108 -137 101 -83 -5 -98 -4 -115 12 -11 10 -20 24 -20 31 0 8 -11 21 -26
30 -21 14 -31 15 -62 6 -42 -13 -43 -13 -36 14 6 23 75 54 121 54 18 0 33 6
37 15 7 20 105 21 132 0 10 -8 31 -15 47 -15 42 0 35 36 -18 95 -53 59 -63 96
-40 151 14 36 14 44 0 76 -8 20 -19 40 -25 43 -14 9 -2 25 18 25 21 0 92 -57
92 -73 0 -7 14 -21 30 -32 38 -25 60 -80 60 -149 0 -57 15 -81 44 -70 13 5 16
22 16 96 0 102 14 142 60 177 21 15 32 33 36 61 7 44 11 47 38 27 12 -9 20
-31 24 -66 2 -28 9 -54 13 -57 5 -3 9 -27 9 -55 0 -39 -11 -71 -51 -154 -28
-58 -55 -108 -60 -111 -15 -9 -10 -62 9 -93 42 -70 172 -127 302 -133 l65 -3
3 29 c4 31 -7 82 -64 311 -36 145 -31 206 21 260 l35 35 114 0 c63 0 126 -4
139 -9 27 -11 81 -58 91 -81 3 -8 16 -31 28 -50 11 -19 24 -48 27 -63 8 -36
25 -36 29 -1 9 74 -56 263 -120 345 -15 20 -28 42 -28 47 0 6 -6 15 -13 19
-22 13 -131 166 -143 198 -11 31 -4 55 22 80 5 5 23 27 38 48 30 41 155 140
199 156 36 14 35 31 -3 31 -71 0 -235 -125 -323 -247 -21 -31 -39 -44 -61 -47
-17 -3 -143 -7 -281 -10 -236 -5 -420 -20 -438 -36 -4 -4 -12 -38 -16 -76 -11
-86 -33 -146 -57 -155 -11 -4 -28 -17 -39 -29 -11 -12 -32 -28 -47 -36 -26
-13 -28 -13 -28 5 0 11 5 23 11 27 7 4 9 26 5 63 -6 55 -6 57 44 125 39 53 50
77 50 106 0 81 -73 183 -163 230 -64 34 -77 48 -77 92 0 41 -34 88 -65 88 -18
0 -20 21 -3 38 20 20 53 14 96 -18 23 -16 44 -30 48 -30 10 0 68 -70 89 -108
32 -58 56 -92 66 -92 15 0 10 87 -8 132 -9 24 -28 58 -40 77 -33 49 -39 79
-19 111 23 40 20 56 -14 82 -39 29 -38 38 7 38 36 0 83 -30 83 -53 0 -6 6 -18
14 -26 27 -32 39 -89 45 -211 4 -75 10 -124 16 -123 6 1 11 15 13 30 2 15 10
48 18 73 9 30 13 78 12 137 -3 75 0 94 15 110 21 24 22 61 2 90 -18 26 -5 39
24 23 28 -14 51 -50 51 -78 0 -12 7 -34 16 -47 22 -34 14 -83 -32 -190 -7 -16
-15 -37 -18 -45 -3 -8 -10 -22 -15 -30 -16 -28 -34 -85 -39 -124 l-4 -39 38 7
c22 3 66 9 99 12 55 5 132 19 245 46 25 6 64 14 87 19 24 5 57 15 73 24 29 15
31 19 28 68 l-3 52 -57 3 c-32 2 -67 -2 -78 -8 -16 -9 -25 -8 -36 0 -14 13
-64 113 -141 288 -9 20 -22 49 -30 64 -7 14 -13 33 -13 41 0 8 -7 20 -15 27
-8 7 -15 20 -15 29 0 14 -45 116 -71 161 -5 8 -14 25 -19 38 -8 19 -16 23 -42
20 -26 -2 -43 -16 -88 -71 -64 -80 -84 -92 -163 -102 -48 -5 -62 -4 -78 11
-31 28 -24 44 21 44 37 0 42 3 61 43 21 41 69 77 107 77 19 1 77 51 115 101
28 38 57 111 57 148 0 46 -34 133 -86 216 -21 34 -23 48 -19 97 5 49 3 58 -15
71 -27 19 -16 47 18 47 16 0 38 -14 62 -39 57 -59 77 -112 84 -217 6 -100 19
-148 39 -141 11 3 18 30 33 134 4 23 1 63 -5 88 -12 49 -9 58 52 138 28 36 28
39 13 62 -9 13 -16 29 -16 35 0 19 34 10 62 -17 26 -25 28 -33 28 -102 0 -71
-13 -129 -46 -209 -7 -18 -20 -47 -27 -65 -47 -110 -38 -123 31 -49 66 69 102
122 102 148 0 38 36 108 62 122 35 19 60 65 52 97 -5 20 -3 25 13 25 60 0 53
-203 -10 -283 -16 -21 -61 -63 -98 -93 -111 -88 -174 -156 -204 -216 -28 -58
-28 -62 5 -113 11 -16 23 -37 27 -45 10 -23 96 -138 148 -199 75 -88 109 -121
121 -121 12 0 64 94 64 117 0 6 7 16 15 23 8 7 15 18 15 25 0 41 190 275 223
275 7 0 18 5 25 12 12 12 63 33 117 48 38 10 91 29 130 46 17 7 37 15 45 18
59 22 120 97 120 146 0 13 5 40 12 61 10 34 9 42 -8 60 -10 11 -43 32 -73 46
-44 21 -51 27 -37 35 11 6 35 6 67 -1 64 -14 69 -14 63 3 -10 26 -56 36 -170
36 -104 0 -119 -2 -160 -25 -25 -14 -47 -25 -49 -25 -13 0 -3 79 15 115 26 53
51 76 120 111 52 27 86 34 243 50 69 7 216 -8 269 -28 20 -8 32 -6 54 9 23 15
56 19 199 23 93 3 191 7 218 8 26 1 47 -2 47 -7z m821 -898 c49 -61 65 -138
32 -149 -66 -21 -73 -27 -73 -56 0 -22 7 -33 30 -46 33 -19 37 -38 15 -68 -8
-10 -15 -25 -15 -32 0 -7 -10 -26 -22 -42 -19 -26 -26 -29 -60 -24 -44 8 -68
-7 -68 -41 0 -12 7 -28 15 -35 8 -7 15 -18 15 -25 0 -13 -84 -88 -131 -117
-31 -19 -31 -19 -54 7 -28 29 -33 30 -62 10 -14 -10 -23 -28 -25 -53 -3 -33
-6 -37 -38 -43 -19 -3 -48 -11 -63 -18 -16 -6 -44 -11 -63 -11 -27 0 -36 5
-44 24 -11 31 -26 39 -55 32 -14 -4 -27 -18 -33 -36 -14 -38 -43 -45 -135 -34
-58 7 -74 13 -82 30 -30 60 -58 65 -100 16 -21 -24 -23 -24 -76 -12 -109 25
-139 39 -139 66 0 30 -17 64 -31 64 -6 0 -28 -13 -48 -29 -33 -26 -38 -28 -56
-15 -10 8 -27 14 -36 14 -28 0 -30 13 -19 107 6 59 15 92 25 99 36 26 182 37
486 35 252 -2 314 1 350 13 24 9 53 16 64 16 56 0 228 80 293 136 44 38 132
146 132 162 0 18 35 72 46 72 6 0 17 -8 25 -17z"/>
<path fill="#f5a500" d="M2002 4653 c2 -12 13 -18 32 -19 19 -1 37 -11 51 -28 28 -35 71 -35
104 0 21 22 31 25 62 20 41 -7 58 6 39 29 -10 12 -42 15 -152 15 -127 0 -139
-2 -136 -17z"/>
<path fill="#f5a500" d="M4843 4058 c4 -991 6 -1143 20 -1213 9 -44 17 -93 17 -109 0 -15 7
-60 15 -100 9 -39 23 -105 32 -146 8 -41 21 -95 28 -120 7 -25 21 -72 30 -105
9 -33 23 -75 31 -93 8 -18 14 -39 14 -47 0 -8 6 -29 14 -47 8 -18 22 -53 31
-78 25 -65 39 -97 73 -170 39 -85 101 -211 112 -230 5 -8 40 -66 77 -129 74
-123 80 -133 135 -213 73 -106 186 -250 268 -343 60 -68 332 -338 394 -390 32
-28 75 -64 95 -81 49 -41 222 -171 294 -220 74 -49 87 -57 194 -122 48 -30 95
-58 103 -63 8 -5 22 -12 30 -15 8 -3 23 -10 32 -15 10 -5 24 -9 31 -9 15 0
112 49 162 80 17 11 39 24 50 30 28 14 87 53 253 166 60 42 250 190 262 205 3
3 33 29 67 58 86 71 293 278 382 381 40 47 83 96 95 110 54 62 266 360 266
375 0 2 13 23 29 47 110 166 275 528 344 753 8 28 22 75 30 105 9 30 23 79 31
109 9 29 16 61 16 70 0 9 6 45 14 81 28 123 46 235 47 285 0 71 13 130 27 128
9 -2 12 254 12 1102 l0 1105 -2081 0 -2081 0 5 -1132z m1537 657 l5 -280 175
0 175 0 5 280 5 280 166 3 c112 2 169 0 174 -7 3 -6 6 -129 6 -274 -1 -144 3
-268 7 -275 7 -9 48 -12 173 -10 l164 3 3 275 c2 204 5 276 15 282 17 11 321
10 333 -1 5 -6 8 -185 6 -460 l-2 -450 -153 -3 -152 -3 0 -685 0 -685 168 -3
c92 -1 168 -1 169 0 1 2 4 85 7 186 l6 184 163 -1 c89 0 167 0 172 -1 6 0 10
-90 10 -249 0 -205 -3 -251 -15 -261 -8 -6 -19 -9 -25 -5 -5 3 -19 3 -30 0
-20 -6 -20 -16 -20 -696 l0 -689 -1175 0 -1175 0 0 679 c0 754 4 711 -66 711
l-34 0 0 255 0 254 168 3 c92 2 170 2 175 0 4 -2 7 -81 7 -176 0 -136 3 -176
14 -185 9 -8 65 -11 177 -9 l164 3 0 685 0 685 -157 3 -157 3 -3 452 c-2 248
-2 455 0 460 2 4 81 6 175 5 l172 -3 5 -280z"/>
<path fill="#f5a500" d="M6907 3982 c-10 -10 -17 -21 -17 -25 0 -3 -13 -26 -30 -50 l-30 -45
0 -196 0 -196 100 0 100 0 0 192 0 191 -42 73 c-24 41 -48 74 -54 74 -6 0 -18
-8 -27 -18z"/>
<path fill="#f5a500" d="M6890 2077 c0 -8 -13 -33 -30 -55 -16 -23 -30 -46 -30 -51 0 -5 -8
-17 -17 -27 -16 -16 -18 -45 -18 -323 l0 -306 120 0 120 0 3 292 2 292 -46 78
c-26 43 -54 86 -62 96 -18 20 -42 23 -42 4z"/>
</g>
</svg>
