<?xml version="1.0" encoding="utf-8"?>
<!-- Generator: Adobe Illustrator 19.2.1, SVG Export Plug-In . SVG Version: 6.00 Build 0)  -->
<svg version="1.1" id="layer" xmlns="http://www.w3.org/2000/svg" xmlns:xlink="http://www.w3.org/1999/xlink" x="0px" y="0px"
	 viewBox="0 0 652 652" style="enable-background:new 0 0 652 652;" xml:space="preserve">
<style type="text/css">
	.st0{fill:#d5d9f5;}
	.st1{fill:#2b75ff;}
	.st2{fill:#FFED00;}
</style>
<g>
	<path class="st0" d="M37.5,235.3H20.3v53c5.6-1.1,11.4-2.1,17.3-3.1V235.3z"/>
	<path class="st0" d="M143,268.3h14.1v-14.6H143v-15.4h-17v15.4h-7.2v14.6h7.2v6.6c5.6-0.4,11.3-0.8,17-1.2V268.3z"/>
	<path class="st0" d="M196.5,266.3c4.2,0,7.4,1.8,9.6,4.7c5.7-0.1,11.4-0.2,17.1-0.3c-3.9-10.5-12.7-18.1-26.7-18.1
		c-13.3,0-23.5,8.2-27.7,19.7c5.8-0.3,11.7-0.5,17.6-0.7C188.7,268.2,192.1,266.3,196.5,266.3"/>
	<path class="st0" d="M268.8,270.9c1.5-0.3,3.2-0.5,4.9-0.5h0.9v-17.8c-10.1-0.4-15.7,4.9-19.2,13.2v-12.1h-17v16.9
		c0.3,0,0.6,0,0.9,0C249.2,270.6,259.1,270.7,268.8,270.9"/>
	<path class="st0" d="M320.6,270.4h0.9v-17.8c-10.1-0.4-15.7,4.9-19.2,13.2v-12.1h-17v17.6c8.9,0.3,17.6,0.6,26.3,1
		C314.1,271,317.1,270.4,320.6,270.4"/>
	<path class="st0" d="M358.3,266.3c6.3,0,10.5,4,12.1,10.1c5.6,0.5,11.1,1.1,16.5,1.6c-2.3-14-11.5-25.4-28.7-25.4
		c-13.7,0-24.2,8.7-28,20.7c5.5,0.3,11,0.7,16.4,1.1C348.8,269.4,352.8,266.3,358.3,266.3"/>
	<path class="st0" d="M412.3,280.8v-0.2c0-8.2,6.3-13.9,14.6-13.9c8.3,0,14.7,5.7,14.7,13.9v0.2c0,1.6-0.2,3.1-0.7,4.4
		c6,1,11.8,2,17.5,3.1v-34.7h-17v7.8c-4.6-5-10.1-9-19.4-9c-13.3,0-25.8,9.5-26.6,26.4c5.7,0.7,11.4,1.4,17,2.1
		C412.4,281,412.3,280.9,412.3,280.8"/>
	<path class="st0" d="M76.9,268.4c1.1-0.5,3.6-1.1,4.8-1.1c1.2,0,3.7,0.5,4.8,1.1c4.3,2.1,6.3,5.1,6.9,9.4
		c5.4-0.6,10.9-1.1,16.4-1.6c-1.9-8.7-7.1-16.1-15.2-20.2c-3.7-1.9-8-3.4-12.9-3.4s-9.2,1.5-12.9,3.4c-10.1,5.1-15.7,15.3-16,26.9
		c5.6-0.8,11.2-1.6,17-2.3C69.8,274.8,71.6,270.9,76.9,268.4"/>
	<path class="st1" d="M37.5,313.8v-28.5c-5.9,1-11.6,2-17.3,3.1v25.4H37.5z"/>
	<path class="st1" d="M143.5,314.8c5.7,0,9.9-1.3,13.4-3.5v-13.7c-2.5,1.3-5.3,2.1-8.4,2.1c-3.8,0-5.5-1.9-5.5-5.8v-20.3
		c-5.7,0.4-11.4,0.8-17,1.2v21.9C126,310.6,133.1,314.8,143.5,314.8"/>
	<path class="st1" d="M166.8,284.1c0,18.4,13.3,31,31.4,31c10.9,0,18.9-4.3,24.5-11.2l-9.7-8.6c-4.7,4.4-8.9,6.2-14.6,6.2
		c-7.6,0-13-4-14.7-11.8h41.8c0.1-1.6,0.2-3.1,0.2-4.5c0-5.1-0.8-10-2.5-14.5c-5.7,0.1-11.4,0.1-17.1,0.3c1.6,2.1,2.6,4.9,3,8h-25.7
		c0.5-2.9,1.5-5.5,2.9-7.5c-5.9,0.2-11.8,0.4-17.6,0.7c-1.3,3.6-2,7.5-2,11.6V284.1z"/>
	<path class="st1" d="M255.4,313.8v-22.2c0-12.1,5-18.9,13.3-20.7c-9.7-0.2-19.6-0.3-29.4-0.3c-0.3,0-0.6,0-0.9,0v43.1H255.4z"/>
	<path class="st1" d="M302.3,313.8v-22.2c0-10,3.4-16.3,9.3-19.3c-8.7-0.4-17.4-0.7-26.3-1v42.5H302.3z"/>
	<path class="st1" d="M328.6,284.1c0,18.4,13.3,31,31.4,31c10.9,0,18.9-4.3,24.5-11.2l-9.7-8.6c-4.7,4.4-8.9,6.2-14.6,6.2
		c-7.6,0-13-4-14.7-11.8h41.8c0.1-1.6,0.2-3.1,0.2-4.5c0-2.4-0.2-4.8-0.6-7.2c-5.4-0.6-10.9-1.1-16.5-1.6c0.2,0.8,0.4,1.7,0.5,2.7
		h-25.7c0.3-1.7,0.7-3.2,1.3-4.6c-5.4-0.4-10.9-0.8-16.4-1.1c-1.1,3.3-1.7,6.8-1.7,10.5V284.1z"/>
	<path class="st1" d="M395.3,280.8c0,17.8,12.7,28,26.7,28c9.1,0,14.6-3.7,19.6-9.8v2.9c0,10.8-5.5,16.4-17.1,16.4
		c-8,0-14.1-2-20.3-5.5l-5.8,12.8c7.6,4,16.8,6.3,26.6,6.3c11.7,0,20.3-2.5,25.9-8.1c5-5,7.6-12.9,7.6-23.6v-11.9
		c-5.7-1.1-11.5-2.1-17.5-3.1c-1.9,5.7-7.3,9.5-14,9.5c-8.2,0-14.5-5.5-14.6-13.7c-5.6-0.7-11.2-1.4-17-2.1c0,0.6-0.1,1.1-0.1,1.7
		V280.8z"/>
	<path class="st1" d="M93.6,280.7v5.8v25v2.2h17v-29.7v-0.2c0-2.6-0.3-5.2-0.8-7.6c-5.5,0.5-11,1-16.4,1.6
		C93.5,278.7,93.6,279.7,93.6,280.7"/>
	<path class="st1" d="M52.8,284.1v29.7h17v-2.2v-25v-5.8c0,0,0-0.1,0-0.1c-5.8,0.7-11.4,1.5-17,2.3c0,0.3,0,0.6,0,0.9V284.1z"/>
</g>
<rect x="502.6" y="235.3" class="st1" width="117.7" height="78.4"/>
<polygon class="st2" points="558.9,252.4 561.4,250.6 563.9,252.4 563,249.5 565.5,247.7 562.4,247.7 561.4,244.7 560.5,247.7 
	557.4,247.7 559.9,249.5 "/>
<polygon class="st2" points="546.1,255.9 548.6,254 551.1,255.9 550.1,252.9 552.6,251.1 549.5,251.1 548.6,248.1 547.6,251.1 
	544.5,251.1 547,252.9 "/>
<polygon class="st2" points="539.2,257.6 538.2,260.5 535.1,260.5 537.6,262.3 536.7,265.3 539.2,263.5 541.7,265.3 540.7,262.3 
	543.2,260.5 540.1,260.5 "/>
<polygon class="st2" points="535.7,276.3 538.2,278.1 537.3,275.2 539.8,273.4 536.7,273.4 535.7,270.4 534.8,273.4 531.7,273.4 
	534.2,275.2 533.2,278.1 "/>
<polygon class="st2" points="540.1,286.2 539.2,283.3 538.2,286.2 535.1,286.2 537.6,288.1 536.7,291 539.2,289.2 541.7,291 
	540.7,288.1 543.2,286.2 "/>
<polygon class="st2" points="549.5,295.7 548.6,292.7 547.6,295.7 544.5,295.7 547.1,297.5 546.1,300.4 548.6,298.6 551.1,300.4 
	550.1,297.5 552.7,295.7 "/>
<polygon class="st2" points="562.4,299.1 561.4,296.1 560.5,299.1 557.4,299.1 559.9,300.9 558.9,303.8 561.4,302 563.9,303.8 
	563,300.9 565.5,299.1 "/>
<polygon class="st2" points="575.2,295.7 574.3,292.7 573.3,295.7 570.2,295.7 572.7,297.5 571.8,300.4 574.3,298.6 576.7,300.4 
	575.8,297.5 578.3,295.7 "/>
<polygon class="st2" points="584.6,286.2 583.7,283.3 582.7,286.2 579.6,286.2 582.1,288.1 581.2,291 583.7,289.2 586.2,291 
	585.2,288.1 587.7,286.2 "/>
<polygon class="st2" points="591.2,273.3 588,273.3 587.1,270.4 586.1,273.3 583,273.3 585.5,275.1 584.6,278.1 587.1,276.3 
	589.6,278.1 588.6,275.1 "/>
<polygon class="st2" points="581.2,265.2 583.7,263.4 586.2,265.2 585.2,262.3 587.7,260.5 584.6,260.5 583.7,257.5 582.7,260.5 
	579.6,260.5 582.1,262.3 "/>
<polygon class="st2" points="574.3,248.1 573.3,251.1 570.2,251.1 572.8,252.9 571.8,255.9 574.3,254 576.8,255.9 575.8,252.9 
	578.4,251.1 575.2,251.1 "/>
<polygon class="st1" points="502.6,331.8 502.6,322.4 509.4,322.4 509.4,323.5 503.9,323.5 503.9,326.3 509.1,326.3 509.1,327.5 
	503.9,327.5 503.9,330.7 509.6,330.7 509.6,331.8 "/>
<g>
	<path class="st1" d="M517.5,322.4h1.2v5.4c0,0.9-0.1,1.7-0.3,2.3c-0.2,0.6-0.6,1-1.2,1.4c-0.6,0.4-1.3,0.5-2.2,0.5
		c-0.9,0-1.6-0.2-2.2-0.5c-0.6-0.3-1-0.7-1.2-1.3c-0.2-0.6-0.4-1.4-0.4-2.4v-5.4h1.2v5.4c0,0.8,0.1,1.4,0.2,1.8
		c0.1,0.4,0.4,0.7,0.8,0.9c0.4,0.2,0.8,0.3,1.4,0.3c0.9,0,1.6-0.2,2-0.6c0.4-0.4,0.6-1.2,0.6-2.4V322.4z"/>
	<path class="st1" d="M522.1,326.5h2.7c0.6,0,1-0.1,1.3-0.2c0.3-0.1,0.6-0.3,0.7-0.6c0.2-0.3,0.2-0.5,0.2-0.8c0-0.4-0.2-0.8-0.5-1.1
		c-0.3-0.3-0.8-0.4-1.5-0.4h-3V326.5z M520.9,331.8v-9.4h4.2c0.8,0,1.5,0.1,1.9,0.3c0.4,0.2,0.8,0.5,1,0.9c0.3,0.4,0.4,0.9,0.4,1.4
		c0,0.7-0.2,1.2-0.7,1.7c-0.4,0.5-1.1,0.7-2,0.9c0.3,0.2,0.6,0.3,0.7,0.5c0.4,0.3,0.7,0.7,1,1.3l1.6,2.6h-1.6l-1.2-2
		c-0.4-0.6-0.7-1-0.9-1.3c-0.2-0.3-0.4-0.5-0.6-0.6c-0.2-0.1-0.4-0.2-0.6-0.3c-0.1,0-0.4,0-0.7,0h-1.4v4.2H520.9z"/>
	<path class="st1" d="M531.2,327.2c0,1.1,0.3,2,0.9,2.7c0.6,0.7,1.4,1,2.3,1c0.9,0,1.7-0.3,2.3-1c0.6-0.7,0.9-1.6,0.9-2.8
		c0-0.8-0.1-1.4-0.4-2c-0.3-0.6-0.6-1-1.1-1.3c-0.5-0.3-1.1-0.5-1.7-0.5c-0.9,0-1.6,0.3-2.3,0.9
		C531.6,324.8,531.2,325.8,531.2,327.2 M530,327.2c0-1.6,0.4-2.8,1.3-3.7c0.8-0.9,1.9-1.3,3.2-1.3c0.9,0,1.6,0.2,2.3,0.6
		c0.7,0.4,1.2,1,1.6,1.7c0.4,0.7,0.5,1.6,0.5,2.5c0,0.9-0.2,1.8-0.6,2.6c-0.4,0.8-0.9,1.3-1.6,1.7c-0.7,0.4-1.5,0.6-2.3,0.6
		c-0.9,0-1.7-0.2-2.4-0.6c-0.7-0.4-1.2-1-1.6-1.8C530.1,328.8,530,328,530,327.2"/>
	<path class="st1" d="M541.8,326.8h2.4c0.8,0,1.4-0.2,1.7-0.5c0.3-0.3,0.5-0.7,0.5-1.3c0-0.4-0.1-0.7-0.3-1
		c-0.2-0.3-0.5-0.5-0.8-0.6c-0.2-0.1-0.6-0.1-1.2-0.1h-2.4V326.8z M540.6,331.8v-9.4h3.6c0.6,0,1.1,0,1.4,0.1
		c0.5,0.1,0.8,0.2,1.2,0.4c0.3,0.2,0.6,0.5,0.8,0.9c0.2,0.4,0.3,0.8,0.3,1.3c0,0.8-0.3,1.5-0.8,2c-0.5,0.5-1.4,0.8-2.8,0.8h-2.4v3.8
		H540.6z"/>
</g>
<polygon class="st1" points="549.4,331.8 549.4,322.4 556.2,322.4 556.2,323.5 550.6,323.5 550.6,326.3 555.8,326.3 555.8,327.5 
	550.6,327.5 550.6,330.7 556.4,330.7 556.4,331.8 "/>
<g>
	<path class="st1" d="M559.8,327.9h3.2l-1-2.6c-0.3-0.8-0.5-1.4-0.7-2c-0.1,0.6-0.3,1.2-0.5,1.8L559.8,327.9z M557.1,331.8l3.6-9.4
		h1.3l3.8,9.4h-1.4l-1.1-2.9h-3.9l-1,2.9H557.1z"/>
</g>
<polygon class="st1" points="566.9,331.8 566.9,322.4 568.1,322.4 573.1,329.7 573.1,322.4 574.3,322.4 574.3,331.8 573,331.8 
	568.1,324.4 568.1,331.8 "/>
<g>
	<path class="st1" d="M586.2,322.4h1.2v5.4c0,0.9-0.1,1.7-0.3,2.3c-0.2,0.6-0.6,1-1.2,1.4c-0.6,0.4-1.3,0.5-2.2,0.5
		c-0.9,0-1.6-0.2-2.2-0.5c-0.6-0.3-1-0.7-1.2-1.3c-0.2-0.6-0.4-1.4-0.4-2.4v-5.4h1.3v5.4c0,0.8,0.1,1.4,0.2,1.8
		c0.1,0.4,0.4,0.7,0.8,0.9c0.4,0.2,0.8,0.3,1.4,0.3c0.9,0,1.6-0.2,2-0.6c0.4-0.4,0.6-1.2,0.6-2.4V322.4z"/>
</g>
<polygon class="st1" points="589.5,331.8 589.5,322.4 590.8,322.4 595.7,329.7 595.7,322.4 596.9,322.4 596.9,331.8 595.6,331.8 
	590.7,324.4 590.7,331.8 "/>
<rect x="599.2" y="322.4" class="st1" width="1.3" height="9.4"/>
<g>
	<path class="st1" d="M603.6,327.2c0,1.1,0.3,2,0.9,2.7c0.6,0.7,1.4,1,2.3,1c0.9,0,1.7-0.3,2.3-1c0.6-0.7,0.9-1.6,0.9-2.8
		c0-0.8-0.1-1.4-0.4-2c-0.3-0.6-0.6-1-1.1-1.3c-0.5-0.3-1.1-0.5-1.7-0.5c-0.9,0-1.6,0.3-2.3,0.9
		C603.9,324.8,603.6,325.8,603.6,327.2 M602.3,327.2c0-1.6,0.4-2.8,1.3-3.7c0.8-0.9,1.9-1.3,3.2-1.3c0.9,0,1.6,0.2,2.4,0.6
		c0.7,0.4,1.2,1,1.6,1.7c0.4,0.7,0.5,1.6,0.5,2.5c0,0.9-0.2,1.8-0.6,2.6c-0.4,0.8-0.9,1.3-1.6,1.7c-0.7,0.4-1.5,0.6-2.3,0.6
		c-0.9,0-1.7-0.2-2.4-0.6c-0.7-0.4-1.2-1-1.6-1.8C602.5,328.8,602.3,328,602.3,327.2"/>
</g>
<polygon class="st1" points="612.9,331.8 612.9,322.4 614.1,322.4 619.1,329.7 619.1,322.4 620.3,322.4 620.3,331.8 619,331.8 
	614.1,324.4 614.1,331.8 "/>
<polygon class="st1" points="53.3,353.2 60.7,353.2 60.7,397.2 52.7,397.2 27.7,365.1 27.7,397.2 20.3,397.2 20.3,353.2 27.7,353.2 
	53.3,386.1 "/>
<g>
	<path class="st1" d="M76,388.4c2,2,4.5,3,7.6,3c3.1,0,5.6-1,7.6-3c2-2,3-4.7,3-7.9c0-3.2-1-5.9-3-7.9c-2-2-4.5-3.1-7.6-3.1
		c-3.1,0-5.6,1-7.6,3.1c-2,2-3,4.7-3,7.9C73,383.7,74,386.3,76,388.4 M96.2,392.7c-3.4,3.3-7.6,5-12.6,5c-5,0-9.2-1.7-12.6-5
		c-3.4-3.3-5-7.4-5-12.3c0-4.8,1.7-8.9,5-12.2c3.4-3.3,7.6-5,12.6-5c5,0,9.2,1.7,12.6,5c3.4,3.3,5,7.4,5,12.2
		C101.2,385.3,99.6,389.4,96.2,392.7"/>
	<path class="st1" d="M124.3,370.3c-3.5,0-6.1,1.1-7.9,3.4c-1.8,2.3-2.6,5.3-2.6,9.1v14.4h-7.1v-33.5h7.1v6.7
		c1.1-2.1,2.7-3.8,4.6-5.2c2-1.3,4-2,6.2-2.1l0.1,7.1H124.3z"/>
	<path class="st1" d="M140.4,369.4v17c0,1.6,0.4,2.9,1.3,3.8c0.8,0.9,2,1.4,3.5,1.4c1.5,0,3-0.7,4.3-2.2l2.9,5
		c-2.5,2.2-5.2,3.3-8.2,3.3c-3,0-5.6-1-7.7-3.1c-2.1-2.1-3.2-4.9-3.2-8.4v-16.8h-4.2v-5.7h4.2v-10.5h7.1v10.5h8.8v5.7H140.4z"/>
	<path class="st1" d="M163.8,379.1v18.1h-7.1v-46.7h7.1v19.3c1-2.1,2.5-3.7,4.6-4.8c2-1.2,4.2-1.8,6.6-1.8c3.8,0,6.8,1.2,9.2,3.5
		c2.3,2.3,3.5,5.7,3.5,10v20.5h-7.1v-18.4c0-6.2-2.6-9.3-7.7-9.3c-2.4,0-4.6,0.8-6.4,2.4C164.8,373.6,163.8,376,163.8,379.1"/>
</g>
<rect x="199.2" y="375.1" class="st1" width="20.9" height="6.6"/>
<polygon class="st1" points="242.5,384.9 252.3,353.2 259,353.2 268.9,384.9 279.9,353.2 287.9,353.2 272.6,397.2 265.2,397.2 
	255.9,367.1 255.4,367.1 246.2,397.2 238.8,397.2 223.4,353.2 231.4,353.2 "/>
<g>
	<path class="st1" d="M294.9,378l19.2,0c0-2.8-0.9-5-2.6-6.5c-1.8-1.5-3.9-2.3-6.5-2.3c-2.6,0-4.9,0.8-7,2.4
		C296,373.2,294.9,375.3,294.9,378 M321.2,383.6l-26.3,0c0.2,2.4,1.3,4.4,3.3,5.9c2.1,1.5,4.4,2.2,7.1,2.2c4.2,0,7.4-1.3,9.6-4
		l4,4.4c-3.6,3.7-8.3,5.6-14.1,5.6c-4.7,0-8.7-1.6-12-4.7c-3.3-3.1-4.9-7.3-4.9-12.6c0-5.3,1.7-9.5,5-12.6c3.4-3.1,7.3-4.7,11.9-4.7
		c4.6,0,8.4,1.4,11.6,4.1c3.2,2.7,4.8,6.5,4.8,11.4V383.6z"/>
	<path class="st1" d="M351.6,387.2c0,3.2-1.2,5.7-3.5,7.7c-2.3,1.9-5.3,2.9-8.9,2.9c-2.4,0-5-0.4-7.6-1.3c-2.6-0.9-4.9-2.1-7-3.7
		l3.4-5.5c3.9,2.9,7.7,4.4,11.3,4.4c1.6,0,2.9-0.4,3.8-1.1c0.9-0.7,1.4-1.7,1.4-2.8c0-1.7-2.2-3.2-6.7-4.5c-0.3-0.1-0.6-0.2-0.8-0.3
		c-7-1.9-10.5-5-10.5-9.5c0-3.1,1.2-5.6,3.6-7.5c2.4-1.9,5.6-2.8,9.4-2.8c3.9,0,7.5,1.1,11,3.4l-2.6,5.2c-2.7-1.8-5.7-2.7-8.9-2.7
		c-1.7,0-3,0.3-4.1,0.9c-1,0.6-1.6,1.5-1.6,2.7c0,1.1,0.5,1.9,1.6,2.4c0.7,0.4,1.8,0.7,3.2,1.1c1.4,0.3,2.6,0.7,3.6,1
		c1.1,0.3,2.1,0.7,3.1,1.1c1,0.4,2,1,3.2,1.8C350.4,381.7,351.6,384,351.6,387.2"/>
	<path class="st1" d="M367,369.4v17c0,1.6,0.4,2.9,1.3,3.8c0.8,0.9,2,1.4,3.5,1.4c1.5,0,3-0.7,4.4-2.2l2.9,5
		c-2.5,2.2-5.2,3.3-8.2,3.3c-3,0-5.6-1-7.7-3.1c-2.1-2.1-3.2-4.9-3.2-8.4v-16.8h-4.2v-5.7h4.2v-10.5h7.1v10.5h8.8v5.7H367z"/>
</g>
<polygon class="st1" points="439.4,353.2 439.4,360.2 415.9,360.2 415.9,371.8 437,371.8 437,378.5 415.9,378.5 415.9,390.2 
	440.1,390.2 440.1,397.2 408.4,397.2 408.4,353.2 "/>
<g>
	<path class="st1" d="M470.4,381.8v-18.1h7.1v33.5h-7.1v-6.1c-1.1,2.1-2.7,3.7-4.7,4.9c-2,1.2-4.2,1.8-6.5,1.8
		c-3.8,0-6.8-1.2-9.2-3.5c-2.3-2.3-3.5-5.7-3.5-10v-20.5h7.1v18.4c0,6.2,2.6,9.3,7.7,9.3c2.4,0,4.6-0.8,6.4-2.4
		C469.5,387.3,470.4,385,470.4,381.8"/>
	<path class="st1" d="M503.9,370.3c-3.5,0-6.1,1.1-7.9,3.4c-1.8,2.3-2.6,5.3-2.6,9.1v14.4h-7.1v-33.5h7.1v6.7
		c1.1-2.1,2.7-3.8,4.6-5.2c2-1.3,4-2,6.2-2.1l0.1,7.1H503.9z"/>
	<path class="st1" d="M517.3,388.4c2,2,4.5,3,7.6,3c3.1,0,5.6-1,7.6-3c2-2,3-4.7,3-7.9c0-3.2-1-5.9-3-7.9c-2-2-4.5-3.1-7.6-3.1
		c-3.1,0-5.6,1-7.6,3.1c-2,2-3,4.7-3,7.9C514.3,383.7,515.3,386.3,517.3,388.4 M537.5,392.7c-3.4,3.3-7.6,5-12.6,5
		c-5,0-9.2-1.7-12.6-5c-3.4-3.3-5-7.4-5-12.3c0-4.8,1.7-8.9,5-12.2c3.4-3.3,7.6-5,12.6-5c5,0,9.2,1.7,12.6,5c3.4,3.3,5,7.4,5,12.2
		C542.5,385.3,540.9,389.4,537.5,392.7"/>
	<path class="st1" d="M555,380.5c0,3.2,1,5.8,2.9,7.8c1.9,2,4.3,3.1,7.1,3.1c2.8,0,5.2-1,7.2-3c2.1-2,3.1-4.6,3.1-7.8
		c0-3.2-1-5.9-3-8c-2-2.1-4.4-3.2-7.2-3.2c-2.8,0-5.2,1.1-7.1,3.2C555.9,374.7,555,377.3,555,380.5 M566,363.2
		c4.5,0,8.3,1.6,11.5,4.7c3.2,3.1,4.8,7.2,4.8,12.4c0,5.2-1.6,9.4-4.8,12.6c-3.2,3.2-6.9,4.8-11.1,4.8c-4.2,0-8-1.8-11.4-5.5v17.3
		H548v-45.7h7.1v5.9C557.9,365.3,561.5,363.2,566,363.2"/>
	<path class="st1" d="M594,378h19.2c0-2.8-0.9-5-2.6-6.5c-1.8-1.5-3.9-2.3-6.5-2.3c-2.6,0-4.9,0.8-7,2.4
		C595,373.2,594,375.3,594,378 M620.3,383.6H594c0.2,2.4,1.3,4.4,3.3,5.9c2.1,1.5,4.4,2.2,7.1,2.2c4.2,0,7.4-1.3,9.6-4l4,4.4
		c-3.6,3.7-8.3,5.6-14.1,5.6c-4.7,0-8.7-1.6-12-4.7c-3.3-3.1-4.9-7.3-4.9-12.6c0-5.3,1.7-9.5,5-12.6c3.4-3.1,7.3-4.7,11.9-4.7
		c4.6,0,8.4,1.4,11.6,4.1c3.2,2.7,4.8,6.5,4.8,11.4V383.6z"/>
</g>
</svg>
