<?xml version="1.0" encoding="utf-8"?>
<!-- Generator: Adobe Illustrator 21.0.0, SVG Export Plug-In . SVG Version: 6.00 Build 0)  -->
<svg version="1.1" xmlns="http://www.w3.org/2000/svg" xmlns:xlink="http://www.w3.org/1999/xlink" x="0px" y="0px"
	 viewBox="0 0 425.4 425.2" enable-background="new 0 0 425.4 425.2" xml:space="preserve">
<g id="CutContour">
	<path fill-rule="evenodd" clip-rule="evenodd" fill="#FFFFFF" stroke="#FFFFFF" stroke-width="0.25" d="M418.4,156.8
		c-4.6-17.8-11.4-34.3-20.7-50.1c-9.3-15.8-21.1-30.9-34.6-44.4c-13.5-13.4-28.6-25.2-44.4-34.5c-15.8-9.3-32.3-16.1-50.1-20.7
		c-17.8-4.6-36.8-6.9-55.9-6.9c-19,0-38.1,2.3-55.9,6.9c-17.8,4.6-34.3,11.4-50.1,20.7c-15.8,9.3-30.9,21.1-44.4,34.5
		c-13.5,13.4-25.2,28.5-34.6,44.4c-9.3,15.8-16.2,32.3-20.7,50.1c-4.6,17.8-6.9,36.8-6.9,55.8c0,19,2.3,38.1,6.9,55.8
		c4.6,17.8,11.4,34.3,20.7,50.1c9.3,15.8,21.1,30.9,34.6,44.3c13.5,13.4,28.6,25.2,44.4,34.5c15.8,9.3,32.3,16.1,50.1,20.7
		c17.8,4.6,36.8,6.9,55.9,6.9c19,0,38.1-2.3,55.9-6.9c17.8-4.6,34.3-11.4,50.1-20.7c15.8-9.3,30.9-21.1,44.4-34.5
		c13.5-13.4,25.2-28.5,34.6-44.3c9.3-15.8,16.2-32.3,20.7-50.1c4.6-17.8,6.9-36.8,6.9-55.8C425.3,193.6,423,174.5,418.4,156.8z"/>
</g>
<g id="smiley_1_cool_FC">
	<path fill-rule="evenodd" clip-rule="evenodd" d="M267.5,414c17.4-4.5,33.6-11.2,49.1-20.3c15.5-9.1,30.3-20.7,43.5-33.8
		c13.2-13.2,24.7-28,33.9-43.5c9.1-15.5,15.8-31.7,20.3-49.1c4.5-17.4,6.8-36.1,6.8-54.7c0-18.7-2.3-37.3-6.8-54.7
		c-4.5-17.4-11.2-33.6-20.3-49.1c-9.1-15.5-20.7-30.3-33.9-43.5c-13.2-13.2-28-24.7-43.5-33.8c-15.5-9.1-31.7-15.8-49.1-20.3
		c-17.4-4.5-36.1-6.8-54.8-6.8c-18.7,0-37.3,2.3-54.8,6.8c-17.4,4.5-33.6,11.2-49.1,20.3c-15.5,9.1-30.3,20.7-43.5,33.8
		c-13.2,13.2-24.7,28-33.9,43.5c-9.1,15.5-15.8,31.7-20.3,49.1c-4.5,17.4-6.8,36.1-6.8,54.7c0,18.6,2.3,37.3,6.8,54.7
		c4.5,17.4,11.2,33.6,20.3,49.1c9.1,15.5,20.7,30.3,33.9,43.5c13.2,13.2,28,24.7,43.5,33.8c15.5,9.1,31.7,15.8,49.1,20.3
		c17.4,4.5,36.1,6.8,54.8,6.8C231.4,420.8,250.1,418.5,267.5,414z"/>
	<path fill-rule="evenodd" clip-rule="evenodd" fill="#FFEC00" d="M382.8,146.7c2.3,6,4.2,12.1,5.5,17.1c1.4,5,2.2,8.9,2.9,12.8
		c0.7,3.9,1.4,7.8,2.1,13.9c0.6,6,1.3,14.1,1.3,22.2c0,8.1-0.6,16.2-1.3,22.2c-0.7,6-1.3,9.9-2.1,13.8c-0.7,3.9-1.5,7.8-3.1,13.5
		c-1.6,5.7-3.9,13.1-6.9,20.2c-3,7.1-6.6,14-9.4,19.1c-2.9,5.1-5.1,8.4-7.4,11.7c-2.2,3.3-4.5,6.5-8.3,11.3
		c-3.8,4.7-9.1,10.9-14.8,16.6c-5.7,5.7-11.9,11-16.6,14.8c-4.7,3.8-8,6.1-11.3,8.3c-3.3,2.2-6.6,4.4-11.7,7.3
		c-5.1,2.9-12,6.5-19.2,9.4c-7.2,3-14.6,5.3-20.2,6.9c-5.7,1.6-9.6,2.4-13.5,3.1c-3.9,0.7-7.9,1.4-13.9,2.1
		c-6,0.6-14.1,1.3-22.2,1.3c-8.1,0-16.2-0.6-22.2-1.3c-6-0.6-10-1.3-13.9-2.1c-3.9-0.7-7.8-1.5-13.5-3.1c-5.7-1.6-13.1-3.9-20.2-6.9
		c-7.2-3-14.1-6.5-19.2-9.4c-5.1-2.9-8.4-5.1-11.7-7.3c-3.3-2.2-6.6-4.5-11.3-8.3c-4.7-3.8-10.9-9.1-16.6-14.8
		c-5.7-5.7-11-11.9-14.8-16.6c-3.8-4.7-6.1-8-8.3-11.3c-2.2-3.3-4.5-6.6-7.3-11.7c-2.9-5.1-6.5-12-9.4-19.1
		c-3-7.1-5.3-14.5-6.9-20.2c-1.6-5.7-2.4-9.6-3.1-13.5c-4.4-23.7-4.5-47.9,0-72.1c2.2-11.8,5.8-24.5,11.4-37.1
		c1.8-4.1,3.8-8.2,5.9-12.1c1.2,0.8,2.3,1.4,3.5,2.6c1.3,1.3,2,2.5,2.5,3.8c0.4,1,0.6,2.2,0.8,3.5c0.3,2.5,0.2,5.8,0.2,8.8
		c0,2.5-0.1,5.1,0,7.6c0.1,10.3,1.5,21.1,7.3,31.6c2.4,4.4,5.5,9.1,9.5,13.8c1.3,1.5,2.7,2.9,4.1,4.3c1.5,1.4,3,2.7,4.7,3.9
		c1.6,1.2,3.4,2.3,5.2,3.2c1.8,1,3.7,1.8,5.1,2.4c2.9,1.1,4.5,1.6,6.7,2.2c5,1.3,9.9,2.1,14.9,2.6c11.1,1.1,22.7,0.6,34.5-3
		c3-0.9,5.8-2,8-2.9c2.1-0.9,3.5-1.6,4.9-2.3c1.4-0.7,2.7-1.5,4.7-2.7c2-1.3,4.5-3.1,6.8-5.1c2.3-2,4.5-4.3,6.2-6.4
		c3.5-4.2,5.8-7.9,8-11.8c1.1-2,2.1-4,3-6.1s1.7-4.2,2.6-6.8c0.9-2.6,1.7-5.8,2.4-9.1c0.7-3.2,1.2-6.5,1.5-9.8
		c0.3-3.3,0.4-6.6,0.4-9.1c0-2.5-0.1-4.1-0.3-5.8c-0.4-5.3-1.8-10.3-3.8-15.4c-0.3-1.2-0.2-2.3,1-3.4c0.3-0.3,1-0.9,1.8-1.4
		c1-0.6,2.1-1.2,3.3-1.7c0.6-0.3,1.2-0.5,2.5-0.9c1.3-0.4,3.1-0.9,5.1-1.2c1.9-0.3,3.9-0.4,5.3-0.4c2.8,0,4.4,0.2,6.4,0.4
		c2.6,0.4,5.5,1.1,8.2,2.3c0.8,0.4,1.6,0.8,2.1,1.1c1.2,0.7,1.7,1,2.6,1.9c1,1.2,1,1.7,0.9,2.6c0,0.3-0.2,0.7-0.3,1.3
		c-0.1,0.3-0.2,0.6-0.5,1.5c-0.3,0.9-0.9,2.3-1.3,3.8c-0.9,3-1.4,6.2-1.7,9.4c-0.2,1.6-0.3,3.3-0.3,6.6c0,3.3,0.2,8.3,1,13.2
		c0.7,4.9,2,9.7,3.2,13.5c1.2,3.8,2.4,6.6,3.7,9.3c1.3,2.7,2.8,5.4,3.9,7.3c1.2,2,2.1,3.2,3,4.5c0.9,1.3,1.8,2.5,3.3,4.3
		c3,3.6,8.5,8.6,13.1,11.4c4.6,2.9,8.6,4.7,12.9,6.3c2.2,0.8,4.4,1.5,6.6,2.1c2.2,0.6,4.5,1.1,7.1,1.6c5.1,0.9,11.4,1.4,17.1,1.3
		c9.4-0.3,18.4-1.4,27.6-4.6c2.9-1,5.8-2.3,8.6-3.9c2.6-1.5,5.5-3.6,8.5-6.3c4.6-4.4,8-8.8,11-13.5c6.9-10.7,9.4-21.2,9.8-31.8
		c0.1-2.8,0.2-5.6,0.1-8.2c0-2.4-0.1-4.8-0.1-7.1c0-1.1,0-2.2,0.1-3c0.1-1.7,0.1-2.2,0.3-3.3c0.1-0.6,0.2-1.3,0.4-1.9
		c0.2-0.7,0.5-1.3,0.7-1.8c0.5-1.1,0.9-1.6,1.6-2.4c0.4-0.5,0.9-0.9,1.3-1.2C377.8,134.9,380.5,140.7,382.8,146.7z"/>
	<path fill-rule="evenodd" clip-rule="evenodd" fill="#FFEC00" stroke="#FFEC00" d="M345.1,92.5c-2-0.7-4.1-1.4-6.4-2
		c-2.3-0.7-4.9-1.3-7.5-1.9c-8.1-1.7-16.8-2.4-25.5-2.3c-2.9,0-5.8,0.2-8.7,0.4c-2.9,0.2-5.8,0.6-8.5,0.9c-2.7,0.4-5.2,0.9-7.6,1.4
		c-2.5,0.5-4.9,1.2-7.2,1.8c-2.2,0.6-4.3,1.3-6.4,1.9c-2,0.7-4.1,1.4-5.6,1.9c-3.1,1.1-4.1,1.4-6.1,2.1c-3.7,1.2-7.8,2.6-11.7,3.2
		c-1.6,0.2-3.7,0.4-5.7,0c-2.5-0.4-4.5-1.2-6.6-2c-0.5-0.2-1-0.4-1.9-0.7c-0.9-0.3-2.1-0.8-3.3-1.2c-1.2-0.4-2.5-0.8-3.4-1.1
		c-1-0.3-1.6-0.4-2.3-0.6c-0.7-0.1-1.4-0.3-2.4-0.4c-1-0.1-2.4-0.3-3.8-0.3c-1.4,0-2.8,0.1-4,0.3c-2.3,0.3-4.1,0.8-6.1,1.5
		c-0.9,0.3-1.8,0.6-2.7,0.9c-0.9,0.3-1.8,0.7-2.5,0.9c-1.5,0.6-2.2,0.9-3.4,1.3c-2.1,0.8-4.5,1.5-6.8,1.6c-1.5,0.1-3-0.1-4.4-0.3
		c-1.4-0.2-3.3-0.7-5.4-1.3c-2.4-0.7-4.8-1.5-7.4-2.4c-1.3-0.5-2.7-0.9-4.3-1.5c-1.7-0.6-3.7-1.3-5.8-1.9c-2-0.7-4.1-1.3-6.4-1.9
		c-2.2-0.6-4.7-1.2-7.2-1.8c-2.5-0.5-4.9-1-7.6-1.4c-5.5-0.8-11.4-1.3-17.2-1.4c-2.9,0-5.9,0-8.8,0.1c-3,0.1-5.9,0.4-8.7,0.8
		c-2.8,0.4-5.4,0.8-8,1.4c-2.6,0.6-5.2,1.2-7.5,1.9C84.9,92.1,80.1,93.8,75,96c-0.9,0.4-1.8,0.8-2.7,1.2c4.5-5.4,9.2-10.5,14.3-15.4
		c5-4.8,10.4-9.4,14.6-12.8c4.3-3.4,7.5-5.7,10.8-8c3.3-2.3,6.6-4.5,11.7-7.4c5.1-2.9,12-6.5,19.2-9.5c7.2-3,14.6-5.3,20.2-6.9
		c5.7-1.6,9.6-2.4,13.5-3.1c3.9-0.7,7.9-1.4,13.9-2.1c6-0.6,14.1-1.3,22.2-1.3c8.1,0,16.2,0.6,22.2,1.3c6,0.6,9.9,1.3,13.9,2.1
		c3.9,0.7,7.8,1.5,13.5,3.1c5.7,1.6,13.1,3.9,20.2,6.9c7.2,3,14,6.6,19.2,9.5c5.1,2.9,8.4,5.1,11.7,7.4c3.3,2.3,6.5,4.6,10.6,7.8
		c4.1,3.2,9,7.4,13.7,11.9c4.7,4.4,9.1,9.1,13.3,14C349.1,93.9,347.1,93.2,345.1,92.5z"/>
	<path fill-rule="evenodd" clip-rule="evenodd" fill="#FFFFFF" d="M74.9,119.4c3.2-4,7.9-7.4,12.5-9.5c4.6-2.1,9.2-2.9,12.9-3.1
		c3.7-0.2,6.6,0.2,9.4,1.1c-2.5,2.9-4.9,5.8-8.2,9.9c-3.4,4.1-7.7,9.5-10.8,15c-3.1,5.5-5,11.3-6.8,19.2c-1.8,7.9-3.4,17.8-4.3,27.8
		c-2-2.4-3.7-5.1-5.4-9.7c-1.8-4.6-3.7-11-4.7-17.5c-1-6.6-1-13.3-0.2-19C70.1,128,71.8,123.4,74.9,119.4z"/>
	<path fill-rule="evenodd" clip-rule="evenodd" fill="#FFFFFF" d="M355,170.2c-1.8,4.6-3.4,7.3-5.4,9.7c-0.9-10-2.5-20-4.3-27.8
		c-1.8-7.9-3.7-13.6-6.8-19.2c-3.1-5.5-7.5-10.9-10.8-15c-3.4-4.1-5.7-7.1-8.2-9.9c2.7-0.9,5.6-1.3,9.4-1.1c3.7,0.2,8.3,1,12.9,3.1
		c4.6,2.1,9.3,5.5,12.5,9.5c3.2,4,4.8,8.6,5.6,14.3c0.8,5.7,0.8,12.4-0.2,19C358.7,159.2,356.7,165.6,355,170.2z"/>
	<path fill-rule="evenodd" clip-rule="evenodd" d="M97.9,260.1c3.5,11,8,20.4,13.2,28.9c5.2,8.5,11.2,15.9,18,22.5
		c6.8,6.6,14.5,12.4,23,17.1c8.4,4.7,17.5,8.3,27.8,10.7c10.2,2.4,21.6,3.7,32.9,3.7c11.3,0,22.7-1.3,32.9-3.7
		c10.2-2.4,19.4-6,27.8-10.7c8.4-4.7,16.2-10.5,23.1-17.1c6.9-6.6,12.8-14.1,18.1-22.5c5.2-8.5,9.7-17.9,13.2-28.9
		c3.5-11,6.2-23.4,7.5-36h-16.6c-2.6,11.5-6.5,22.8-11.1,32.2c-4.6,9.5-10,17.1-16,23.6c-6,6.5-12.6,11.8-20.1,16.2
		c-7.5,4.4-16,7.9-26,10.3c-9.9,2.4-21.4,3.7-32.8,3.7c-11.4,0-22.9-1.3-32.8-3.7c-9.9-2.4-18.4-5.9-26-10.3
		c-7.5-4.4-14.2-9.7-20.1-16.2c-6-6.5-11.3-14.1-15.9-23.6c-4.6-9.5-8.6-20.7-11.1-32.2H90.4C91.8,236.7,94.4,249.2,97.9,260.1z"/>
</g>
</svg>
