<?xml version="1.0" standalone="no"?>
<!DOCTYPE svg PUBLIC "-//W3C//DTD SVG 20010904//EN"
 "http://www.w3.org/TR/2001/REC-SVG-20010904/DTD/svg10.dtd">
<svg version="1.0" xmlns="http://www.w3.org/2000/svg"
 width="675.000000pt" height="675.000000pt" viewBox="0 0 675.000000 675.000000"
 preserveAspectRatio="xMidYMid meet">
<metadata>
Created by potrace 1.10, written by Peter Selinger 2001-2011
</metadata>
<g transform="translate(675.000000,675.000000) scale(0.100000,-0.100000)"
fill="#ffffff" stroke="none">
<path d="M3336 6218 c-11 -35 -15 -99 -17 -273 l-2 -190 44 0 44 0 5 98 c3 53
8 98 12 100 8 3 138 -168 138 -182 0 -15 29 -28 83 -35 46 -7 48 -6 42 13 -3
12 -20 36 -36 53 -16 18 -29 36 -29 40 0 3 -6 13 -13 20 -33 34 -87 112 -87
127 0 8 41 57 91 107 52 53 89 97 85 103 -4 6 -26 11 -49 11 -39 0 -46 -5
-129 -90 -47 -49 -92 -90 -98 -90 -7 0 -10 30 -8 98 l3 97 -38 3 c-24 2 -39
-1 -41 -10z"/>
<path d="M2885 6182 c-66 -37 -77 -55 -76 -124 0 -61 1 -64 38 -95 25 -21 49
-33 69 -33 16 0 58 -9 92 -21 48 -16 63 -26 68 -44 8 -31 0 -41 -46 -65 -46
-23 -95 -25 -130 -5 -39 23 -60 19 -60 -11 0 -46 16 -61 70 -68 28 -4 78 -4
111 0 54 6 65 11 105 51 38 39 44 50 44 86 0 61 -59 137 -107 137 -10 0 -49 9
-87 19 -74 19 -96 43 -76 80 14 27 91 46 131 32 74 -26 94 -10 64 49 -15 30
-17 30 -98 29 -58 0 -91 -5 -112 -17z"/>
<path d="M3910 6134 c-7 -22 -16 -57 -20 -79 -12 -56 -29 -122 -46 -175 -8
-25 -14 -54 -14 -65 0 -11 -7 -33 -15 -48 -8 -15 -12 -34 -9 -41 7 -18 49 -36
85 -36 17 0 40 -5 52 -12 12 -6 42 -15 67 -19 25 -4 58 -11 74 -15 33 -8 46 6
46 49 0 24 -4 27 -32 27 -18 1 -44 7 -58 15 -14 8 -38 14 -53 15 -47 0 -67 17
-67 54 0 19 8 43 18 55 15 19 22 20 67 12 28 -5 65 -15 83 -22 39 -16 65 -4
70 31 5 30 -21 50 -62 50 -43 0 -131 36 -129 52 11 66 20 83 44 81 37 -3 110
-19 147 -33 47 -18 64 -8 60 37 -3 36 -5 38 -43 44 -22 3 -56 10 -75 16 -42
13 -115 32 -152 40 -24 4 -28 1 -38 -33z"/>
<path d="M2523 6103 c-16 -6 -17 -77 -1 -106 6 -12 15 -38 19 -57 4 -19 12
-50 18 -67 6 -18 16 -48 22 -65 6 -18 14 -49 19 -68 8 -38 38 -110 45 -110 2
0 20 8 40 17 35 17 44 40 24 60 -6 6 -15 29 -19 50 -5 21 -13 54 -20 73 -27
80 -32 97 -40 130 -4 19 -13 49 -19 65 -6 17 -13 42 -16 58 -4 22 -11 27 -33
26 -15 0 -33 -3 -39 -6z"/>
<path d="M2280 6015 c-14 -8 -32 -17 -40 -21 -25 -11 -141 -65 -207 -96 -35
-17 -63 -36 -63 -42 0 -7 9 -22 20 -34 17 -18 25 -20 47 -11 15 6 32 14 38 18
5 5 22 11 36 14 21 5 30 1 47 -23 12 -16 22 -34 22 -41 0 -6 6 -23 14 -37 8
-15 17 -34 20 -42 3 -8 10 -22 15 -30 5 -8 25 -48 43 -87 36 -79 52 -88 97
-54 l25 19 -48 98 c-26 55 -54 111 -62 126 -8 14 -14 33 -14 41 0 8 -7 20 -15
27 -29 24 -6 90 32 90 23 0 73 36 73 52 0 19 -26 48 -43 48 -7 0 -23 -7 -37
-15z"/>
<path d="M4670 5878 c-6 -13 -19 -36 -30 -53 -11 -16 -23 -37 -27 -45 -4 -8
-25 -41 -48 -75 -52 -78 -70 -142 -54 -198 24 -85 111 -147 205 -147 80 0 139
47 190 150 4 8 26 41 49 75 65 96 77 135 40 135 -7 0 -15 7 -19 15 -7 18 -32
20 -40 3 -3 -7 -15 -26 -26 -43 -11 -16 -24 -39 -29 -50 -5 -11 -21 -37 -35
-58 -14 -21 -26 -41 -26 -45 0 -4 -17 -26 -38 -49 -32 -37 -43 -43 -77 -43
-27 1 -50 9 -70 25 -26 22 -30 31 -29 75 0 31 7 56 17 68 9 10 17 22 17 25 0
4 12 26 27 50 41 63 51 80 62 104 5 11 15 24 20 28 18 10 12 36 -11 56 -31 25
-56 24 -68 -3z"/>
<path d="M1795 5755 c-30 -24 -30 -25 -33 -142 -2 -65 -8 -122 -12 -127 -7 -7
-51 43 -114 129 -13 18 -16 18 -33 4 -10 -9 -26 -19 -35 -22 -10 -4 -18 -11
-18 -16 0 -8 165 -238 200 -278 5 -7 10 -17 10 -23 0 -5 4 -10 9 -10 5 0 18
-16 30 -35 24 -41 41 -44 75 -11 26 23 33 41 18 48 -13 5 -102 126 -102 138 0
13 45 10 95 -8 34 -12 106 -31 148 -39 17 -3 34 0 45 9 9 8 25 18 34 21 38 13
-14 57 -68 57 -13 0 -41 7 -61 15 -19 8 -46 15 -60 15 -13 0 -37 7 -54 15
l-29 16 5 97 c3 53 8 114 11 135 3 31 1 37 -13 37 -10 -1 -31 -12 -48 -25z"/>
<path d="M5149 5496 c-30 -29 -103 -103 -164 -164 l-109 -111 24 -26 c13 -14
31 -25 40 -25 9 0 57 43 106 95 50 54 97 95 108 95 13 0 16 -5 11 -17 -3 -10
-10 -54 -15 -98 -5 -44 -14 -96 -20 -115 -5 -19 -10 -61 -10 -92 0 -46 5 -63
21 -79 l21 -21 155 158 c84 88 158 166 163 175 7 12 2 23 -21 45 l-30 28 -100
-103 c-110 -114 -135 -122 -105 -35 9 26 16 68 16 93 0 25 7 68 15 95 22 72
19 103 -11 131 -15 14 -30 25 -34 25 -4 0 -32 -24 -61 -54z"/>
<path d="M1344 5364 c-23 -5 -70 -48 -152 -140 l-54 -59 55 -50 c29 -27 98
-90 152 -140 55 -49 106 -98 114 -107 22 -25 46 -22 65 7 24 37 20 47 -39 99
-30 26 -55 55 -55 64 0 20 42 42 61 32 8 -4 53 -10 101 -13 81 -6 88 -5 112
18 14 13 26 28 26 33 0 4 -42 16 -92 26 -129 25 -121 20 -102 60 16 32 16 36
-7 82 -13 26 -35 56 -49 66 -25 18 -98 30 -136 22z m96 -116 c11 -13 19 -30
20 -38 0 -15 -86 -120 -98 -120 -15 0 -92 78 -92 92 0 9 21 35 46 58 39 36 50
41 76 36 16 -3 38 -16 48 -28z"/>
<path d="M5570 5055 c-25 -19 -51 -40 -58 -45 -7 -6 -43 -32 -80 -57 -37 -25
-71 -52 -77 -58 -5 -7 -27 -22 -47 -34 -39 -23 -47 -46 -28 -80 5 -10 16 -21
24 -24 11 -5 87 44 171 110 74 59 94 73 101 73 5 0 26 16 47 35 21 19 42 35
48 35 5 0 9 11 9 25 0 14 -4 25 -10 25 -5 0 -10 7 -10 15 0 26 -42 16 -90 -20z"/>
<path d="M5780 4873 c0 -5 -18 -26 -39 -48 -21 -22 -69 -76 -107 -120 -64 -75
-130 -148 -163 -182 -10 -11 -11 -20 -3 -36 5 -12 13 -30 16 -39 7 -23 82 -24
181 -3 38 8 95 15 125 15 53 0 178 21 198 34 14 8 4 41 -18 61 -16 15 -26 15
-70 6 -28 -6 -69 -11 -90 -11 -22 0 -73 -7 -115 -17 -94 -20 -107 -11 -58 42
46 52 127 140 171 187 l34 36 -18 41 c-16 35 -44 56 -44 34z"/>
<path d="M908 4823 c-38 -42 -34 -68 23 -140 30 -38 57 -70 61 -73 4 -3 27
-31 50 -61 143 -186 157 -196 177 -137 12 34 3 56 -41 100 l-20 20 23 45 c13
25 29 55 36 67 7 12 21 31 33 41 18 16 25 17 60 6 23 -7 49 -10 58 -7 23 8 56
66 39 70 -91 24 -152 36 -184 36 -21 0 -54 5 -73 11 -19 6 -66 15 -105 19 -38
5 -81 12 -95 15 -18 5 -31 1 -42 -12z m226 -103 c29 -11 33 -31 11 -50 -8 -7
-15 -21 -15 -31 0 -36 -44 -23 -75 21 -15 22 -32 40 -36 40 -5 0 -9 7 -9 15 0
18 82 21 124 5z"/>
<path d="M2096 4600 c-37 -38 -64 -75 -61 -81 5 -7 59 -10 164 -8 150 3 156 2
159 -17 2 -12 -4 -27 -13 -34 -8 -7 -15 -18 -15 -26 0 -28 -41 -34 -219 -34
l-180 0 -23 -32 c-27 -39 -48 -77 -48 -89 0 -5 212 -9 489 -9 l489 0 103 -111
c57 -61 105 -119 107 -130 3 -18 -8 -19 -370 -19 -322 0 -380 -2 -423 -17
-131 -43 -206 -93 -321 -210 -97 -98 -139 -151 -155 -196 -22 -63 -9 -67 213
-67 l189 0 25 -27 c13 -15 30 -38 37 -52 l12 -26 960 -3 959 -2 23 27 c12 16
22 32 23 37 0 4 14 26 31 47 l31 39 419 0 419 0 0 56 c0 98 10 94 -231 94
-126 0 -218 4 -230 10 -15 8 -19 21 -19 60 l0 50 213 2 212 3 -3 40 c-2 22 -9
46 -14 53 -6 6 -14 27 -17 45 l-7 32 -502 5 -502 5 -27 25 c-16 14 -57 48 -93
75 -36 27 -67 52 -70 56 -3 3 -36 30 -75 60 -38 29 -72 56 -75 60 -3 3 -36 30
-75 60 -38 29 -78 61 -90 70 -11 10 -85 70 -165 133 l-145 115 -520 1 -521 0
-68 -70z m478 -716 c14 -5 16 -29 16 -165 l0 -158 -34 -7 c-19 -3 -80 -4 -136
-2 -88 3 -103 6 -115 23 -38 54 -40 55 -182 55 l-134 0 7 23 c10 31 128 142
178 167 23 12 48 25 56 29 50 28 113 40 217 40 61 1 118 -2 127 -5z m319 -19
c69 -47 85 -114 41 -172 -63 -82 -166 -81 -215 3 -34 57 -18 120 43 168 42 33
83 33 131 1z"/>
<path d="M4125 4659 c-4 -5 -17 -15 -28 -20 -12 -5 -35 -18 -52 -29 -16 -11
-39 -24 -50 -30 -27 -14 -48 -28 -120 -75 -77 -51 -95 -62 -122 -74 -30 -14
-29 -45 1 -64 13 -9 29 -22 37 -29 8 -7 46 -38 84 -68 39 -30 72 -57 75 -60 3
-3 36 -30 73 -59 63 -50 69 -52 86 -37 10 9 20 16 24 16 3 0 34 19 69 43 35
24 70 46 78 50 8 4 29 16 45 26 27 18 52 20 287 20 141 1 259 5 262 10 3 5
-10 34 -30 65 l-37 56 -187 0 c-204 0 -198 -2 -229 62 -24 48 -17 50 149 52
112 1 155 4 155 13 0 6 -28 41 -62 77 l-62 66 -220 0 c-144 0 -222 -4 -226
-11z"/>
<path d="M6015 4301 c-9 -8 -74 -28 -165 -50 -19 -5 -48 -14 -65 -19 -16 -6
-57 -18 -90 -27 -33 -10 -66 -19 -74 -21 -8 -3 -10 -10 -6 -22 4 -9 11 -33 15
-52 8 -33 12 -47 41 -132 6 -18 14 -49 18 -68 7 -37 8 -38 59 -25 24 6 32 12
29 24 -8 24 -24 72 -37 111 -17 49 -23 97 -13 103 4 3 30 7 56 8 48 4 49 4 64
-36 8 -22 17 -57 20 -77 6 -45 33 -72 62 -63 28 9 36 46 17 83 -9 17 -16 44
-16 61 0 16 -4 33 -10 36 -29 18 10 55 59 55 32 0 38 -4 50 -32 7 -18 17 -49
21 -68 16 -63 35 -110 45 -110 5 0 20 8 33 18 20 16 21 22 13 62 -5 25 -14 60
-20 78 -6 17 -16 47 -22 65 -6 17 -14 48 -18 67 -5 28 -11 36 -31 38 -14 2
-30 -1 -35 -7z"/>
<path d="M614 4103 c-20 -30 -54 -127 -54 -156 0 -10 9 -38 20 -61 20 -45 78
-86 122 -86 46 0 118 67 163 154 6 11 22 28 37 39 l27 20 25 -24 c42 -39 33
-97 -26 -178 -24 -32 -23 -46 8 -59 21 -10 29 -9 48 5 67 51 90 227 38 288 -9
11 -36 29 -59 39 -42 19 -44 19 -84 1 -36 -17 -109 -90 -109 -110 0 -15 -62
-85 -75 -85 -27 0 -45 31 -45 79 0 38 7 57 31 90 36 51 32 71 -15 71 -26 0
-38 -6 -52 -27z"/>
<path d="M6100 3749 c-25 -4 -84 -8 -132 -8 -120 -1 -235 -19 -242 -38 -4 -8
0 -27 7 -41 12 -25 17 -27 62 -23 92 8 107 6 118 -11 13 -20 -8 -68 -30 -68
-7 0 -13 -4 -13 -8 0 -5 -27 -28 -60 -52 -59 -43 -60 -44 -60 -91 0 -52 11
-67 30 -44 7 9 42 38 77 66 l64 50 32 -34 c29 -31 91 -67 115 -67 19 0 99 40
114 57 34 40 41 88 28 209 -14 129 -7 122 -110 103z m38 -170 c3 -67 3 -67
-32 -89 -44 -26 -70 -20 -97 23 -19 32 -27 116 -12 131 4 4 37 6 73 4 l65 -3
3 -66z"/>
<path d="M522 3623 c-5 -10 -11 -81 -13 -158 l-4 -140 120 -6 c66 -4 173 -10
238 -14 l117 -8 2 132 c1 72 2 143 2 159 1 24 -2 27 -34 27 l-35 0 -3 -95 c-3
-115 -13 -130 -75 -123 -60 8 -65 16 -57 103 7 81 1 105 -29 113 -34 8 -40 -7
-43 -103 l-3 -95 -57 -3 -57 -3 -3 113 -3 113 -27 3 c-18 2 -30 -3 -36 -15z"/>
<path d="M1614 3271 c-2 -2 -4 -40 -4 -83 l0 -78 224 0 c256 0 259 -1 254 -74
l-3 -41 -222 -3 c-154 -2 -223 -6 -223 -13 0 -6 8 -33 17 -60 l18 -49 347 0
347 0 63 -42 c93 -62 101 -67 125 -77 11 -6 24 -15 28 -20 8 -14 45 -14 45 -1
0 6 10 15 23 20 12 6 36 19 52 30 17 11 37 23 45 27 8 4 34 20 56 35 23 15 44
28 47 28 3 0 34 19 69 42 78 53 97 64 126 78 13 5 22 16 20 23 -4 12 -93 77
-133 97 -11 6 -33 19 -50 30 -16 11 -39 24 -50 30 -11 6 -32 18 -47 28 -14 9
-48 30 -75 46 l-48 30 -523 0 c-288 1 -526 -1 -528 -3z"/>
<path d="M3693 3262 c-15 -7 -41 -21 -58 -32 -16 -11 -37 -23 -45 -27 -8 -4
-42 -25 -75 -48 -34 -23 -67 -44 -75 -48 -8 -4 -28 -16 -45 -27 -16 -11 -37
-23 -45 -27 -8 -4 -43 -26 -77 -49 -34 -23 -71 -45 -82 -49 -12 -3 -21 -10
-21 -15 0 -4 -8 -10 -17 -14 -10 -3 -30 -14 -45 -23 -15 -10 -70 -45 -124 -78
-53 -33 -108 -68 -123 -77 -14 -10 -35 -22 -46 -28 -27 -14 -51 -29 -105 -65
l-45 -30 -447 -3 c-247 -1 -448 -5 -448 -7 0 -5 10 -26 31 -65 5 -8 18 -34 30
-57 l22 -43 200 -2 200 -3 22 -40 c13 -22 20 -45 18 -52 -4 -10 -46 -13 -173
-13 -105 0 -171 -4 -175 -10 -4 -6 21 -42 55 -80 l62 -70 222 0 221 -1 43 -59
44 -60 827 0 c789 0 829 1 844 18 10 10 17 26 17 35 0 9 10 23 22 31 18 13 54
16 189 16 146 0 168 2 182 18 14 15 14 23 4 53 -19 57 -120 180 -199 244 -73
60 -188 119 -253 130 -22 4 -60 11 -85 15 -25 5 -125 9 -222 9 -151 1 -178 3
-178 16 0 8 4 15 8 15 5 0 29 19 53 43 24 23 76 70 115 105 l72 62 535 0 c598
0 555 -6 565 75 l5 45 -215 0 c-239 0 -245 1 -228 59 18 63 13 62 247 61 118
-1 216 0 218 2 2 2 6 38 10 81 6 62 5 77 -6 78 -8 0 -325 2 -706 2 -542 2
-698 -1 -720 -11z m60 -777 c20 -14 46 -44 58 -67 l21 -41 -22 -46 c-23 -51
-75 -91 -116 -91 -56 0 -134 77 -134 132 0 50 86 138 135 138 11 0 37 -11 58
-25z m452 9 c80 -27 116 -46 182 -97 72 -56 118 -106 106 -118 -5 -5 -64 -10
-133 -11 -124 -3 -125 -3 -137 -29 -23 -48 -37 -53 -155 -51 -66 1 -116 6
-124 13 -11 9 -14 44 -14 150 0 121 2 139 18 148 28 17 200 13 257 -5z"/>
<path d="M5767 3203 c-9 -11 -17 -24 -17 -30 0 -6 -7 -24 -15 -39 -9 -17 -15
-56 -15 -92 0 -82 30 -133 93 -157 43 -16 46 -16 89 4 48 21 68 45 107 126 43
91 73 106 110 59 25 -32 26 -59 6 -98 -8 -15 -15 -34 -15 -41 0 -7 -7 -18 -15
-25 -28 -23 -18 -40 24 -40 34 0 42 5 59 33 39 68 37 202 -4 244 -25 25 -68
43 -103 43 -49 0 -113 -56 -136 -120 -18 -48 -46 -86 -70 -95 -23 -8 -30 -6
-47 15 -16 20 -19 33 -14 75 4 27 17 69 29 92 24 47 23 50 -19 59 -22 4 -34 0
-47 -13z"/>
<path d="M824 3141 c-86 -11 -87 -13 -81 -87 5 -74 19 -96 56 -92 23 3 26 8
29 44 2 33 8 44 28 53 36 16 59 0 80 -54 16 -43 16 -47 -1 -85 -10 -22 -26
-47 -37 -57 -21 -18 -77 -42 -121 -50 -39 -7 -101 23 -133 64 -21 28 -25 44
-25 96 0 34 2 71 3 82 4 30 -38 32 -68 4 -33 -31 -34 -122 -2 -188 79 -164
280 -198 409 -69 39 39 48 55 54 97 11 82 -3 157 -39 204 -35 47 -48 50 -152
38z"/>
<path d="M5666 2753 c-3 -3 -6 -23 -6 -44 0 -40 11 -49 59 -49 14 0 35 -6 46
-14 11 -7 36 -16 55 -19 49 -7 119 -27 158 -43 18 -8 45 -14 60 -14 16 0 33
-5 40 -12 14 -14 23 -6 40 35 10 23 9 30 -8 47 -12 12 -33 20 -53 20 -18 0
-42 7 -53 15 -10 8 -32 15 -47 15 -15 0 -44 7 -64 15 -19 8 -44 15 -55 15 -10
0 -31 6 -46 14 -31 15 -116 28 -126 19z"/>
<path d="M1060 2648 c-28 -34 -77 -105 -83 -120 -8 -21 -40 -24 -56 -5 -6 8
-28 19 -48 25 -61 18 -137 -11 -176 -68 -21 -30 -22 -108 -2 -134 8 -11 15
-30 15 -42 0 -13 4 -26 10 -29 5 -3 14 -23 20 -43 5 -20 19 -48 30 -62 19 -23
21 -24 31 -7 5 9 20 17 33 17 12 0 31 7 42 15 10 8 27 15 36 15 9 0 30 7 47
15 17 8 45 22 62 30 17 8 39 15 49 15 10 0 22 4 25 10 3 5 23 14 43 20 58 16
78 35 65 62 -6 13 -14 31 -17 41 -5 16 -9 17 -33 4 -16 -7 -43 -21 -61 -30
-45 -23 -79 -21 -92 3 -9 16 0 34 51 108 60 89 60 90 49 131 -11 42 -22 50
-40 29z m-194 -194 c42 -11 78 -127 44 -143 -8 -4 -30 -15 -48 -24 -19 -9 -37
-17 -42 -17 -4 0 -18 19 -29 43 -47 97 -11 164 75 141z"/>
<path d="M5544 2403 c-3 -10 -10 -26 -15 -35 -13 -25 -14 -24 39 -48 26 -11
60 -28 75 -35 16 -8 34 -15 42 -15 7 0 18 -7 25 -15 7 -8 23 -15 35 -15 12 0
28 -7 35 -15 7 -8 19 -15 27 -15 23 0 63 -31 63 -49 0 -10 -7 -26 -15 -37 -8
-10 -15 -25 -15 -33 0 -8 -7 -22 -15 -31 -15 -16 -13 -19 25 -39 38 -20 41
-20 46 -4 3 10 10 25 15 33 5 8 12 22 15 30 3 8 12 31 21 50 24 53 41 93 47
110 3 8 10 22 14 30 52 89 51 120 0 120 -31 0 -35 -4 -61 -60 -15 -33 -32 -60
-38 -60 -6 0 -23 6 -37 14 -15 8 -58 28 -97 46 -38 18 -82 38 -97 46 -14 8
-33 14 -41 14 -8 0 -20 7 -27 15 -17 21 -59 19 -66 -2z"/>
<path d="M1136 2135 c-11 -8 -27 -15 -36 -15 -20 0 -120 -87 -120 -105 0 -7
-7 -18 -15 -25 -11 -9 -15 -34 -15 -95 0 -61 4 -86 15 -95 8 -7 15 -17 15 -22
0 -32 125 -108 179 -108 87 0 202 77 249 168 55 105 -1 241 -121 295 -46 21
-125 22 -151 2z m160 -111 c40 -32 44 -39 44 -81 0 -74 -38 -122 -134 -165
-48 -22 -69 -23 -104 -1 -57 36 -67 53 -66 116 1 55 3 61 40 94 92 82 153 93
220 37z"/>
<path d="M5358 2057 c-26 -35 -63 -88 -83 -118 -20 -29 -41 -55 -46 -57 -24
-9 14 -62 44 -62 18 0 56 36 57 53 0 12 81 117 90 117 6 0 72 -48 88 -65 4 -4
-22 -47 -65 -104 -18 -24 -33 -52 -33 -62 0 -17 27 -39 47 -39 10 0 83 95 83
107 0 5 11 18 23 30 l23 21 40 -33 39 -33 -19 -34 c-11 -18 -40 -59 -64 -92
l-45 -59 24 -18 c33 -26 58 -24 69 6 5 14 14 25 20 25 5 0 10 5 10 10 0 9 73
114 110 157 20 24 9 44 -50 86 -33 23 -98 70 -145 105 -46 34 -88 62 -92 62
-5 0 -23 14 -41 30 -18 17 -34 30 -36 30 -1 0 -23 -28 -48 -63z"/>
<path d="M1535 1727 c-17 -17 -83 -88 -148 -157 -64 -69 -117 -132 -117 -141
0 -8 11 -26 25 -39 l25 -24 43 45 c23 25 66 71 95 103 29 33 57 55 61 50 10
-11 -4 -159 -18 -197 -6 -15 -11 -55 -12 -90 -1 -49 3 -71 17 -90 10 -15 24
-27 30 -27 10 0 288 284 319 326 11 16 10 22 -9 41 -11 12 -28 23 -36 23 -8 0
-61 -48 -117 -107 -87 -93 -103 -105 -109 -89 -4 11 0 48 9 85 10 36 17 86 17
110 0 24 7 70 15 102 15 55 14 61 -2 84 -24 33 -52 31 -88 -8z"/>
<path d="M5008 1634 l-37 -37 132 -134 c73 -74 133 -137 135 -141 1 -4 -20
-30 -48 -57 -27 -27 -50 -54 -50 -61 0 -14 33 -44 48 -44 6 0 39 28 74 63 35
34 96 92 136 129 39 37 72 74 72 81 0 15 -31 47 -46 47 -6 0 -30 -20 -54 -45
-24 -25 -49 -45 -56 -45 -10 0 -229 226 -259 267 -9 11 -17 7 -47 -23z"/>
<path d="M2124 1080 c-70 -45 -66 -150 8 -196 45 -28 75 -30 108 -7 47 33 59
56 60 109 0 47 -3 55 -35 83 -43 37 -94 41 -141 11z"/>
<path d="M4465 1069 c-32 -28 -35 -36 -35 -83 1 -58 15 -81 72 -110 36 -19 37
-19 79 -1 44 20 79 65 79 101 0 105 -117 161 -195 93z"/>
<path d="M2799 1013 c-6 -15 -15 -59 -19 -98 -5 -38 -13 -83 -19 -98 -6 -16
-11 -59 -11 -96 0 -59 4 -73 30 -109 58 -81 196 -109 273 -57 46 32 87 95 87
133 0 16 7 51 15 78 8 27 15 65 15 84 1 19 7 53 15 75 16 46 13 52 -35 57 -31
3 -37 -1 -52 -32 -10 -19 -18 -54 -18 -76 0 -23 -7 -61 -15 -84 -8 -23 -15
-56 -15 -72 0 -16 -12 -45 -26 -64 -24 -31 -31 -34 -79 -34 -47 0 -56 4 -79
31 -31 36 -33 79 -12 172 15 63 36 170 39 197 2 11 -10 16 -41 18 -38 3 -43 1
-53 -25z"/>
<path d="M3850 1028 c-14 -5 -56 -14 -95 -19 -80 -10 -181 -31 -190 -40 -8 -9
15 -57 31 -63 7 -3 27 -1 43 5 16 6 44 9 62 7 31 -3 33 -6 46 -63 7 -33 17
-91 22 -130 5 -38 14 -86 20 -105 6 -19 11 -48 11 -64 0 -27 1 -28 38 -21 65
12 65 1 11 273 -7 31 -12 75 -13 97 l-1 40 57 6 c68 7 90 23 86 58 -3 24 -7
26 -53 28 -27 1 -61 -3 -75 -9z"/>
<path d="M3346 954 c-14 -14 -16 -45 -14 -232 l3 -217 45 0 45 0 3 220 c2 198
1 221 -15 232 -23 17 -48 16 -67 -3z"/>
</g>
</svg>
