<?xml version="1.0" encoding="UTF-8"?>
<!DOCTYPE svg PUBLIC "-//W3C//DTD SVG 1.1//EN" "http://www.w3.org/Graphics/SVG/1.1/DTD/svg11.dtd">
<svg xmlns="http://www.w3.org/2000/svg" version="1.1" width="2535px" height="500px" style="shape-rendering:geometricPrecision; text-rendering:geometricPrecision; image-rendering:optimizeQuality; fill-rule:evenodd; clip-rule:evenodd" xmlns:xlink="http://www.w3.org/1999/xlink">
<g><path style="opacity:0.896" fill="#fefffe" d="M 244.5,3.5 C 247.482,3.96286 250.482,4.29619 253.5,4.5C 253.562,9.91971 253.395,15.253 253,20.5C 257.867,15.9677 262.367,11.1344 266.5,6C 270.833,5.33333 275.167,5.33333 279.5,6C 273.866,12.6357 267.866,18.969 261.5,25C 267.027,32.361 272.361,39.861 277.5,47.5C 277.167,47.8333 276.833,48.1667 276.5,48.5C 272.889,47.7382 269.222,47.2382 265.5,47C 261.456,41.0786 257.289,35.2453 253,29.5C 252.243,35.1493 251.743,40.816 251.5,46.5C 248.167,46.5 244.833,46.5 241.5,46.5C 242.466,32.1234 243.466,17.7901 244.5,3.5 Z"/></g>
<g><path style="opacity:0.892" fill="#fefffe" d="M 213.5,5.5 C 217.262,5.65238 220.928,6.31904 224.5,7.5C 225.932,10.3273 226.599,13.3273 226.5,16.5C 221.629,14.7922 216.629,14.2922 211.5,15C 207.5,17.3333 207.5,19.6667 211.5,22C 218.218,22.3676 224.218,24.5342 229.5,28.5C 233.983,42.8885 228.483,50.2218 213,50.5C 209.719,50.0447 206.552,49.2113 203.5,48C 202.789,45.2037 202.122,42.3704 201.5,39.5C 201.833,39.1667 202.167,38.8333 202.5,38.5C 208.274,41.7528 214.274,42.2528 220.5,40C 223.167,38 223.167,36 220.5,34C 215.167,32.6667 209.833,31.3333 204.5,30C 196.977,23.3424 196.644,16.3424 203.5,9C 206.85,7.51368 210.184,6.34702 213.5,5.5 Z"/></g>
<g><path style="opacity:0.9" fill="#fefffe" d="M 294.5,8.5 C 303.523,10.5055 312.523,12.6722 321.5,15C 322.334,17.712 322,20.3787 320.5,23C 314.807,22.3298 309.14,21.1632 303.5,19.5C 302.833,19.8333 302.167,20.1667 301.5,20.5C 300.907,22.3817 300.24,24.2151 299.5,26C 304.919,28.272 310.586,29.772 316.5,30.5C 316.599,33.6727 315.932,36.6727 314.5,39.5C 308.904,37.3415 303.237,36.3415 297.5,36.5C 296.833,38.5 296.167,40.5 295.5,42.5C 301.252,44.9412 307.252,46.7745 313.5,48C 313.957,48.414 314.291,48.914 314.5,49.5C 314.07,52.2762 312.904,54.6095 311,56.5C 302.521,54.2553 294.021,52.0887 285.5,50C 284.941,49.2753 284.608,48.4419 284.5,47.5C 287.686,34.4228 291.019,21.4228 294.5,8.5 Z"/></g>
<g><path style="opacity:0.89" fill="#fefffe" d="M 178.5,13.5 C 179.822,13.33 180.989,13.6634 182,14.5C 186.144,27.7637 189.978,41.0971 193.5,54.5C 190.933,54.8545 188.433,55.5212 186,56.5C 185.228,56.3552 184.561,56.0219 184,55.5C 179.85,42.231 176.017,28.8977 172.5,15.5C 174.786,15.405 176.786,14.7384 178.5,13.5 Z"/></g>
<g><path style="opacity:0.885" fill="#fefffe" d="M 159.5,19.5 C 161.201,21.7315 162.534,24.2315 163.5,27C 159.5,29.3333 155.5,31.6667 151.5,34C 156.356,43.5629 161.022,53.2296 165.5,63C 165.355,63.772 165.022,64.4387 164.5,65C 162.278,65.6946 160.111,66.5279 158,67.5C 152.275,58.389 147.275,48.7223 143,38.5C 142.667,38.1667 142.333,37.8333 142,37.5C 138.185,40.5203 134.018,41.8536 129.5,41.5C 127.69,39.2927 127.357,36.9593 128.5,34.5C 139.047,29.7252 149.38,24.7252 159.5,19.5 Z"/></g>
<g><path style="opacity:0.887" fill="#fefffe" d="M 359.5,31.5 C 363.226,31.8994 366.226,33.5661 368.5,36.5C 363.066,45.2652 358.066,54.2652 353.5,63.5C 357.543,72.0381 362.709,73.0381 369,66.5C 373.667,59.1667 378.333,51.8333 383,44.5C 385.975,45.7324 388.475,47.5658 390.5,50C 385.465,58.567 380.299,67.067 375,75.5C 366.467,82.129 357.967,81.9623 349.5,75C 344.278,68.9639 343.111,62.1306 346,54.5C 351.028,47.107 355.528,39.4403 359.5,31.5 Z"/></g>
<g><path style="opacity:0.888" fill="#fefffe" d="M 118.5,39.5 C 119.497,39.4701 120.164,39.9701 120.5,41C 119.558,49.0471 118.558,57.0471 117.5,65C 126.423,67.9825 135.423,70.8158 144.5,73.5C 141.81,76.1846 138.81,78.5179 135.5,80.5C 128.615,78.5931 121.782,76.5931 115,74.5C 114.333,75.1667 114.333,75.8333 115,76.5C 118.079,80.3244 120.912,84.3244 123.5,88.5C 121.393,90.7267 119.06,92.7267 116.5,94.5C 107.69,83.5603 99.3569,72.2269 91.5,60.5C 93.6068,58.2733 95.9401,56.2733 98.5,54.5C 101.833,58.5 105.167,62.5 108.5,66.5C 109.498,59.5224 110.332,52.5224 111,45.5C 113.688,43.636 116.188,41.636 118.5,39.5 Z"/></g>
<g><path style="opacity:0.954" fill="#fefffe" d="M 797.5,44.5 C 818.277,42.0947 825.777,50.7613 820,70.5C 815.988,75.2327 810.821,77.566 804.5,77.5C 789.525,76.9073 783.692,69.2406 787,54.5C 788.506,49.0091 792.006,45.6757 797.5,44.5 Z"/></g>
<g><path style="opacity:0.97" fill="#fefffe" d="M 624.5,54.5 C 635.833,54.5 647.167,54.5 658.5,54.5C 658.039,91.2015 658.539,127.868 660,164.5C 664.385,178.518 674.052,185.184 689,184.5C 704.682,184.849 714.349,177.516 718,162.5C 719.454,126.531 719.954,90.531 719.5,54.5C 730.833,54.5 742.167,54.5 753.5,54.5C 753.667,89.8349 753.5,125.168 753,160.5C 750.157,188.347 734.99,205.18 707.5,211C 694.5,213 681.5,213 668.5,211C 642.841,205.343 628.341,189.509 625,163.5C 624.5,127.168 624.333,90.8349 624.5,54.5 Z"/></g>
<g><path style="opacity:0.978" fill="#fefffe" d="M 845.5,54.5 C 885.167,54.5 924.833,54.5 964.5,54.5C 964.5,63.8333 964.5,73.1667 964.5,82.5C 950.167,82.5 935.833,82.5 921.5,82.5C 921.5,125.167 921.5,167.833 921.5,210.5C 910.167,210.5 898.833,210.5 887.5,210.5C 887.5,167.833 887.5,125.167 887.5,82.5C 873.5,82.5 859.5,82.5 845.5,82.5C 845.5,73.1667 845.5,63.8333 845.5,54.5 Z"/></g>
<g><path style="opacity:0.956" fill="#fefffe" d="M 1045.5,54.5 C 1052.86,54.1694 1060.2,54.5027 1067.5,55.5C 1095.58,97.9959 1123.42,140.663 1151,183.5C 1149.69,140.545 1149.19,97.5454 1149.5,54.5C 1155.5,54.5 1161.5,54.5 1167.5,54.5C 1167.5,106.5 1167.5,158.5 1167.5,210.5C 1160.14,210.831 1152.8,210.497 1145.5,209.5C 1117.86,166.698 1090.03,124.032 1062,81.5C 1063.3,124.464 1063.8,167.464 1063.5,210.5C 1057.5,210.5 1051.5,210.5 1045.5,210.5C 1045.5,158.5 1045.5,106.5 1045.5,54.5 Z"/></g>
<g><path style="opacity:0.894" fill="#fefffe" d="M 404.5,60.5 C 407.733,62.5609 410.066,65.2276 411.5,68.5C 409.672,77.4591 408.505,86.4591 408,95.5C 413.348,89.985 418.848,84.6517 424.5,79.5C 426.833,81.1667 428.833,83.1667 430.5,85.5C 421.505,96.3286 411.671,106.329 401,115.5C 397.436,114.264 395.936,111.764 396.5,108C 398.048,98.5012 399.215,89.0012 400,79.5C 394.684,85.9831 388.851,91.9831 382.5,97.5C 380.016,95.517 377.683,93.3504 375.5,91C 385.736,81.2668 395.403,71.1001 404.5,60.5 Z"/></g>
<g><path style="opacity:0.899" fill="#fefffe" d="M 74.5,77.5 C 84.8297,75.6868 90.8297,79.8534 92.5,90C 92.4202,91.8937 92.0869,93.7271 91.5,95.5C 97.8333,96.8333 104.167,98.1667 110.5,99.5C 108.684,101.817 106.684,103.984 104.5,106C 98.6162,106.351 92.7828,105.851 87,104.5C 85.0289,104.468 83.5289,105.302 82.5,107C 86.6475,109.98 90.3141,113.48 93.5,117.5C 91.4707,119.858 89.4707,122.192 87.5,124.5C 76.8391,115.172 66.5057,105.505 56.5,95.5C 61.5484,88.4516 67.5484,82.4516 74.5,77.5 Z M 76.5,86.5 C 82.7331,86.8889 84.5664,89.8889 82,95.5C 77.5611,101.914 73.3945,101.58 69.5,94.5C 71.3897,91.3456 73.723,88.6789 76.5,86.5 Z"/></g>
<g><path style="opacity:0.966" fill="#fefffe" d="M 233.5,85.5 C 302.084,82.7028 354.584,110.036 391,167.5C 418.511,219.994 419.511,272.994 394,326.5C 357.568,388.806 303.068,417.64 230.5,413C 168.123,404.277 123.623,371.444 97,314.5C 74.1449,254.158 81.8115,198.158 120,146.5C 149.788,111.216 187.621,90.8823 233.5,85.5 Z M 146.5,137.5 C 175.502,137.333 204.502,137.5 233.5,138C 256.833,156.667 280.167,175.333 303.5,194C 332.172,194.167 360.839,194.667 389.5,195.5C 391.564,200.026 393.231,204.692 394.5,209.5C 381.851,210.499 369.184,210.832 356.5,210.5C 356.963,213.482 357.296,216.482 357.5,219.5C 370.504,219.333 383.504,219.5 396.5,220C 397.861,224.362 398.528,228.862 398.5,233.5C 374.164,233.333 349.831,233.5 325.5,234C 322.447,237.387 319.78,241.053 317.5,245C 262.497,245.833 207.497,245.667 152.5,244.5C 151.167,242.167 149.833,239.833 148.5,237.5C 136.5,236.833 124.5,236.167 112.5,235.5C 111.515,233.902 111.349,232.235 112,230.5C 121.453,215.376 134.286,204.21 150.5,197C 153.167,196.333 155.833,195.667 158.5,195C 179.841,194.833 201.174,194.333 222.5,193.5C 216.87,186.535 210.87,179.868 204.5,173.5C 175.833,172.833 147.167,172.167 118.5,171.5C 120.5,168.5 122.5,165.5 124.5,162.5C 135.728,161.823 146.895,161.157 158,160.5C 159.753,157.995 161.253,155.329 162.5,152.5C 152.851,151.668 143.184,151.168 133.5,151C 137.364,145.971 141.697,141.471 146.5,137.5 Z M 315.5,137.5 C 327.171,137.333 338.838,137.5 350.5,138C 354.833,142.333 359.167,146.667 363.5,151C 353.5,151.333 343.5,151.667 333.5,152C 335.545,154.586 337.211,157.42 338.5,160.5C 349.485,161.332 360.485,161.832 371.5,162C 374.08,165.158 376.413,168.492 378.5,172C 362.833,172.333 347.167,172.667 331.5,173C 324.333,177.5 317.167,182 310,186.5C 299.5,178 289,169.5 278.5,161C 290.898,153.142 303.231,145.309 315.5,137.5 Z M 97.5,257.5 C 127.502,257.333 157.502,257.5 187.5,258C 199.5,265.333 211.5,272.667 223.5,280C 209.99,288.183 196.49,296.349 183,304.5C 176.434,300.799 169.934,296.966 163.5,293C 143.169,292.5 122.836,292.333 102.5,292.5C 101.674,288.864 101.008,285.197 100.5,281.5C 113.167,281.5 125.833,281.5 138.5,281.5C 138.726,278.751 138.393,276.084 137.5,273.5C 124.517,272.501 111.517,272.168 98.5,272.5C 97.6708,267.547 97.3375,262.547 97.5,257.5 Z M 277.5,257.5 C 318.167,257.5 358.833,257.5 399.5,257.5C 399.387,262.518 399.053,267.518 398.5,272.5C 385.167,272.5 371.833,272.5 358.5,272.5C 358.492,275.545 358.159,278.545 357.5,281.5C 370.517,281.168 383.517,281.501 396.5,282.5C 395.573,285.713 394.573,288.88 393.5,292C 362.167,292.333 330.833,292.667 299.5,293C 292.309,299.436 285.309,306.102 278.5,313C 289.833,313.333 301.167,313.667 312.5,314C 335.134,317.134 351.467,328.967 361.5,349.5C 361.032,351.134 360.032,352.3 358.5,353C 348.151,353.168 337.817,353.668 327.5,354.5C 326.5,356.5 325.5,358.5 324.5,360.5C 276.837,361.667 229.17,361.833 181.5,361C 178.833,357.667 176.167,354.333 173.5,351C 160.487,350.833 147.487,350.333 134.5,349.5C 131.138,345.939 128.138,342.105 125.5,338C 136.167,337.667 146.833,337.333 157.5,337C 156.039,334.579 154.706,332.079 153.5,329.5C 141.833,328.833 130.167,328.167 118.5,327.5C 115.912,323.326 113.579,318.993 111.5,314.5C 137.16,313.667 162.827,313.167 188.5,313C 218.567,294.976 248.234,276.476 277.5,257.5 Z"/></g>
<g><path style="opacity:0.955" fill="#fefffe" d="M 787.5,90.5 C 798.833,90.5 810.167,90.5 821.5,90.5C 821.5,130.5 821.5,170.5 821.5,210.5C 810.167,210.5 798.833,210.5 787.5,210.5C 787.5,170.5 787.5,130.5 787.5,90.5 Z"/></g>
<g><path style="opacity:0.948" fill="#fefffe" d="M 1242.5,91.5 C 1276.75,87.0256 1298.25,101.359 1307,134.5C 1311.09,155.516 1307.75,175.183 1297,193.5C 1282.72,209.595 1264.88,215.762 1243.5,212C 1220.6,206.768 1206.77,192.601 1202,169.5C 1198.28,150.335 1200.61,132.002 1209,114.5C 1216.8,101.85 1227.97,94.1836 1242.5,91.5 Z M 1245.5,107.5 C 1269.24,104.09 1283.41,114.09 1288,137.5C 1290.48,151.876 1289.14,165.876 1284,179.5C 1275.24,194.098 1262.41,199.598 1245.5,196C 1233.07,192.372 1225.24,184.205 1222,171.5C 1218.52,157.079 1218.85,142.746 1223,128.5C 1226.88,117.447 1234.38,110.447 1245.5,107.5 Z"/></g>
<g><path style="opacity:0.947" fill="#fefffe" d="M 1383.5,91.5 C 1390.89,91.2012 1398.22,91.5345 1405.5,92.5C 1405.83,93.1667 1406.17,93.8333 1406.5,94.5C 1405.46,99.455 1404.79,104.455 1404.5,109.5C 1379.84,104.68 1364.34,114.346 1358,138.5C 1357.5,162.498 1357.33,186.498 1357.5,210.5C 1351.17,210.5 1344.83,210.5 1338.5,210.5C 1338.5,171.5 1338.5,132.5 1338.5,93.5C 1343.83,93.5 1349.17,93.5 1354.5,93.5C 1354.61,100.524 1355.11,107.524 1356,114.5C 1362.05,102.941 1371.21,95.274 1383.5,91.5 Z"/></g>
<g><path style="opacity:0.951" fill="#fefffe" d="M 1453.5,91.5 C 1476.78,93.0272 1500.11,93.6939 1523.5,93.5C 1523.5,97.5 1523.5,101.5 1523.5,105.5C 1516.48,106.086 1509.48,106.919 1502.5,108C 1509,117.174 1511.17,127.34 1509,138.5C 1504.77,156.054 1493.61,165.887 1475.5,168C 1468.92,168.81 1462.42,168.643 1456,167.5C 1449.91,170.499 1446.08,175.333 1444.5,182C 1445.07,186.239 1447.41,188.906 1451.5,190C 1465.79,191.224 1480.13,191.891 1494.5,192C 1518.56,197.594 1527.06,212.427 1520,236.5C 1513.74,249.233 1503.57,257.066 1489.5,260C 1473.23,262.894 1456.89,263.227 1440.5,261C 1418.73,255.909 1409.9,242.409 1414,220.5C 1418.07,210.1 1425.57,203.6 1436.5,201C 1428,193.293 1426.16,184.126 1431,173.5C 1434.04,170.289 1437.21,167.289 1440.5,164.5C 1423.2,152.362 1417.7,136.029 1424,115.5C 1429.5,102.167 1439.33,94.1672 1453.5,91.5 Z M 1462.5,104.5 C 1481.09,103.433 1490.76,112.1 1491.5,130.5C 1490.76,146.738 1482.26,155.072 1466,155.5C 1446.11,153.938 1437.78,143.272 1441,123.5C 1443.7,111.958 1450.87,105.625 1462.5,104.5 Z M 1455.5,207.5 C 1467.19,207.395 1478.86,207.895 1490.5,209C 1498.95,210.446 1503.61,215.446 1504.5,224C 1503.61,233.79 1498.61,240.456 1489.5,244C 1471.96,250.276 1454.63,249.943 1437.5,243C 1429.71,235.494 1428.55,226.994 1434,217.5C 1439.71,210.776 1446.87,207.442 1455.5,207.5 Z"/></g>
<g><path style="opacity:0.957" fill="#fefffe" d="M 1580.5,91.5 C 1610.7,87.1609 1629.87,99.4942 1638,128.5C 1639.35,137.441 1639.85,146.441 1639.5,155.5C 1612.83,155.5 1586.17,155.5 1559.5,155.5C 1559.68,181.28 1572.52,194.947 1598,196.5C 1610.32,195.936 1622.15,193.269 1633.5,188.5C 1634.83,194.167 1634.83,199.833 1633.5,205.5C 1617.79,212.057 1601.46,214.223 1584.5,212C 1559.13,207.299 1544.63,192.133 1541,166.5C 1537.98,147.432 1540.98,129.432 1550,112.5C 1557.61,101.624 1567.78,94.6244 1580.5,91.5 Z M 1587.5,106.5 C 1609.4,107.066 1620.06,118.4 1619.5,140.5C 1599.49,140.833 1579.49,140.5 1559.5,139.5C 1561.19,121.684 1570.52,110.684 1587.5,106.5 Z"/></g>
<g><path style="opacity:0.945" fill="#fefffe" d="M 1691.5,91.5 C 1705.36,90.685 1719.03,91.8517 1732.5,95C 1736.16,95.829 1739.49,97.329 1742.5,99.5C 1740.33,104.5 1738.17,109.5 1736,114.5C 1724.11,108.922 1711.61,106.422 1698.5,107C 1690.54,106.894 1684.38,110.061 1680,116.5C 1677.86,124.351 1680.36,130.185 1687.5,134C 1702,139.945 1716.33,146.278 1730.5,153C 1743.83,162.311 1747.99,174.811 1743,190.5C 1736.38,203.744 1725.55,210.911 1710.5,212C 1699.46,212.85 1688.46,212.517 1677.5,211C 1672.24,210.101 1667.24,208.435 1662.5,206C 1661.53,200.259 1661.19,194.425 1661.5,188.5C 1673.3,193.533 1685.63,196.533 1698.5,197.5C 1704.99,197.121 1711.32,195.955 1717.5,194C 1725.14,190.082 1727.98,183.915 1726,175.5C 1722.05,169.23 1716.55,164.73 1709.5,162C 1698.25,157.918 1687.25,153.251 1676.5,148C 1660.61,137.093 1657.11,122.926 1666,105.5C 1673.06,98.0547 1681.56,93.388 1691.5,91.5 Z"/></g>
<g><path style="opacity:0.88" fill="#fefffe" d="M 441.5,99.5 C 444.444,101.918 446.278,104.918 447,108.5C 436.411,116.212 425.911,124.045 415.5,132C 414.365,132.749 413.365,132.583 412.5,131.5C 410.219,129.606 409.052,127.272 409,124.5C 419.992,116.268 430.826,107.934 441.5,99.5 Z"/></g>
<g><path style="opacity:0.887" fill="#fefffe" d="M 454.5,118.5 C 455.496,118.414 456.329,118.748 457,119.5C 458.167,121.833 459.333,124.167 460.5,126.5C 454.019,134.149 447.352,141.649 440.5,149C 449.849,148.331 459.182,147.165 468.5,145.5C 469.442,145.608 470.275,145.941 471,146.5C 472.167,148.833 473.333,151.167 474.5,153.5C 470.656,154.982 466.656,155.815 462.5,156C 451.521,157.582 440.521,158.582 429.5,159C 427.05,156.611 425.883,153.778 426,150.5C 436.079,140.26 445.579,129.593 454.5,118.5 Z"/></g>
<g><path style="opacity:0.895" fill="#fefffe" d="M 37.5,122.5 C 52.6533,124.414 67.6533,127.081 82.5,130.5C 81.3968,133.719 79.5634,136.385 77,138.5C 74.3333,137.833 71.6667,137.167 69,136.5C 65.3272,139.985 62.4939,144.152 60.5,149C 62.8922,151.728 64.8922,154.728 66.5,158C 65.1982,160.778 63.5315,163.278 61.5,165.5C 52.0936,154.35 42.9269,143.016 34,131.5C 34.5404,128.393 35.7071,125.393 37.5,122.5 Z M 47.5,133.5 C 51.2198,133.564 54.8865,134.064 58.5,135C 57.37,137.428 55.87,139.595 54,141.5C 51.5855,138.986 49.4188,136.319 47.5,133.5 Z"/></g>
<g><path style="opacity:0.895" fill="#fefffe" d="M 477.5,167.5 C 478.75,167.577 479.583,168.244 480,169.5C 482.603,177.809 485.103,186.142 487.5,194.5C 484.962,196.559 481.962,197.559 478.5,197.5C 477.474,191.729 475.974,186.062 474,180.5C 471.853,179.524 469.686,179.691 467.5,181C 466.978,181.561 466.645,182.228 466.5,183C 468.708,187.995 469.875,193.161 470,198.5C 467.618,199.554 465.118,200.221 462.5,200.5C 461.16,194.809 459.66,189.142 458,183.5C 455.004,184.29 452.171,185.456 449.5,187C 451.876,192.964 453.543,199.131 454.5,205.5C 452.063,205.756 449.729,206.423 447.5,207.5C 443.728,198.403 440.895,189.069 439,179.5C 451.889,175.368 464.722,171.368 477.5,167.5 Z"/></g>
<g><path style="opacity:0.891" fill="#fefffe" d="M 13.5,182.5 C 16.8151,183.329 20.1484,184.162 23.5,185C 19.1527,188.687 16.486,193.353 15.5,199C 15.9495,201.283 17.2828,202.783 19.5,203.5C 23.1435,199.56 26.3102,195.226 29,190.5C 41.0961,182.798 48.5961,185.965 51.5,200C 50.9286,206.719 48.5953,212.719 44.5,218C 41.1907,217.677 37.8574,217.011 34.5,216C 40.2963,210.775 42.6296,204.442 41.5,197C 39.8333,196.333 38.1667,196.333 36.5,197C 34.208,200.416 32.0414,203.916 30,207.5C 25.8604,212.211 20.6938,213.711 14.5,212C 12.3762,210.878 10.5429,209.378 9,207.5C 6.05803,198.334 7.55803,190.001 13.5,182.5 Z"/></g>
<g><path style="opacity:0.931" fill="#fefffe" d="M 156.5,205.5 C 164.833,205.5 173.167,205.5 181.5,205.5C 181.5,215.167 181.5,224.833 181.5,234.5C 173.472,234.831 165.472,234.498 157.5,233.5C 156.248,231.999 155.248,230.332 154.5,228.5C 145.833,227.833 137.167,227.167 128.5,226.5C 135.586,216.403 144.919,209.403 156.5,205.5 Z"/></g>
<g><path style="opacity:0.914" fill="#fefffe" d="M 197.5,205.5 C 209.615,204.442 214.449,209.776 212,221.5C 207.313,227.935 201.479,229.102 194.5,225C 188.595,217.368 189.595,210.868 197.5,205.5 Z"/></g>
<g><path style="opacity:0.902" fill="#fefffe" d="M 489.5,214.5 C 490.794,216.048 491.461,218.048 491.5,220.5C 492.855,227.901 492.688,235.234 491,242.5C 485.644,248.548 479.144,250.048 471.5,247C 469.649,245.316 467.982,243.483 466.5,241.5C 461.397,244.802 456.564,248.469 452,252.5C 450.723,248.903 450.39,245.236 451,241.5C 455.712,237.282 460.546,233.282 465.5,229.5C 465.167,227.833 464.167,226.833 462.5,226.5C 458.213,227.375 453.879,227.708 449.5,227.5C 449.296,224.482 448.963,221.482 448.5,218.5C 462.321,217.363 475.988,216.029 489.5,214.5 Z M 473.5,225.5 C 476.833,225.5 480.167,225.5 483.5,225.5C 486.269,231.612 484.769,236.278 479,239.5C 476.602,239.042 474.936,237.708 474,235.5C 473.502,232.183 473.335,228.85 473.5,225.5 Z"/></g>
<g><path style="opacity:0.907" fill="#fefffe" d="M 3.5,225.5 C 6.16667,225.5 8.83333,225.5 11.5,225.5C 11.5,232.167 11.5,238.833 11.5,245.5C 14.1667,245.5 16.8333,245.5 19.5,245.5C 19.5,239.5 19.5,233.5 19.5,227.5C 22.4475,227.223 25.2809,227.556 28,228.5C 27.6494,234.107 27.4828,239.773 27.5,245.5C 30.4824,245.963 33.4824,246.296 36.5,246.5C 36.5,239.833 36.5,233.167 36.5,226.5C 39.5,226.5 42.5,226.5 45.5,226.5C 45.6125,236.53 45.1125,246.53 44,256.5C 30.2391,255.538 16.4058,254.871 2.5,254.5C 2.2747,244.801 2.60804,235.134 3.5,225.5 Z"/></g>
<g><path style="opacity:0.891" fill="#fefffe" d="M 453.5,260.5 C 456.391,261.403 459.391,261.736 462.5,261.5C 459.573,266.207 457.573,271.374 456.5,277C 456.892,282.509 459.225,283.676 463.5,280.5C 465.712,274.568 469.045,269.401 473.5,265C 485.536,261.514 491.536,266.014 491.5,278.5C 491.815,284.194 490.149,289.194 486.5,293.5C 483.497,292.915 480.497,292.248 477.5,291.5C 481.833,286.999 483.667,281.666 483,275.5C 481,272.833 479,272.833 477,275.5C 474.797,280.744 471.964,285.578 468.5,290C 459.703,294.349 453.203,292.182 449,283.5C 447.39,275.142 448.89,267.475 453.5,260.5 Z"/></g>
<g><path style="opacity:0.892" fill="#fefffe" d="M 36.5,266.5 C 40.876,267.024 44.0426,269.357 46,273.5C 51.9027,289.174 47.0694,299.674 31.5,305C 10.9171,306.218 2.25041,296.551 5.5,276C 5.90536,275.055 6.57203,274.388 7.5,274C 9.89073,273.713 12.2241,273.213 14.5,272.5C 14.8333,272.833 15.1667,273.167 15.5,273.5C 12.3135,280.471 12.9802,286.971 17.5,293C 26.3867,297.648 33.5534,295.815 39,287.5C 40.8645,280.509 38.3645,276.842 31.5,276.5C 31.2436,278.792 31.5769,280.959 32.5,283C 30.1108,284.096 27.6108,284.929 25,285.5C 23.3043,280.345 22.1377,275.011 21.5,269.5C 26.6845,268.807 31.6845,267.807 36.5,266.5 Z"/></g>
<g><path style="opacity:0.939" fill="#fefffe" d="M 834.5,278.5 C 840.833,278.5 847.167,278.5 853.5,278.5C 853.603,313.186 853.437,347.853 853,382.5C 869.131,364.034 885.631,345.868 902.5,328C 910.167,327.333 917.833,327.333 925.5,328C 910.051,344.405 894.717,360.905 879.5,377.5C 895.833,399.5 912.167,421.5 928.5,443.5C 921.189,444.665 913.856,444.831 906.5,444C 892.701,426.218 879.034,408.385 865.5,390.5C 861.573,393.715 857.74,397.049 854,400.5C 853.5,415.163 853.333,429.83 853.5,444.5C 847.167,444.5 840.833,444.5 834.5,444.5C 834.5,389.167 834.5,333.833 834.5,278.5 Z"/></g>
<g><path style="opacity:0.932" fill="#fefffe" d="M 1184.5,278.5 C 1190.83,278.5 1197.17,278.5 1203.5,278.5C 1203.61,313.189 1203.44,347.855 1203,382.5C 1219.13,364.034 1235.63,345.868 1252.5,328C 1260.17,327.333 1267.83,327.333 1275.5,328C 1260.35,344.65 1245.02,361.15 1229.5,377.5C 1245.97,399.808 1262.64,421.975 1279.5,444C 1271.83,444.667 1264.17,444.667 1256.5,444C 1242.7,426.218 1229.03,408.385 1215.5,390.5C 1211.81,394.02 1207.98,397.353 1204,400.5C 1203.5,415.163 1203.33,429.83 1203.5,444.5C 1197.17,444.5 1190.83,444.5 1184.5,444.5C 1184.5,389.167 1184.5,333.833 1184.5,278.5 Z"/></g>
<g><path style="opacity:0.914" fill="#fefffe" d="M 1032.5,283.5 C 1044.63,284.401 1048.8,290.734 1045,302.5C 1040.35,308.931 1034.52,310.098 1027.5,306C 1024.64,301.219 1023.8,296.052 1025,290.5C 1026.77,287.228 1029.27,284.895 1032.5,283.5 Z"/></g>
<g><path style="opacity:0.919" fill="#fefffe" d="M 1751.5,283.5 C 1763.95,284.7 1768.12,291.366 1764,303.5C 1759.7,308.448 1754.53,309.615 1748.5,307C 1743.35,301.694 1742.18,295.528 1745,288.5C 1746.8,286.174 1748.97,284.508 1751.5,283.5 Z"/></g>
<g><path style="opacity:0.918" fill="#fefffe" d="M 2230.5,283.5 C 2237.52,282.915 2242.02,285.915 2244,292.5C 2245.65,303.847 2240.82,309.013 2229.5,308C 2226.67,306.5 2224.5,304.333 2223,301.5C 2220.79,293.256 2223.29,287.256 2230.5,283.5 Z"/></g>
<g><path style="opacity:0.885" fill="#fefffe" d="M 444.5,299.5 C 458.189,303.34 471.855,307.34 485.5,311.5C 484.668,314.161 483.834,316.828 483,319.5C 482.586,319.957 482.086,320.291 481.5,320.5C 468.087,316.695 454.753,312.695 441.5,308.5C 442.659,305.519 443.659,302.519 444.5,299.5 Z"/></g>
<g><path style="opacity:0.971" fill="#fefffe" d="M 957.5,300.5 C 961.167,300.5 964.833,300.5 968.5,300.5C 968.5,309.5 968.5,318.5 968.5,327.5C 979.833,327.5 991.167,327.5 1002.5,327.5C 1002.5,332.167 1002.5,336.833 1002.5,341.5C 991.167,341.5 979.833,341.5 968.5,341.5C 968.067,367.2 968.567,392.867 970,418.5C 972.966,426.987 978.966,431.32 988,431.5C 993.157,430.692 998.324,430.025 1003.5,429.5C 1003.67,434.179 1003.5,438.845 1003,443.5C 1000.34,444.834 997.506,445.668 994.5,446C 986.436,446.863 978.436,446.53 970.5,445C 959.145,440.832 952.645,432.665 951,420.5C 950.5,394.169 950.333,367.835 950.5,341.5C 944.833,341.5 939.167,341.5 933.5,341.5C 933.216,338.223 933.549,335.057 934.5,332C 939.752,329.538 945.085,327.371 950.5,325.5C 952.63,317.109 954.964,308.776 957.5,300.5 Z"/></g>
<g><path style="opacity:0.971" fill="#fefffe" d="M 2287.5,300.5 C 2291.17,300.5 2294.83,300.5 2298.5,300.5C 2298.5,309.5 2298.5,318.5 2298.5,327.5C 2309.83,327.5 2321.17,327.5 2332.5,327.5C 2332.5,332.167 2332.5,336.833 2332.5,341.5C 2321.17,341.5 2309.83,341.5 2298.5,341.5C 2298.07,367.2 2298.57,392.867 2300,418.5C 2302.97,426.987 2308.97,431.32 2318,431.5C 2323.16,430.692 2328.32,430.025 2333.5,429.5C 2333.67,434.179 2333.5,438.845 2333,443.5C 2322.36,446.867 2311.52,447.367 2300.5,445C 2289.15,440.832 2282.65,432.665 2281,420.5C 2280.5,394.169 2280.33,367.835 2280.5,341.5C 2274.83,341.5 2269.17,341.5 2263.5,341.5C 2263.34,338.482 2263.5,335.482 2264,332.5C 2269.76,330.036 2275.26,327.203 2280.5,324C 2282.94,316.179 2285.27,308.345 2287.5,300.5 Z"/></g>
<g><path style="opacity:0.971" fill="#fefffe" d="M 2486.5,300.5 C 2490.17,300.5 2493.83,300.5 2497.5,300.5C 2497.5,309.5 2497.5,318.5 2497.5,327.5C 2508.83,327.5 2520.17,327.5 2531.5,327.5C 2531.5,332.167 2531.5,336.833 2531.5,341.5C 2520.17,341.5 2508.83,341.5 2497.5,341.5C 2497.07,367.2 2497.57,392.867 2499,418.5C 2501.97,426.987 2507.97,431.32 2517,431.5C 2522.16,430.692 2527.32,430.025 2532.5,429.5C 2532.67,434.179 2532.5,438.845 2532,443.5C 2529.34,444.834 2526.51,445.668 2523.5,446C 2515.44,446.863 2507.44,446.53 2499.5,445C 2488.15,440.832 2481.65,432.665 2480,420.5C 2479.5,394.169 2479.33,367.835 2479.5,341.5C 2473.83,341.5 2468.17,341.5 2462.5,341.5C 2462.34,338.482 2462.5,335.482 2463,332.5C 2468.76,330.036 2474.26,327.203 2479.5,324C 2481.94,316.179 2484.27,308.345 2486.5,300.5 Z"/></g>
<g><path style="opacity:0.895" fill="#fefffe" d="M 50.5,307.5 C 51.4959,307.414 52.3292,307.748 53,308.5C 54.0695,311.208 55.2361,313.875 56.5,316.5C 53.0276,321.806 49.3609,326.972 45.5,332C 46.1905,333.067 46.6905,334.234 47,335.5C 51.6667,333.5 56.3333,331.5 61,329.5C 62.8575,332.572 64.0242,335.905 64.5,339.5C 51.5163,344.074 38.683,349.074 26,354.5C 20.4796,345.944 17.813,336.61 18,326.5C 22.0778,318.917 28.2445,316.417 36.5,319C 38.286,319.785 39.786,320.951 41,322.5C 44.688,317.782 47.8546,312.782 50.5,307.5 Z M 29.5,327.5 C 32.3245,327.081 34.4912,328.081 36,330.5C 36.9771,333.102 38.1437,335.602 39.5,338C 36.3159,339.504 33.1493,341.004 30,342.5C 28.6326,339.397 27.4659,336.23 26.5,333C 26.6132,330.601 27.6132,328.768 29.5,327.5 Z"/></g>
<g><path style="opacity:0.919" fill="#fefffe" d="M 274.5,323.5 C 286.313,325.121 289.813,331.454 285,342.5C 278.67,347.916 272.67,347.583 267,341.5C 263.265,332.658 265.765,326.658 274.5,323.5 Z"/></g>
<g><path style="opacity:0.927" fill="#fefffe" d="M 296.5,323.5 C 317.304,320.205 333.97,326.871 346.5,343.5C 338.521,344.332 330.521,344.832 322.5,345C 321.5,346.667 320.5,348.333 319.5,350C 311.841,350.5 304.174,350.666 296.5,350.5C 296.5,341.5 296.5,332.5 296.5,323.5 Z"/></g>
<g><path style="opacity:0.941" fill="#fefffe" d="M 798.5,324.5 C 803.389,325.019 808.222,325.685 813,326.5C 813.208,332.215 812.708,337.881 811.5,343.5C 785.968,338.875 770.468,349.208 765,374.5C 764.5,397.831 764.333,421.164 764.5,444.5C 758.167,444.5 751.833,444.5 745.5,444.5C 745.5,405.5 745.5,366.5 745.5,327.5C 750.833,327.5 756.167,327.5 761.5,327.5C 761.873,334.226 762.706,340.893 764,347.5C 771.66,333.93 783.16,326.263 798.5,324.5 Z"/></g>
<g><path style="opacity:0.942" fill="#fefffe" d="M 1115.5,324.5 C 1128.57,324.882 1141.24,327.382 1153.5,332C 1154.02,332.561 1154.36,333.228 1154.5,334C 1152.53,338.108 1150.7,342.275 1149,346.5C 1148.28,347.059 1147.44,347.392 1146.5,347.5C 1130.85,340.426 1114.85,339.259 1098.5,344C 1090.69,349.65 1089.52,356.483 1095,364.5C 1107.07,371.864 1119.91,377.698 1133.5,382C 1153.88,389.932 1161.05,404.432 1155,425.5C 1147.9,437.98 1137.07,444.814 1122.5,446C 1105.94,448.085 1089.94,446.085 1074.5,440C 1073.53,434.259 1073.19,428.425 1073.5,422.5C 1085.5,427.442 1098,430.442 1111,431.5C 1119.47,431.426 1127.3,429.259 1134.5,425C 1141.52,416.697 1140.86,409.031 1132.5,402C 1120.34,395.253 1107.67,389.586 1094.5,385C 1074.92,376.009 1069.09,361.509 1077,341.5C 1081.74,335.102 1087.91,330.602 1095.5,328C 1102.21,326.286 1108.88,325.12 1115.5,324.5 Z"/></g>
<g><path style="opacity:0.953" fill="#fefffe" d="M 1342.5,324.5 C 1367.02,324.538 1382.86,336.204 1390,359.5C 1391.91,369.408 1392.74,379.408 1392.5,389.5C 1365.49,389.167 1338.49,389.5 1311.5,390.5C 1313.3,418.805 1328.3,431.972 1356.5,430C 1367.2,428.908 1377.54,426.408 1387.5,422.5C 1388.09,428.631 1387.43,434.464 1385.5,440C 1365.81,447.398 1345.81,448.398 1325.5,443C 1305.34,434.153 1294.51,418.653 1293,396.5C 1290.32,375.892 1294.98,357.225 1307,340.5C 1316.85,330.611 1328.69,325.278 1342.5,324.5 Z M 1340.5,340.5 C 1362.38,341.052 1373.05,352.385 1372.5,374.5C 1352.5,374.5 1332.5,374.5 1312.5,374.5C 1313.64,356.052 1322.98,344.718 1340.5,340.5 Z"/></g>
<g><path style="opacity:0.967" fill="#fefffe" d="M 1665.5,324.5 C 1680.47,323.541 1692.97,328.541 1703,339.5C 1705.99,344.816 1707.99,350.482 1709,356.5C 1709.5,385.831 1709.67,415.165 1709.5,444.5C 1703.5,444.5 1697.5,444.5 1691.5,444.5C 1691.93,415.804 1691.43,387.137 1690,358.5C 1686.21,346.006 1677.71,340.006 1664.5,340.5C 1645.13,340.704 1633.96,350.371 1631,369.5C 1629.65,394.479 1629.15,419.479 1629.5,444.5C 1623.5,444.5 1617.5,444.5 1611.5,444.5C 1611.5,405.5 1611.5,366.5 1611.5,327.5C 1616.51,327.334 1621.51,327.501 1626.5,328C 1627.53,332.829 1628.7,337.663 1630,342.5C 1639.11,331.029 1650.94,325.029 1665.5,324.5 Z"/></g>
<g><path style="opacity:0.952" fill="#fefffe" d="M 1952.5,324.5 C 1977.02,324.538 1992.86,336.204 2000,359.5C 2001.98,369.401 2002.82,379.401 2002.5,389.5C 1975.49,389.167 1948.49,389.5 1921.5,390.5C 1923.3,418.805 1938.3,431.972 1966.5,430C 1977.2,428.908 1987.54,426.408 1997.5,422.5C 1998.09,428.631 1997.43,434.464 1995.5,440C 1975.83,447.398 1955.83,448.398 1935.5,443C 1915.39,433.647 1904.56,417.813 1903,395.5C 1899.95,372.654 1906.12,352.82 1921.5,336C 1930.7,328.88 1941.03,325.047 1952.5,324.5 Z M 1950.5,340.5 C 1972.39,341.059 1983.06,352.393 1982.5,374.5C 1962.5,374.5 1942.5,374.5 1922.5,374.5C 1923.6,356.091 1932.93,344.758 1950.5,340.5 Z"/></g>
<g><path style="opacity:0.973" fill="#fefffe" d="M 2083.5,324.5 C 2088.52,325.047 2093.52,325.714 2098.5,326.5C 2098.83,327 2099.17,327.5 2099.5,328C 2098.57,332.811 2097.74,337.644 2097,342.5C 2069.55,338.938 2053.88,350.938 2050,378.5C 2049.5,400.497 2049.33,422.497 2049.5,444.5C 2043.5,444.5 2037.5,444.5 2031.5,444.5C 2031.5,405.5 2031.5,366.5 2031.5,327.5C 2036.54,327.173 2041.54,327.506 2046.5,328.5C 2047.53,335.12 2048.36,341.787 2049,348.5C 2056.61,334.635 2068.11,326.635 2083.5,324.5 Z"/></g>
<g><path style="opacity:0.942" fill="#fefffe" d="M 2154.5,324.5 C 2167.61,324.741 2180.28,327.241 2192.5,332C 2193.02,332.561 2193.36,333.228 2193.5,334C 2192.06,338.333 2190.22,342.499 2188,346.5C 2187.44,347.022 2186.77,347.355 2186,347.5C 2172.32,341.602 2158.15,339.769 2143.5,342C 2132.82,344.64 2128.99,351.14 2132,361.5C 2134.54,364.372 2137.37,366.872 2140.5,369C 2153.92,374.472 2167.25,380.138 2180.5,386C 2195.47,395.451 2199.97,408.617 2194,425.5C 2190.89,432.279 2186.05,437.445 2179.5,441C 2169.78,445.276 2159.62,447.11 2149,446.5C 2136.53,447.267 2124.69,444.934 2113.5,439.5C 2112.5,433.872 2112.17,428.206 2112.5,422.5C 2124.53,427.3 2137.03,430.3 2150,431.5C 2157.96,431.486 2165.46,429.652 2172.5,426C 2180.9,416.991 2180.24,408.657 2170.5,401C 2154.68,393.924 2139.02,386.59 2123.5,379C 2109.63,364.952 2108.96,350.285 2121.5,335C 2131.55,328.243 2142.55,324.743 2154.5,324.5 Z"/></g>
<g><path style="opacity:0.957" fill="#fefffe" d="M 2399.5,324.5 C 2424.41,324.579 2440.24,336.579 2447,360.5C 2448.36,370.109 2448.86,379.776 2448.5,389.5C 2421.83,389.5 2395.17,389.5 2368.5,389.5C 2368.89,415.057 2381.73,428.723 2407,430.5C 2419.38,430.191 2431.21,427.525 2442.5,422.5C 2443.66,428.137 2443.83,433.804 2443,439.5C 2422.15,447.796 2400.98,448.629 2379.5,442C 2358.06,430.127 2348.06,411.794 2349.5,387C 2348.82,370.202 2353.32,355.035 2363,341.5C 2372.79,330.525 2384.95,324.858 2399.5,324.5 Z M 2397.5,340.5 C 2412.12,339.709 2421.95,346.043 2427,359.5C 2427.93,364.359 2428.77,369.192 2429.5,374C 2409.5,374.5 2389.5,374.667 2369.5,374.5C 2370.43,355.861 2379.76,344.528 2397.5,340.5 Z"/></g>
<g><path style="opacity:0.952" fill="#fefffe" d="M 657.5,325.5 C 668.296,324.932 678.963,325.766 689.5,328C 702.003,332.849 708.836,342.015 710,355.5C 710.5,385.165 710.667,414.831 710.5,444.5C 705.786,444.827 701.12,444.493 696.5,443.5C 695.178,438.547 694.012,433.547 693,428.5C 680.069,444.035 663.569,449.868 643.5,446C 621.208,439.985 612.375,425.485 617,402.5C 620.007,392.16 626.507,384.993 636.5,381C 640.773,379.465 645.106,378.131 649.5,377C 663.76,375.01 678.093,373.844 692.5,373.5C 693.441,363.697 691.275,354.697 686,346.5C 679.255,341.749 671.755,339.916 663.5,341C 653.827,342.224 644.661,345.058 636,349.5C 635.228,349.355 634.561,349.022 634,348.5C 632.667,345.167 631.333,341.833 630,338.5C 629.219,337.056 629.386,335.723 630.5,334.5C 639.255,330.404 648.255,327.404 657.5,325.5 Z M 676.5,387.5 C 681.5,387.5 686.5,387.5 691.5,387.5C 695.426,414.217 684.093,428.884 657.5,431.5C 638.269,429.77 631.769,419.77 638,401.5C 642.671,394.741 649.171,390.908 657.5,390C 663.977,389.138 670.311,388.305 676.5,387.5 Z"/></g>
<g><path style="opacity:0.945" fill="#fefffe" d="M 1025.5,327.5 C 1031.83,327.5 1038.17,327.5 1044.5,327.5C 1044.5,366.5 1044.5,405.5 1044.5,444.5C 1038.17,444.5 1031.83,444.5 1025.5,444.5C 1025.5,405.5 1025.5,366.5 1025.5,327.5 Z"/></g>
<g><path style="opacity:0.964" fill="#fefffe" d="M 1476.5,327.5 C 1482.83,327.5 1489.17,327.5 1495.5,327.5C 1495.03,356.884 1495.53,386.217 1497,415.5C 1501.49,426.591 1509.83,431.591 1522,430.5C 1543.89,429.948 1555.22,418.614 1556,396.5C 1556.5,373.502 1556.67,350.502 1556.5,327.5C 1562.5,327.5 1568.5,327.5 1574.5,327.5C 1574.5,366.5 1574.5,405.5 1574.5,444.5C 1569.46,444.827 1564.46,444.494 1559.5,443.5C 1558.61,439.149 1557.61,434.816 1556.5,430.5C 1543.6,444.52 1527.6,449.687 1508.5,446C 1489.54,443.37 1479.04,432.536 1477,413.5C 1476.5,384.835 1476.33,356.169 1476.5,327.5 Z"/></g>
<g><path style="opacity:0.945" fill="#fefffe" d="M 1744.5,327.5 C 1750.83,327.5 1757.17,327.5 1763.5,327.5C 1763.5,366.5 1763.5,405.5 1763.5,444.5C 1757.17,444.5 1750.83,444.5 1744.5,444.5C 1744.5,405.5 1744.5,366.5 1744.5,327.5 Z"/></g>
<g><path style="opacity:0.947" fill="#fefffe" d="M 1781.5,327.5 C 1788.2,327.17 1794.87,327.503 1801.5,328.5C 1813.85,360.866 1825.35,393.533 1836,426.5C 1847.1,393.628 1858.77,360.962 1871,328.5C 1877.78,327.189 1884.61,327.189 1891.5,328.5C 1876.83,366.833 1862.17,405.167 1847.5,443.5C 1839.94,444.813 1832.44,444.813 1825,443.5C 1810.21,404.922 1795.71,366.255 1781.5,327.5 Z"/></g>
<g><path style="opacity:0.945" fill="#fefffe" d="M 2223.5,327.5 C 2229.83,327.5 2236.17,327.5 2242.5,327.5C 2242.5,366.5 2242.5,405.5 2242.5,444.5C 2236.17,444.5 2229.83,444.5 2223.5,444.5C 2223.5,405.5 2223.5,366.5 2223.5,327.5 Z"/></g>
<g><path style="opacity:0.884" fill="#fefffe" d="M 434.5,328.5 C 444.84,332.753 455.006,337.419 465,342.5C 466.898,338.372 469.065,334.372 471.5,330.5C 473.811,331.214 475.978,332.214 478,333.5C 474.247,344.524 469.747,355.357 464.5,366C 461.21,366.689 458.543,365.689 456.5,363C 457.627,359.08 459.294,355.413 461.5,352C 451.167,347 440.833,342 430.5,337C 431.932,334.197 433.266,331.364 434.5,328.5 Z"/></g>
<g><path style="opacity:0.897" fill="#fefffe" d="M 60.5,352.5 C 77.5737,353.731 84.7404,362.731 82,379.5C 75.863,391.651 66.0297,396.485 52.5,394C 39.6764,386.862 36.5097,376.695 43,363.5C 47.7449,357.887 53.5782,354.221 60.5,352.5 Z M 60.5,362.5 C 71.3786,362.204 75.2119,367.204 72,377.5C 67.3273,384.278 61.1606,386.445 53.5,384C 48.242,379.902 47.4087,375.069 51,369.5C 53.7901,366.535 56.9567,364.202 60.5,362.5 Z"/></g>
<g><path style="opacity:0.876" fill="#fefffe" d="M 420.5,355.5 C 422.783,355.608 424.783,356.441 426.5,358C 436.5,365.333 446.5,372.667 456.5,380C 450.788,387.923 444.955,395.756 439,403.5C 436.743,401.954 434.576,400.288 432.5,398.5C 435.972,393.194 439.639,388.028 443.5,383C 441.792,380.319 439.458,378.985 436.5,379C 433.333,383.5 430.167,388 427,392.5C 424.456,390.998 422.29,389.164 420.5,387C 423.582,382.174 426.916,377.508 430.5,373C 428.5,371.667 426.5,370.333 424.5,369C 423.551,368.383 422.718,368.549 422,369.5C 418.833,374 415.667,378.5 412.5,383C 409.458,382.673 406.791,381.34 404.5,379C 409.967,371.225 415.3,363.391 420.5,355.5 Z"/></g>
<g><path style="opacity:0.89" fill="#fefffe" d="M 94.5,384.5 C 98.1676,385.667 100.168,388.167 100.5,392C 98.9514,401.5 97.7848,411 97,420.5C 103.042,414.625 108.876,408.625 114.5,402.5C 117.037,404.202 119.037,406.369 120.5,409C 111.731,419.938 102.065,430.104 91.5,439.5C 88.5267,437.702 86.5267,435.202 85.5,432C 87.2739,422.867 88.4406,413.7 89,404.5C 84.0174,410.65 78.5174,416.316 72.5,421.5C 69.9633,419.798 67.9633,417.631 66.5,415C 76.0266,404.975 85.3599,394.808 94.5,384.5 Z"/></g>
<g><path style="opacity:0.884" fill="#fefffe" d="M 389.5,393.5 C 390.239,393.369 390.906,393.536 391.5,394C 399.346,401.546 406.846,409.379 414,417.5C 417.344,414.82 420.678,412.153 424,409.5C 426.685,410.686 428.518,412.686 429.5,415.5C 421.103,424.067 412.27,432.067 403,439.5C 401.074,437.869 399.24,436.035 397.5,434C 400.683,430.985 403.683,427.818 406.5,424.5C 398.65,416.484 390.983,408.318 383.5,400C 385.706,397.963 387.706,395.797 389.5,393.5 Z"/></g>
<g><path style="opacity:0.917" fill="#fefffe" d="M 142.5,442.5 C 151.642,440.731 156.975,444.398 158.5,453.5C 156.38,462.895 150.713,466.062 141.5,463C 136.847,459.212 135.347,454.378 137,448.5C 138.36,445.977 140.193,443.977 142.5,442.5 Z"/></g>
<g><path style="opacity:0.917" fill="#fefffe" d="M 344.5,442.5 C 356.127,441.954 360.627,447.287 358,458.5C 350.931,466.755 344.265,466.422 338,457.5C 335.865,450.45 338.032,445.45 344.5,442.5 Z"/></g>
<g><path style="opacity:0.898" fill="#fefffe" d="M 198.5,446.5 C 201.487,446.998 204.487,447.498 207.5,448C 208.022,448.561 208.355,449.228 208.5,450C 206.77,458.484 205.103,466.984 203.5,475.5C 204.718,482.282 208.718,484.782 215.5,483C 216.333,482.167 217.167,481.333 218,480.5C 220.61,471.284 222.777,461.951 224.5,452.5C 227.446,451.679 230.446,451.679 233.5,452.5C 232.714,464.558 230.214,476.224 226,487.5C 224.269,489.617 222.102,491.117 219.5,492C 210.985,493.948 203.485,492.114 197,486.5C 195.209,483.216 194.042,479.716 193.5,476C 195.438,466.207 197.104,456.374 198.5,446.5 Z"/></g>
<g><path style="opacity:0.893" fill="#fefffe" d="M 297.5,446.5 C 298.5,446.5 299.5,446.5 300.5,446.5C 300.508,449.545 300.841,452.545 301.5,455.5C 297.124,455.909 292.79,456.575 288.5,457.5C 290.384,468.805 292.051,480.138 293.5,491.5C 290.262,492.395 287.095,492.395 284,491.5C 282.272,480.801 280.439,470.134 278.5,459.5C 274.594,459.714 270.761,460.381 267,461.5C 266.055,461.095 265.388,460.428 265,459.5C 264.689,457.444 264.189,455.444 263.5,453.5C 274.952,451.152 286.285,448.818 297.5,446.5 Z"/></g>
<g><path style="opacity:0.976" fill="#fefffe" d="M 244.5,453.5 C 247.5,453.5 250.5,453.5 253.5,453.5C 253.5,467.5 253.5,481.5 253.5,495.5C 250.5,495.5 247.5,495.5 244.5,495.5C 244.5,481.5 244.5,467.5 244.5,453.5 Z"/></g>
</svg>
